<?xml version="1.0" encoding="utf-8"?>
<!-- Generator: Adobe Illustrator 23.1.1, SVG Export Plug-In . SVG Version: 6.00 Build 0)  -->
<svg version="1.1" id="圖層_1" xmlns="http://www.w3.org/2000/svg" xmlns:xlink="http://www.w3.org/1999/xlink" x="0px" y="0px"
	 viewBox="0 0 222 222" style="enable-background:new 0 0 222 222;" xml:space="preserve">
<style type="text/css">
	.st0{fill:#34373D;stroke:#34373D;}
	.st1{fill:none;}
	.st2{fill:none;stroke:#34373D;stroke-width:3;}
</style>
<g id="组_9" transform="translate(0.206)">
	<g id="组_5" transform="translate(48.497 47.584)">
		<path id="路径_13" class="st0" d="M1,22.7c0.2-0.8,0.4-1.5,0.6-2.3C3.5,13.5,9.7,8.7,16.8,8.7c9.5-0.2,19.1-0.1,28.6,0
			c1.8-0.2,3.4,1.2,3.5,2.9c0,0.1,0,0.2,0,0.3c0,1.9-1.5,3.2-3.6,3.2c-9.3,0-18.6,0-27.9,0c-4.9-0.2-9.1,3.3-9.9,8.1
			c-0.1,0.7-0.2,1.4-0.1,2.2c0,27.6,0,55.3,0,82.9c0,6.2,4,10.2,10.2,10.2c29.8,0,59.5,0,89.3,0c6.3,0,10.3-4.1,10.3-10.4
			c0-9.2,0-18.3,0-27.5c0-2.1,1.2-3.4,3-3.6c1.6-0.2,3.1,1,3.4,2.6c0.1,0.4,0.1,0.9,0.1,1.3c0,9.3,0,18.5,0,27.8
			c0.1,7.5-5.1,14.1-12.4,15.8c-1.4,0.3-2.9,0.5-4.4,0.4c-29.7,0-59.4,0-89.2,0c-8.7,0-14.9-5.2-16.6-13.7c-0.1-0.2-0.1-0.4-0.2-0.6
			L1,22.7z"/>
		<path id="路径_14" class="st0" d="M66.6,74.9L51.7,60l46.8-46.8l14.9,14.9L66.6,74.9z"/>
		<path id="路径_15" class="st0" d="M118.2,23.2L103.2,8.2c1.4-1.5,2.9-2.9,4.5-4.2c3-2.2,7.1-2,9.9,0.6c1.6,1.4,3.1,2.9,4.5,4.5
			c2.7,2.9,2.8,7.3,0.3,10.3C121,20.7,119.6,22,118.2,23.2z"/>
		<path id="路径_16" class="st0" d="M60.3,78.3l-16.5,4.6l4.6-16.5L60.3,78.3z"/>
	</g>
	<g id="椭圆_11" transform="translate(-0.206)">
		<ellipse class="st1" cx="111" cy="111" rx="110" ry="108.5"/>
		<ellipse class="st2" cx="111" cy="111" rx="108.5" ry="107"/>
	</g>
</g>
</svg>
