<svg id="圖層_1" data-name="圖層 1" xmlns="http://www.w3.org/2000/svg" viewBox="0 0 789.53 621.55"><defs><style>.cls-1,.cls-4,.cls-5{fill:none;}.cls-2,.cls-7{fill:#fff;}.cls-3{fill:#8dd0da;}.cls-4{stroke:#999899;}.cls-4,.cls-5,.cls-7{stroke-miterlimit:10;}.cls-4,.cls-5{stroke-width:3px;}.cls-5{stroke:#e8447e;}.cls-6{fill:#fff343;}.cls-7{stroke:#fff;}</style></defs><title>工作區域 9 複本</title><rect class="cls-1" x="0.64" y="-0.47" width="787.69" height="622"/><rect class="cls-2" width="788.96" height="621.06"/><polygon class="cls-3" points="-0.56 598.52 305.6 377.36 544.35 606.77 526.95 621.5 -0.56 621.5 -0.56 598.52"/><polygon class="cls-3" points="644.32 621.55 789.53 494.74 789.53 621.55 644.32 621.55"/><polygon class="cls-3" points="469.32 -0.48 597.18 96.06 732.22 0.48 469.32 -0.48"/><polygon class="cls-3" points="51.05 0.48 184.42 0.48 107.54 48.52 51.05 0.48"/><polygon class="cls-3" points="-0.56 126.36 -0.56 38.94 55.65 89.65 -0.56 126.36"/><polygon class="cls-3" points="0.56 445.06 44.31 492.8 0.56 524.83 0.56 445.06"/><polygon class="cls-3" points="98.84 436.1 0.56 330.5 0.56 164.54 261.61 0.48 410.31 0.48 552.56 115.53 98.84 436.1"/><polygon class="cls-3" points="604.6 543.83 363.23 323.65 769.3 27.44 788.25 40.31 788.25 393.21 604.6 543.83"/><polygon class="cls-4" points="18.47 584.65 309.88 374.14 537.13 592.5 520.57 606.52 18.47 606.52 18.47 584.65"/><polygon class="cls-4" points="632.28 606.57 770.5 485.87 770.5 606.57 632.28 606.57"/><polygon class="cls-4" points="465.71 14.5 587.41 106.39 715.95 15.42 465.71 14.5"/><polygon class="cls-4" points="67.59 15.42 194.54 15.42 121.36 61.15 67.59 15.42"/><polygon class="cls-4" points="18.47 135.23 18.47 52.02 71.97 100.29 18.47 135.23"/><polygon class="cls-4" points="19.54 438.58 61.18 484.02 19.54 514.5 19.54 438.58"/><polygon class="cls-5" points="113.08 430.05 19.54 329.54 19.54 171.57 268.01 15.42 409.55 15.42 544.95 124.92 113.08 430.05"/><polygon class="cls-4" points="594.48 532.59 364.73 323.02 751.24 41.08 769.28 53.33 769.28 389.23 594.48 532.59"/><g id="组_31" data-name="组 31"><path id="路径_34" data-name="路径 34" class="cls-6" d="M377.3,138.34s31.11,0,9.61-28.53c0,0-71.71-80.93-124.67-19.9-7.53,8.68-10.2,23.54-9.65,34.5.85,17,10.52,32,22.49,43.55,6.3,6.07,13.43,11.46,21.57,14.67,19.83,7.81,44.22,0,48.84-22.24C345.49,160.39,345.91,141.86,377.3,138.34Z"/></g><g id="组_31-2" data-name="组 31"><path id="路径_34-2" data-name="路径 34" class="cls-2" d="M314.4,604c2.73-5.51,10.47-14.33,32.07-15,0,0,31,2.62,11.93-27.64,0,0-64.78-86.57-122.6-30.13-8.21,8-12.11,22.62-12.47,33.58-.46,14.17,5.56,28.16,13.83,39.43"/></g><g id="组_31-3" data-name="组 31"><path id="路径_34-3" data-name="路径 34" class="cls-2" d="M768.37,146.89c-24.91-13.57-57.34-20-84.75,11.58C676.09,167.14,673.41,182,674,193c.85,17,10.53,32,22.49,43.55,6.3,6.08,13.43,11.47,21.57,14.68,19.84,7.81,45.17-.5,49.78-22.77"/></g><path class="cls-7" d="M158.1,149.51c.15,3.37-1.34,6.61-4.45,9.78l-3.39-3.24A9.36,9.36,0,0,0,153.1,149c-.16-2.59-1.56-5.12-4.16-7.61a15.62,15.62,0,0,0-11.47-4.51c-4.43,0-8.75,1.63-13.06,4.77s-6.63,6.35-7.25,9.86c-.64,3.73.94,7.44,4.77,11.12a25.69,25.69,0,0,0,5.37,3.88,23.72,23.72,0,0,0,5.59,2.19l8.52-6.2-9.24-8.84,3.33-2.42,12.58,12.05-13.67,9.94a26.71,26.71,0,0,1-8.21-2.73,34.51,34.51,0,0,1-8-5.74c-4.66-4.46-6.61-9.16-5.79-14.06.74-4.58,3.62-8.68,8.58-12.29a26.91,26.91,0,0,1,15.82-5.53,20.92,20.92,0,0,1,15.52,6C156,142.4,158,145.92,158.1,149.51Z"/><path class="cls-7" d="M172.74,174.88,169,177.6a14.1,14.1,0,0,0-2.66-3.41,8.47,8.47,0,0,0-6.65-2.19,12.81,12.81,0,0,0-7.45,2.57L139.4,183.9l-3.26-3.12,24.21-17.6,3.26,3.12-4.22,3.06a14,14,0,0,1,5.56-.28,10.34,10.34,0,0,1,7.79,5.8Z"/><path class="cls-7" d="M189.4,194.46c-.36,2.34-1.9,4.58-4.71,6.62l-15.54,11.3-3.1-3,4.08-3a18,18,0,0,1-6.5-.77,17,17,0,0,1-6.82-4c-2.14-2.05-3.22-4.11-3.29-6.22a6.33,6.33,0,0,1,2.89-5.44,10.39,10.39,0,0,1,9.16-1.73c3.05.71,6.22,2.57,9.49,5.62l5.21,4.83,1.26-.92c4.08-3,4.23-6.21.52-9.76a10.63,10.63,0,0,0-4.91-2.89,8.27,8.27,0,0,0-5.61.46l-3-3.32a12.85,12.85,0,0,1,9-1,17.63,17.63,0,0,1,7.84,4.66C188.4,188.93,189.74,191.71,189.4,194.46Zm-16.94,1.69c-4.89-4.52-9.06-5.51-12.57-3a3.44,3.44,0,0,0-1.57,3.15,6.3,6.3,0,0,0,2.14,3.87,13.24,13.24,0,0,0,7.62,3.5,9.83,9.83,0,0,0,7.32-1.43l2.06-1.5Z"/><path class="cls-7" d="M212.7,218.74c-.74,3.24-2.86,6.18-6.51,8.83a20.7,20.7,0,0,1-11.25,4.15,14.35,14.35,0,0,1-11-4q-4.58-4.4-2-10.43l-13.68,9.94L165,224l33.48-24.35,3.1,3-4,2.9A12.88,12.88,0,0,1,209.32,209C212.38,211.88,213.54,215.13,212.7,218.74ZM198,208.11a16.08,16.08,0,0,0-8.26,3.3l-.47.34c-2.81,2-4.48,4.23-5,6.67a6.36,6.36,0,0,0,2.08,6.34,10.36,10.36,0,0,0,8,3,16.51,16.51,0,0,0,8.49-3.47c2.86-2.07,4.62-4.26,5.31-6.43.77-2.57,0-4.91-2.29-7.09A9.61,9.61,0,0,0,198,208.11Z"/><path class="cls-7" d="M235.84,218.81,222,228.89a13.67,13.67,0,0,1,6.48.29,12,12,0,0,1,5,2.89c2.48,2.37,3.62,4.81,3.25,7.3s-2,4.82-5.13,7.07l-15.27,11.1-3.3-3.16,14.7-10.69c2.25-1.64,3.49-3.37,3.8-5.12s-.53-3.58-2.3-5.28a8.47,8.47,0,0,0-6.33-2.28,12.49,12.49,0,0,0-7.32,2.54l-13.81,10-3.31-3.17,34.1-24.79Z"/><path class="cls-7" d="M250,249l-24.21,17.61-3.3-3.16,24.21-17.61Zm8.46-5.94a2.51,2.51,0,0,1-1.22,2.14,4.11,4.11,0,0,1-2.76.76,4.17,4.17,0,0,1-2.57-1.12,3,3,0,0,1-1-2.28,2.86,2.86,0,0,1,1.31-2.14,3.6,3.6,0,0,1,2.67-.76,3.9,3.9,0,0,1,2.57,1.12A2.75,2.75,0,0,1,258.43,243Z"/><path class="cls-7" d="M270.27,270.86c.2,2.63-1,5.18-3.6,7.68l-3.25-3.12a6.66,6.66,0,0,0,2.23-5,7.86,7.86,0,0,0-2.77-4.94,9.83,9.83,0,0,0-7.58-2.75,16.38,16.38,0,0,0-8.75,3.44c-3,2.15-4.76,4.36-5.29,6.7s.19,4.52,2.33,6.57c3.63,3.48,7.85,4,12.51,1.4l3.3,3.16a17.84,17.84,0,0,1-10.25,2.1,15.25,15.25,0,0,1-8.69-4.38c-3.22-3.08-4.48-6.34-3.82-9.81.6-3.28,2.78-6.25,6.48-8.94a20,20,0,0,1,11.55-4.16A15.15,15.15,0,0,1,266,263.24C268.66,265.77,270.06,268.3,270.27,270.86Z"/><path class="cls-7" d="M125.54,207.88,91.45,232.67l-3.1-3,4-2.9a12.82,12.82,0,0,1-11.73-3.42c-3.14-3-4.26-6.29-3.46-9.79.73-3.24,2.94-6.17,6.59-8.82a20.17,20.17,0,0,1,11.2-4.12,14.09,14.09,0,0,1,11,4c3.05,2.93,3.72,6.4,2,10.47l14.33-10.42Zm-30.06-3.3A15.92,15.92,0,0,0,87.12,208c-2.91,2.12-4.71,4.26-5.36,6.47-.72,2.47,0,4.84,2.34,7.06a9.77,9.77,0,0,0,7.8,2.73,16.24,16.24,0,0,0,8.18-3.3l.46-.34c2.81-2,4.49-4.3,5.07-6.67a6.32,6.32,0,0,0-2-6.37A10.08,10.08,0,0,0,95.48,204.58Z"/><path class="cls-7" d="M134,238.19c-.77,3.2-3.27,6.41-7.4,9.55L109.8,231.63c-2.55,2.13-4,4.26-4.38,6.45s.52,4.28,2.54,6.22a10.59,10.59,0,0,0,5.75,3,13.26,13.26,0,0,0,5.94-.71l3.3,3.16a17,17,0,0,1-8.6,1.39,16.16,16.16,0,0,1-9.53-4.54c-3-2.92-4.36-6.15-3.92-9.52.44-3.52,2.62-6.63,6.56-9.49a19.35,19.35,0,0,1,11.62-3.94,15,15,0,0,1,11.14,4.27C133.64,231.18,134.93,234.62,134,238.19Zm-13.56-10.78a14.09,14.09,0,0,0-7.69,2.18l13.33,12.76c4.78-4.17,5.09-8.22,1-12.09A9.88,9.88,0,0,0,120.48,227.41Z"/><path class="cls-7" d="M153.09,262.5l-3.22-3.08a5.14,5.14,0,0,0,1.63-4c-.16-1.41-1.1-2.95-2.8-4.57a9.31,9.31,0,0,0-4.4-2.63,4.31,4.31,0,0,0-3.89.53c-1,.75-1.34,1.95-.8,3.65a37.25,37.25,0,0,0,2.82,5.38,22.87,22.87,0,0,1,3.24,6.89,5.65,5.65,0,0,1-2.41,6.06c-5,3.61-10.5,2.56-16.53-3.2q-8.42-8.07-.77-14.87l3.21,3.08c-1.67,1.64-2.41,3.22-2.34,4.7s1.14,3,3,4.73c3.79,3.63,7.14,4.47,9.85,2.49,1.36-1,1.69-2.41,1.12-4.22a37.92,37.92,0,0,0-3-5.47c-1.82-2.92-2.89-5.13-3.13-6.62a5.2,5.2,0,0,1,2.3-5.77,8.45,8.45,0,0,1,7.26-1.25,15.62,15.62,0,0,1,7.68,4.28C157.17,253.7,157.57,258.27,153.09,262.5Z"/><path class="cls-7" d="M168.89,266l-24.21,17.6-3.3-3.16,24.21-17.6Zm8.46-5.94a2.51,2.51,0,0,1-1.23,2.14,4.08,4.08,0,0,1-2.75.75,4.17,4.17,0,0,1-2.57-1.12,2.94,2.94,0,0,1-1-2.28,2.85,2.85,0,0,1,1.31-2.13,3.55,3.55,0,0,1,2.67-.76,3.86,3.86,0,0,1,2.57,1.12A2.73,2.73,0,0,1,177.35,260.09Z"/><path class="cls-7" d="M186.88,290.27l4.17-3,3.3,3.16-22.53,16.38c-7.72,5.62-14.87,5.33-21.35-.88-2.89-2.76-4.46-5.37-4.63-7.75s.8-4.75,3-7l3.3,3.16a5.23,5.23,0,0,0-1.79,4.36c.15,1.48,1.18,3.17,3.11,5,4.3,4.11,9.16,4.19,14.5.31l4.26-3.1c-4.8.84-8.83-.26-12.05-3.34-3-2.84-4.15-5.94-3.59-9.27s2.54-6.16,6.06-8.72a18.54,18.54,0,0,1,11.22-3.85,14.43,14.43,0,0,1,10.61,4.17C187.74,283,188.54,286.42,186.88,290.27Zm-12.57-10.53a14.54,14.54,0,0,0-8.24,3.07c-2.53,1.84-4.14,3.85-4.7,6-.63,2.4.13,4.7,2.44,6.92a10.29,10.29,0,0,0,7.56,3,14.53,14.53,0,0,0,8.15-3c2.72-2,4.34-4.13,4.78-6.39.54-2.48-.27-4.67-2.37-6.69A9.84,9.84,0,0,0,174.31,279.74Z"/><path class="cls-7" d="M208.09,319.26,193.2,330.09l-3.3-3.16,14.61-10.62c4.73-3.44,5.18-7,1.46-10.52a8.65,8.65,0,0,0-5.66-2.34,11.6,11.6,0,0,0-7.14,2l-14.62,10.63-3.3-3.16,24.22-17.61,3.3,3.16-3.56,2.59a13.31,13.31,0,0,1,5.93.48,12,12,0,0,1,5,2.85C215.39,309.44,214.74,314.43,208.09,319.26Z"/><path class="cls-2" d="M668.38,381.1,555.31,277.64a14.18,14.18,0,0,1,.37-21.25l8.08-6.89a14.18,14.18,0,0,1,18.49.08L697.92,349.86a14.19,14.19,0,0,1,.43,21L687.67,381A14.17,14.17,0,0,1,668.38,381.1Z"/><path class="cls-2" d="M612.29,434.83,499.22,331.37a14.18,14.18,0,0,1,.38-21.25l8.07-6.89a14.18,14.18,0,0,1,18.49.08L641.83,403.59a14.18,14.18,0,0,1,.44,21l-10.68,10.06A14.19,14.19,0,0,1,612.29,434.83Z"/></svg>