<?xml version="1.0" encoding="utf-8"?>
<!-- Generator: Adobe Illustrator 23.1.1, SVG Export Plug-In . SVG Version: 6.00 Build 0)  -->
<svg version="1.1" id="组_7" xmlns="http://www.w3.org/2000/svg" xmlns:xlink="http://www.w3.org/1999/xlink" x="0px" y="0px"
	 viewBox="0 0 222 222" style="enable-background:new 0 0 222 222;" xml:space="preserve">
<style type="text/css">
	.st0{fill:#34373D;stroke:#34373D;}
	.st1{fill:none;}
	.st2{fill:none;stroke:#34373D;stroke-width:3;}
</style>
<g id="组_4" transform="translate(33.834 31.325)">
	<path id="路径_4" class="st0" d="M77.7,2.5c2.4,1.2,3.3,3.2,3.2,5.9c-0.2,4.7,0,9.3-0.1,14c0,2.1-1.6,3.9-3.8,4.1
		c-2.1,0.3-4.1-1-4.7-3.1c-0.1-0.6-0.2-1.3-0.2-2c0-4.4,0.1-8.7-0.1-13.1c-0.1-2.7,0.7-4.7,3.2-5.9L77.7,2.5z"/>
	<path id="路径_5" class="st0" d="M76.4,129.7c-3.7,0-7.4,0-11.1,0c-4.3,0-6.5-1.9-7.3-6.3c-1.2-6.8-4.4-13.1-9.1-18.1
		c-7.4-7.6-11.5-17.9-11.1-28.5C38.1,59.1,51.5,43.2,68.9,40c21.3-3.9,41.1,9,45.5,30.2c2.7,12.7-0.5,24.2-9.3,33.9
		c-5.3,5.9-9,12.3-10.3,20.2c-0.5,3.4-3.1,5.4-6.6,5.4C84.2,129.7,80.3,129.7,76.4,129.7z M75.8,50.2c-7.7,0.2-14.9,3.6-20.1,9.3
		c-4.6,5.1-7.2,11.7-7.2,18.6c0,2.4,1.9,4.4,4.2,4.4c2.3,0,4.2-1.7,4.4-3.9c0.1-0.6,0.1-1.1,0.1-1.7C58,67,66,59.3,75.8,59
		c0.9,0,1.7-0.2,2.5-0.5c1.8-0.8,2.8-2.9,2.4-4.8C80.3,51.4,78.4,50.1,75.8,50.2z"/>
	<path id="路径_6" class="st0" d="M76.5,135.5c4.3,0,8.6,0,12.9,0c3.2,0,4.9,1.7,5,4.9c0,1.4,0,2.9,0,4.3c0,3.1-2.1,5.9-5.1,6.7
		c-0.7,0.2-1.3,0.8-1.4,1.5c-0.2,1.1-0.6,2.2-0.9,3.2c-0.6,2.1-2.5,3.5-4.7,3.5c-3.8,0.1-7.7,0.1-11.5,0c-2.2,0-4.1-1.4-4.7-3.5
		c-0.2-0.4-0.3-0.9-0.4-1.3c-0.3-1.9-1-3.3-3.1-4.1c-2.4-0.8-3.7-3.1-3.8-5.7c-0.1-1.8-0.1-3.6,0-5.4c0-2.4,1.9-4.3,4.2-4.3
		c0.1,0,0.3,0,0.4,0C67.6,135.5,72.1,135.5,76.5,135.5z"/>
	<path id="路径_7" class="st0" d="M13.1,82.4c-2.5,0-4.9,0-7.4,0c-2.4,0.2-4.5-1.7-4.7-4.1c0,0,0-0.1,0-0.1
		c-0.1-2.4,1.8-4.4,4.2-4.5c0.1,0,0.2,0,0.3,0c5.1-0.1,10.1-0.1,15.2,0c2.4,0,4.3,1.8,4.4,4.2c0,0.1,0,0.1,0,0.2
		c0,2.4-2,4.4-4.5,4.3c0,0-0.1,0-0.1,0c-0.1,0-0.1,0-0.2,0L13.1,82.4z"/>
	<path id="路径_8" class="st0" d="M140,82.4c-2.5,0-4.9,0-7.4,0c-2.4,0.1-4.5-1.7-4.6-4.1c0-0.1,0-0.1,0-0.2
		c-0.1-2.4,1.8-4.4,4.2-4.4c0.1,0,0.2,0,0.3,0c5-0.1,10-0.1,15,0c2.4-0.1,4.4,1.8,4.5,4.2c0,0.1,0,0.1,0,0.2
		c-0.1,2.4-2.1,4.4-4.5,4.3c0,0-0.1,0-0.1,0C144.9,82.4,142.4,82.4,140,82.4z"/>
	<path id="路径_9" class="st0" d="M26.8,132.7c-2.3-0.1-3.6-0.8-4.4-2.3c-0.8-1.3-0.8-3,0.1-4.4c0.3-0.4,0.6-0.8,1-1.2
		c3.4-3.4,6.8-6.8,10.2-10.2c2-2,4.6-2.1,6.4-0.3c1.9,1.8,1.8,4.4-0.3,6.5c-3.4,3.5-6.8,6.9-10.3,10.3
		C28.6,131.8,27.8,132.3,26.8,132.7z"/>
	<path id="路径_10" class="st0" d="M126.2,23.3c2.5,0.1,3.8,1,4.5,2.6c0.8,1.6,0.4,3.6-0.9,4.8c-2.1,2.2-4.3,4.4-6.5,6.5
		c-1.4,1.4-2.8,2.8-4.2,4.2c-1.7,1.7-4.5,1.8-6.2,0.2c-1.7-1.6-1.8-4.3-0.2-6c0.1-0.1,0.2-0.2,0.3-0.3c3.5-3.6,7-7.1,10.7-10.6
		C124.4,24.1,125.3,23.7,126.2,23.3z"/>
	<path id="路径_11" class="st0" d="M126.6,132.9c-1.1-0.4-2.1-1-3-1.7c-3.6-3.4-7.1-7-10.5-10.5c-1.9-2-2-4.5-0.2-6.3
		c1.7-1.7,4.4-1.8,6.1-0.2c0.1,0.1,0.2,0.2,0.3,0.3c3.5,3.5,7,7,10.5,10.5c1.4,1.2,1.8,3.2,1,4.9
		C129.9,131.7,128.4,132.8,126.6,132.9z"/>
	<path id="路径_12" class="st0" d="M36.9,43.1c-1.1-0.4-2.1-1-3-1.6c-3.6-3.5-7.2-7-10.7-10.6c-1.8-1.6-1.9-4.4-0.2-6.2
		c1.6-1.8,4.4-1.9,6.2-0.2c0.1,0.1,0.1,0.1,0.2,0.2c3.6,3.5,7.2,7.1,10.7,10.7c1.3,1.2,1.7,3.2,1,4.8C40.3,41.9,38.7,43,36.9,43.1z"
		/>
</g>
<g id="椭圆_9">
	<ellipse class="st1" cx="111" cy="111" rx="110" ry="108.5"/>
	<ellipse class="st2" cx="111" cy="111" rx="108.5" ry="107"/>
</g>
</svg>
