<?xml version="1.0" encoding="utf-8"?>
<!-- Generator: Adobe Illustrator 23.1.1, SVG Export Plug-In . SVG Version: 6.00 Build 0)  -->
<svg version="1.1" id="圖層_1" xmlns="http://www.w3.org/2000/svg" xmlns:xlink="http://www.w3.org/1999/xlink" x="0px" y="0px"
	 viewBox="0 0 662 549" style="enable-background:new 0 0 662 549;" xml:space="preserve">
<style type="text/css">
	.st0{fill:#999999;stroke:#999999;stroke-miterlimit:10;}
	.st1{fill:none;stroke:#34373D;stroke-width:2;stroke-miterlimit:10;}
</style>
<g id="组_29" transform="translate(-129.352 -4105.355)">
	<path id="路径_34" class="st0" d="M662.3,4301.7c0,0,113.2-69.1-28.6-125.1c0,0-441-134.6-497.7,205.3
		c-8,48.3,15.3,108.3,41.7,146.9c41,59.9,109.6,93,178.8,108.3c36.5,8.1,74.4,11.8,111.1,5.3c89.5-15.8,160.9-98.4,128.1-189.6
		C595.8,4452.7,556,4384.4,662.3,4301.7z"/>
	<path id="路径_52" class="st1" d="M744.1,4266c0,0,113.2-69.1-28.6-125.1c0,0-441-134.6-497.7,205.3
		c-8,48.3,15.3,108.3,41.7,146.9c41,59.9,109.6,93,178.8,108.3c36.5,8.1,74.4,11.8,111.1,5.3c89.5-15.8,160.9-98.4,128.1-189.6
		C677.6,4417,637.8,4348.7,744.1,4266z"/>
</g>
</svg>
