<?xml version="1.0" encoding="utf-8"?>
<!-- Generator: Adobe Illustrator 23.1.1, SVG Export Plug-In . SVG Version: 6.00 Build 0)  -->
<svg version="1.1" id="圖層_1" xmlns="http://www.w3.org/2000/svg" xmlns:xlink="http://www.w3.org/1999/xlink" x="0px" y="0px"
	 viewBox="0 0 1276.8 707.5" style="enable-background:new 0 0 1276.8 707.5;" xml:space="preserve">
<style type="text/css">
	.st0{fill:#999999;stroke:#999999;stroke-miterlimit:10;}
	.st1{fill:none;stroke:#34373D;stroke-width:2;stroke-miterlimit:10;}
	.st2{fill:#999999;}
	.st3{fill:#34373D;}
	.st4{fill:#34373D;stroke:#34373D;stroke-miterlimit:10;}
	.st5{fill:#DBD9D7;}
	.st6{fill:#FFC72C;}
	.st7{fill:#FFFFFF;}
</style>
<g id="组_99" transform="translate(-346.915 -1533.449)">
	<g id="组_80" transform="translate(1242.44 -2541.415) rotate(14)">
		<path id="路径_34" class="st0" d="M434.1,4249.4c0,0,58.6-35.8-14.8-64.8c0,0-228.4-69.7-257.7,106.4
			c-4.2,25,7.9,56.1,21.6,76.1c21.2,31,56.8,48.2,92.6,56.1c18.9,4.2,38.5,6.1,57.5,2.8c46.4-8.2,83.3-51,66.3-98.3
			C399.7,4327.6,379.1,4292.2,434.1,4249.4z"/>
		<path id="路径_52" class="st1" d="M474.6,4231.7c0,0,58.6-35.8-14.8-64.8c0,0-228.4-69.7-257.7,106.4
			c-4.2,25,7.9,56.1,21.6,76.1c21.2,31,56.8,48.2,92.6,56.1c18.9,4.2,38.5,6.1,57.5,2.8c46.4-8.2,83.3-51,66.3-98.3
			C440.1,4310,419.6,4274.6,474.6,4231.7z"/>
	</g>
	<g id="组_51" transform="translate(1439.554 1775.057) rotate(-14)">
		<path id="路径_73" class="st2" d="M87.7,67c0.1-0.1,0.2-0.2,0.3-0.2c3-2.7-0.8-7.9-4.4-6.5C74.2,64,64.5,74,65.8,84.8
			c0.3,2.7,2.3,4.2,4.9,4.3c6.6,0.4,13.8,4,18.4-2.9C92.7,80.8,90.6,72.8,87.7,67z"/>
		<g id="组_50" transform="translate(0 0)">
			<path id="路径_74" class="st3" d="M128.7,29.4c-8.4-21.6-33-33.7-54.9-27.9c-22.3,5.9-37,29.9-33.7,52.9
				c4.1,28.1,33.8,42.5,59.9,35.9C126.4,83.5,138.1,53.7,128.7,29.4z M98.6,84.7c-23,6-49.1-6.5-53.4-31.1c-3.3-18.6,6-38.1,22.6-45
				c20.6-8.5,45.3-0.6,54.9,21.2C132.1,51.3,122.2,78.6,98.6,84.7z"/>
			<path id="路径_75" class="st3" d="M72,42.2c-19-13.3-46.2-9.6-61.1,7.3C-4.4,66.8-3.3,95,12.3,112.2
				c19,21.1,51.8,16.5,69.7-3.6C100.1,88.5,93.3,57.1,72,42.2z M77.8,104.9c-15.8,17.8-44.4,21.9-61.7,3.9C3,95.2-0.2,73.8,9.8,58.9
				c12.4-18.5,37.3-25.8,57.4-12.9C87,58.5,94,86.7,77.8,104.9L77.8,104.9z"/>
			<path id="路径_76" class="st3" d="M140.3,65c-16.2-16.5-43.7-17.8-61.4-3.9c-18.1,14.3-22.1,42.1-9.9,61.9
				c14.9,24.2,47.9,25.6,69.2,9.2C159.6,115.6,158.6,83.5,140.3,65z M134.6,127.8c-18.8,14.7-47.7,13.5-61.4-7.4
				c-10.4-15.8-9.6-37.4,2.9-50.3c15.5-15.9,41.3-18.6,58.8-2.3C152.1,83.8,153.9,112.7,134.6,127.8z"/>
		</g>
	</g>
	<g id="组_63" transform="translate(877.108 1551.262)">
		<path id="路径_77" class="st2" d="M114.4,114.5c-6.5-6.9-13.6-13.2-20.5-19.7c-12.6-11.7-25-23.4-36.4-36.2
			c-3.3,3.3-6.5,6.8-9.4,10.5c-5.4,6.6-11.1,12.5-17,18.7c-2.8,2.9,1.3,7,4.5,5.1c0.2-0.1,0.4-0.2,0.5-0.4c8.2,8,16,16.4,24.9,23.7
			c9.8,7.9,19.4,15.5,27.4,25.4c1.4,2,4.2,2.5,6.2,1c0.3-0.2,0.5-0.4,0.7-0.6c5-4.9,8.5-10.9,13.5-15.8c2.8-2.8,5.9-5.4,8.8-8.1
			C116.6,116.9,115.5,115.7,114.4,114.5z"/>
		<path id="路径_78" class="st2" d="M142,47.5c-2.3-10.4-4.1-21.5-7.1-31.6c-0.1-0.4-0.3-0.9-0.4-1.3
			c-26.8,6.8-54.2,12.7-81.3,17.7c0.6,0.6,1.3,0.9,2.1,1c0.1,0.1,0.2,0.2,0.3,0.2c0.7-1.1,2.1-1.6,3.3-1c14.4,5.4,29.7,7.3,44.5,11
			c13,3.2,25.7,7.6,38.6,11.1c-0.1-1.1-0.4-2.2-1-3.2C141.9,50.5,142.3,49,142,47.5z"/>
		<path id="路径_79" class="st2" d="M104.5,56.2c-7.6-2-15.1-4-22.5-6.3s-14.8-5.7-22.4-7.4c0,1,0.4,2,1,2.8
			c0.5,0.6,1.2,1.1,2,1.3c0,0.6,0.2,1.1,0.5,1.7c0.6,1.2,1.4,2.3,2.2,3.3c4.7,4.6,10.5,7.7,15.6,12c6.3,5.3,11.9,11.5,17.5,17.4
			c8.7,9.2,18.8,17.4,27,27.1c0-0.8-0.2-1.5-0.7-2.2c-1.9-2.5-3.9-4.9-6-7.2c6.7,4.5,13.6,6.5,15.6-4.5c1.7-9.2,3.6-18.4,5.7-27.6
			C127.9,64.5,115.6,59.1,104.5,56.2z"/>
		<g id="组_62">
			<path id="路径_80" class="st3" d="M128.1,107.4c-13.8-15.5-29.8-28.9-44.5-43.5c-12.6-12.4-25.3-25.1-39.3-36
				c-4.1-3.2-9.3-7.8-14.8-7.7c-4.9,0-9,3.7-12.4,6.9c-3.7,3.6-7.1,7.5-10.2,11.6c-3,3.8-5.8,8.2-6.6,13C-1.3,60.1,7,67.4,11.9,73.1
				c13.7,15.8,29.8,28.6,44.7,43.1c12,11.7,23.9,23.8,37.2,34.1c4.3,3.3,10,8.4,15.9,7.7c5.4-0.7,9.3-4.5,13.1-8
				c6.1-5.7,14.1-12,16.4-20.4C141.6,120.7,133.4,113.3,128.1,107.4z M130.8,135.8c-3.4,4.9-7.8,8.6-12.4,12.4
				c-5.4,4.3-11.2,5.8-17.6,2.3c-5.2-2.9-10-8-14.4-12.1c-9.7-8.9-19.1-18.2-28.6-27.3c-10.4-10-21.8-18.9-31.9-29.3
				C19.5,75.1,8.9,66.4,5.4,57.7C2.8,51.4,6.9,45,10.5,40.1c3.4-4.5,7.4-8.5,11.9-11.8c4.9-3.5,10.1-3.9,15.2-0.3
				c5,3.7,9.7,7.6,14.2,11.8c10,9,19.6,18.4,29.2,27.9c9.9,9.7,20.3,19,30.2,28.7c6.8,6.4,13.2,13.3,19.2,20.5c4,5,5.3,11,1.9,16.7
				C131.8,134.3,131.3,135.1,130.8,135.8L130.8,135.8z"/>
			<path id="路径_81" class="st3" d="M34.3,45.7c-1.5-0.6-3.2-0.7-4.8-0.3c-1.7,0.5-3,1.9-3.4,3.7c-0.5,1.5-0.4,3.1,0.4,4.4
				c1.7,2.6,5.1,3.4,7.8,1.7c0.3-0.2,0.6-0.5,0.9-0.7C37.5,52.2,37.9,47.1,34.3,45.7z M33.3,53.3c-1.1,0.9-2.6,1-3.8,0.4
				c-1.2-0.6-1.9-1.8-1.8-3.1c0-0.9,0.5-1.8,1.2-2.4c1.1-0.8,2.5-1,3.8-0.7c1.3,0.1,2.3,1.2,2.2,2.5c0,0,0,0.1,0,0.1
				C34.8,51.3,34.2,52.5,33.3,53.3L33.3,53.3z"/>
			<path id="路径_82" class="st4" d="M31,87.8c11.8-12.6,23.6-25.3,35.4-37.9"/>
			<path id="路径_83" class="st4" d="M45.5,102.8C57.3,90.2,69,77.6,80.8,64.9"/>
			<path id="路径_84" class="st4" d="M61.5,117.2C73.3,104.6,85,91.9,96.8,79.3"/>
			<path id="路径_85" class="st4" d="M75,130.4c11.8-12.6,23.6-25.3,35.4-37.9"/>
			<path id="路径_86" class="st4" d="M90.3,145.4l35.4-37.9"/>
			<path id="路径_87" class="st3" d="M164.5,64.1c-2.4-8.8-13.2-11-20.8-13.5c-19.8-6.4-40.3-9.9-60.5-14.9
				c-13.9-3.5-27.8-7.1-41.9-9.5c2.2,1.6,4.2,3.5,6,5.7c11.9,2.6,23.8,5.5,35.7,8.4c13.5,3.4,27.1,6.1,40.6,9.4
				c9.1,2.1,18.1,4.7,26.9,8c6,2.3,10.1,6.8,10.1,13.4c0,0.9,0,1.8-0.1,2.6c-0.5,5.9-2.3,11.4-4.4,17c-2.5,6.5-6.7,10.7-14,10.9
				c-6,0.1-12.7-1.9-18.5-3.1c-2.2-0.5-4.4-1-6.6-1.5c1.7,1.9,3.3,3.8,5,5.6c4.6,0.9,9.3,1.7,14,2.3c5.4,0.7,12.9,2.2,17.6-1.4
				c4.3-3.3,5.8-8.6,7.2-13.5C163.1,82,166.8,72.5,164.5,64.1z"/>
			<g id="组_52" transform="translate(57.483 30.652)">
				<path id="路径_88" class="st3" d="M3.1,14.3L3.1,14.3c0.9-4,1.7-8,2.5-12C6.1,0,2.7-1,2.1,1.3c-0.7,3-1.4,6-2.1,9
					C1.2,11.5,2.2,12.8,3.1,14.3z"/>
			</g>
			<g id="组_53" transform="translate(75.261 36.236)">
				<path id="路径_89" class="st3" d="M1.1,21.4c0.7,0.9,1.4,1.7,2.1,2.6C5,16.8,6.6,9.5,8,2.3C8.4,0,5.1-1,4.5,1.3
					C2.9,7.8,1.4,14.3,0,20.9C0.4,20.9,0.8,21,1.1,21.4z"/>
			</g>
			<g id="组_54" transform="translate(93.574 40.499)">
				<path id="路径_90" class="st3" d="M2.7,37.3c3-11.6,5.8-23.3,8.1-35.1C11.2,0,7.8-1,7.2,1.3C4.5,12.3,2.1,23.5,0,34.8
					C1,35.5,1.9,36.4,2.7,37.3z"/>
			</g>
			<g id="组_55" transform="translate(110.042 45.021)">
				<path id="路径_91" class="st3" d="M2,47C6,32.2,9.7,17.2,12.6,2.3C13.1,0,9.7-1,9.1,1.3C5.5,15.8,2.5,30.5,0,45.3
					C0.7,45.8,1.3,46.4,2,47z"/>
			</g>
			<g id="组_56" transform="translate(129.682 50.186)">
				<path id="路径_92" class="st3" d="M1.6,52.6c4.7-16.5,8.9-33.4,12.2-50.3c0.4-2.3-2.9-3.3-3.5-1C6.1,18,2.8,35.2,0,52.2
					c-0.1,0.4,0.2,0.9,0.6,1C1,53.3,1.5,53,1.6,52.6L1.6,52.6z"/>
			</g>
			<path id="路径_93" class="st3" d="M164.8,29.4c-1.4-8.2-2.2-18.4-7.9-24.9c-6-6.8-16.7-4.1-24.6-3c-20.6,2.9-40.6,8.8-60.9,13
				c-14,2.9-28.1,5.8-41.9,9.8c2.7,0.5,5.4,1.3,7.9,2.5c11.9-2.9,23.8-5.5,35.8-8c13.6-2.9,27-6.4,40.6-9.3
				c9.1-2.1,18.4-3.7,27.7-4.6c6.4-0.5,12.1,1.7,15,7.7c0.4,0.8,0.7,1.6,1.1,2.4c2.2,5.5,2.9,11.3,3.4,17.2
				c0.6,6.9-1.3,12.6-7.8,15.9c-3.8,2-8.5,3.1-12.9,4.1c2.2,0.5,4.3,1.3,6.3,2.4c0.8-0.3,1.7-0.5,2.5-0.8c5.1-1.7,12.6-3.7,15.2-9
				C166.7,39.9,165.7,34.5,164.8,29.4z"/>
			<g id="组_57" transform="translate(48.466 19.424)">
				<path id="路径_94" class="st3" d="M6.6,13.3L6.6,13.3c-0.9-4-1.9-7.9-3-11.9C3-0.8-0.4-0.2,0,2.1c0.6,3,1.3,6,2,9
					C3.6,11.7,5.2,12.4,6.6,13.3z"/>
			</g>
			<g id="组_58" transform="translate(69.004 15.632)">
				<path id="路径_95" class="st3" d="M4.5,21.1c1.4,0.2,2.7,0.4,4.1,0.6C7,14.9,5.4,8.1,3.6,1.4C3-0.8-0.4-0.2,0,2.1
					C1.4,8.4,2.9,14.8,4.5,21.1z"/>
			</g>
			<g id="组_59" transform="translate(89.813 10.238)">
				<path id="路径_96" class="st3" d="M10.8,31.8C8.6,21.6,6.3,11.4,3.6,1.4C3-0.8-0.4-0.2,0,2.1c2,9.7,4.5,19.5,7,29.1
					C8.3,31.4,9.5,31.6,10.8,31.8z"/>
			</g>
			<g id="组_60" transform="translate(108.292 6.267)">
				<path id="路径_97" class="st3" d="M12.5,40.8C10,27.6,7.1,14.4,3.6,1.4C3-0.8-0.4-0.2,0,2.1c2.7,12.7,5.9,25.5,9.5,38
					C10.5,40.3,11.5,40.5,12.5,40.8z"/>
			</g>
			<g id="组_61" transform="translate(129.286 1.788)">
				<path id="路径_98" class="st3" d="M14.6,51.5C11.6,34.7,8,17.9,3.6,1.4C3-0.8-0.4-0.2,0,2.1c3.4,16.4,7.8,32.7,12.6,48.8
					C13.3,51.1,13.9,51.3,14.6,51.5z"/>
			</g>
		</g>
	</g>
	<g id="组_64" transform="matrix(0.883, -0.469, 0.469, 0.883, 408.814, 1993.132)">
		<path id="路径_99" class="st2" d="M134.1,61.9c-1.4,1.1-2.7,2.3-3.9,3.6c0.2-1.3,0.7-2.5,1.4-3.7c0.6-0.1,1.1-0.1,1.7-0.1
			c-3.4-1-6.7-1.8-10.2-2.4c-3.3,6.9-3.6,17.3-1.7,22.1c2.1,5.4,7.1,7.6,12.7,7.7c10.2,0,19.2-6.6,28.6-3.4c0.4,0.7,0.7,1.4,1.1,2.1
			c1.2,2.1,3.8,2,5.5,0.8c0.7,0,1.4-0.1,2.1-0.4C163.2,74.9,149.7,66.5,134.1,61.9z M134.8,80c-2.8-0.1-4.9-1.4-5.3-5.3
			c0.7,0.1,1.3,0.1,2-0.1c0,2.1,1.3,4,3.3,4.7C134.8,79.5,134.7,79.7,134.8,80z"/>
		<path id="路径_100" class="st3" d="M160.5,57.7c-8.6-7.5-22.5-9.2-32.8-4.2c-0.1-0.3-0.3-0.6-0.5-0.9c-2-2.8-6.5-4.2-9.6-5.4
			c-2-0.8-3.9-1.8-6.1-1.9c-1.2-0.2-2.5,0.1-3.5,0.9c-0.2,0.2-2.5,2.2-2.5,2.1C90.8,37,76.2,26.3,59.8,17.3
			c-12.8-7-26.4-12.2-40.6-15.4c-5-1.2-16.1-4.7-18.8,2.4c-3.9,10.4,21.9,22,28.1,25.4c21.4,11.7,46.4,24.4,70.3,29.8
			c-0.4,1.8,0,3.6,1.2,5.1c1.6,1.8,5.1,3.6,7.3,4.7c3.5,1.8,7.3,3,11.2,3.8c-1.5,7.5,3.8,14.4,11.4,16.8c6,1.9,10.7-0.3,16.5-1.5
			c6.2-1.4,12.7-0.7,18.5,1.9c1.3,0.6,2.7,1.3,4,1.9c1.3,0.6,2.6,1.3,3.7,2.2c0.7,0.7,2,0.5,2-0.7C174.7,80.5,170.8,66.6,160.5,57.7
			z M77.9,47.8c-11.1-4.1-21.9-9-32.6-14.2c-8.2-4-16.5-8.1-24.4-12.8c-2.5-1.5-5-3-7.4-4.7c-1.6-1.1-3.1-2.3-4.5-3.5
			C6.1,10,4.3,9.8,7.5,6.5c6.1-6.2,29.5,4.1,36.6,7.1c8.7,3.8,17,8.2,25.1,13.1c12,7.2,23.5,15.3,35.4,22.5
			c-1.8,1.6-3.3,3.6-4.4,5.8c-0.2,0.5-0.4,1-0.6,1.5C92.8,52.7,85.1,50.5,77.9,47.8z M104.5,63.4c-1.7-4.6,2.4-11.1,5.2-14.9
			c4.3,1,14.3,3.4,15,6.7c0.4,1.9-2.4,5.7-3.2,7.5c-1.1,2.4-2.1,4.8-3,7.3C114.1,69.3,106.1,67.6,104.5,63.4z M160,83.3
			c-12.8-2.4-38.8,11.5-38.6-10.9c0.6-1.6,1.5-3.1,2.2-4.8c3.5,2.4,7.2,4.1,10.9,6.2c3.3,1.9,6.3,4.4,10,5.8
			c0.5,0.2,0.8-0.5,0.5-0.8c-2.8-2.7-5.9-5-9.3-6.9c-3.7-2.1-7.8-3.6-11.5-5.8c0.2-0.6,0.4-1.1,0.6-1.7c13.3,0.6,22.9,6.3,34.4,12.2
			c0.2,0.1,0.5,0,0.7-0.2c0.1-0.2,0.1-0.4-0.1-0.6c-8.4-9.1-22.4-12.9-34.5-13.1c0.2-0.7,0.5-1.4,0.8-2.1c0.2-0.5,0.5-1,0.7-1.6
			c0.1,0.2,0.3,0.3,0.5,0.3c11,0.4,22.5,1.7,31.2,9.1c0.4,0.3,1.2,0,1-0.6c-3.7-10.5-23.7-9.9-32.2-9.7c0,0-0.1,0-0.1,0
			c0.5-1.1,0.8-2.2,0.8-3.4c12.9,0.2,24.8-0.5,33.6,10.9c5.2,6.7,6.1,14.4,8.3,21.9C167.1,85.4,163.6,83.9,160,83.3L160,83.3z"/>
	</g>
	<g id="组_66" transform="matrix(0.883, -0.469, 0.469, 0.883, 399.135, 2075.306)">
		<path id="路径_101" class="st5" d="M34,76.5c-4.7,3.3-6.9,8.4-8.4,13.9c2,3.3,4.9,6,8.5,7.5c7,3.2,20,1.8,21.3-7.4
			c1.1-0.2,2-1,2.4-2.1c1.5-3.1,1.9-6.5,1.3-9.9C54.4,71.8,39.4,72.7,34,76.5z"/>
		<path id="路径_102" class="st2" d="M70,113.8c-7.3-3.1-13.4,2-17.1,10.3c-2.6,5.8-3.8,12-3.6,18.3c5,3.6,11.3,4.6,17,1.2
			c5.6-3.3,9.3-9.7,10-16.1C76.7,122.3,74.3,116.5,70,113.8z"/>
		<path id="路径_103" class="st5" d="M123.8,125.3c-1.3-4.2-4.3-7.7-8.2-9.6c-1.3-1.5-3-2.6-4.9-3.2c-10.5,6.4-12.5,21-10.4,33.2
			c5.7,2.5,13.1,2.4,18.2-1.2C124.4,140.1,126,132,123.8,125.3z"/>
		<path id="路径_104" class="st2" d="M145.9,78c-0.3-0.4-0.5-0.8-0.8-1.1c-6.4-0.5-12.7,3.3-17,8.1c-5.7,6.5-7.3,14.1-2.3,21.2
			c0.3,0.2,0.6,0.4,0.9,0.5c6.2,3.2,13.5,2.9,18.8-1.8c5.2-4.6,7.9-12.7,5.7-19.5C150.2,82.6,148.4,80,145.9,78z"/>
		<g id="组_65" transform="translate(0 0)">
			<path id="路径_105" class="st3" d="M176.2,75.6c-2.6-14.7-10.2-33.9-27.8-34.1c-12.2-0.2-22.9,7.7-35.2,7.5
				c-16.6-0.2-16.4-17.2-19.4-29.2C91.9,12.5,87.9,5.4,80.8,2C72.4-2,62.2,0.6,54,4c-8.9,3.7-17.1,8.1-24.4,14.4
				C16.5,29.9,7.2,45.2,2.9,62.1c-1.8,7-2.8,14.1-2.9,21.3c-0.3,18.8,3,35.4,14.6,50.5c12.6,16.4,30,28.4,49.7,34.6
				c17.6,5.5,38.3,6.6,55.9,0.1c16.8-6.3,31.1-21.6,41.2-36C173.2,115.8,179.8,96.1,176.2,75.6z M169.3,107.3
				c-5.7,18.1-18.7,33.8-32.9,45.9c-14.6,12.5-32.3,16.6-51.3,14.9c-38.1-3.5-75.8-31.6-80-71.1C3,77.4,5.3,57,15.7,39.8
				c10-16.4,27.5-28.9,45.7-34.6c0.3-0.1,0.6-0.2,1-0.3C70,2.8,79.3,4,84.7,10.2c5,5.7,5.3,14.9,6.8,21.9c2,9.5,5.6,18.8,16,21.1
				c15.5,3.4,30.2-10.5,45-6.4C174.5,52.8,174.5,90.8,169.3,107.3L169.3,107.3z"/>
			<path id="路径_106" class="st3" d="M51.6,63.8c-5.7-2.2-11.9-2.5-17.7-0.9c-6.8,2-10.4,7-12.5,13.6c-1.9,5.3-1.4,11.2,1.4,16.2
				c6.6,11.2,22.7,12.6,31.8,3.7C63.3,87.7,64.9,68.8,51.6,63.8z M50.3,94.5c-5.2,4.2-12.3,5-18.3,2.1c-5.6-2.7-9.1-8.5-8.8-14.8
				c0.1-4,2.3-9.3,5.5-11.7c5.5-4,11.5-4.7,18.3-3.2c6.8,1.5,10.6,4.9,10.4,12.2C57.2,84.9,54.8,90.8,50.3,94.5z"/>
			<path id="路径_107" class="st3" d="M41.8,140c4.6,4,10.3,6.4,16.4,6.9c7.1,0.5,12.1-3,16.4-8.5c3.6-4.4,5.1-10.1,4.2-15.7
				c-2.4-12.8-17-19.6-28.6-14.3C38.9,113.6,31,130.8,41.8,140z M53.4,111.7c6.3-2.2,13.3-0.5,18,4.3c4.4,4.5,5.7,11.1,3.3,16.9
				c-1.5,3.7-5.3,8-9.1,9.1c-6.5,1.9-12.4,0.5-18.3-3.2c-5.9-3.7-8.3-8.2-5.6-15C43.7,118.3,48,113.6,53.4,111.7z"/>
			<path id="路径_108" class="st3" d="M127.3,133.8c0-6.1-1.8-12-5.3-16.9c-4.2-5.7-10.2-7.3-17.1-7c-5.7,0.1-11,2.6-14.6,7
				C82.1,127,86.4,142.6,98,148C109.1,153.1,127.3,148,127.3,133.8z M98.2,143.4c-5.7-3.4-9-9.8-8.4-16.4
				c0.5-6.2,4.8-11.5,10.7-13.4c3.8-1.3,9.5-1.1,12.9,1.1c5.7,3.7,8.4,9.2,9.4,16c1,6.9-0.9,11.7-7.8,14
				C109.5,146.4,103.1,146.3,98.2,143.4z"/>
			<path id="路径_109" class="st3" d="M142.5,70.4c-6-1-12.1-0.1-17.6,2.6c-6.3,3.3-8.8,8.9-9.6,15.8c-0.8,5.6,0.9,11.3,4.6,15.6
				c8.7,9.7,24.7,7.9,31.9-2.7C158.7,91.5,156.6,72.6,142.5,70.4z M147.3,100.7c-4.3,5.1-11.1,7.3-17.6,5.7
				c-6.1-1.5-10.6-6.5-11.6-12.7c-0.7-4,0.4-9.6,3.1-12.5c4.6-5,10.4-6.9,17.3-6.8c7,0.1,11.4,2.7,12.6,9.9
				C152.2,90,151,96.2,147.3,100.7L147.3,100.7z"/>
		</g>
	</g>
	<g id="组_68" transform="translate(715.08 1753.687) rotate(7)">
		<path id="路径_110" class="st2" d="M194.4,46.4c-0.2-11.4,0.2-30.8-14.3-30.2c-23.7,1-48.7,9.2-71.8,13.9
			c-1.7,0.3-3,1.8-3.1,3.5c-7,0.6-13.9,2.1-20.5,4.5c-1.2-2.1-3.7-3-5.9-2.1c-19.8,8-42,8.9-62.7,13.7c-1.6-5.2-10.6-3.5-9.6,2
			C8.5,62.5,8.1,73.4,11.4,84c1,3.3,5.7,5.2,8.6,2.9c9.9-8.2,24.6-6.5,36.6-8.2c2.4-0.2,4.4-2,4.9-4.3c1.6-11.1,10.4-18.3,20.1-23
			c-0.2,0.2-0.3,0.4-0.5,0.6c-9.8,6-16.9,13.6-20.1,26c-3.1,12.2-3.9,27.9,2.2,39.3c11.9,22.4,44,26.7,65.2,16
			c23.1-11.7,32.9-43.4,17.6-65.3c-9.9-14.1-31.8-24-50.1-21.8c5.2-1.4,10.5-2,15.9-1.9c11.6,0.3,16.5,4.7,24.2,12.3
			c8.9,8.7,16.5,6,28.1,4.6c10-1.2,21.1-1.1,28.8-8.4c1.2-1.1,1.7-2.9,1.2-4.5C194.3,47.7,194.4,47,194.4,46.4z M133.4,70
			c16.5,15.9,8.9,44-10.6,53.4c-15.5,7.5-40,5.4-49.3-11c-5-8.7-3.8-23.1-1.3-32.4c2.6-9.8,8.4-15.9,16.1-21.1
			C102.8,54.2,122.4,59.4,133.4,70z M161.3,49.3c-3.7,0.5-6,1.9-9.7,1.8c-2.6,0-4.1,0.3-5.5-0.6c0.3-2.2,0-4.5-0.8-6.7l-0.3-0.9
			c5.4-1.8,11.1-2.7,16.7-3.7c3.3-0.6,5.5-1.5,7.1,1.8c1.3,2.7-0.6,3.4,0.7,6.2C166.8,47.5,163.9,49,161.3,49.3z"/>
		<g id="组_67" transform="translate(0 0)">
			<path id="路径_111" class="st3" d="M214.2,141.1c-0.2-0.8-0.3-1.7-0.3-2.6c-0.3-5.1-0.4-10.1-0.7-15.2
				c-0.8-12.5-1.9-25.1-4.4-37.4c-4.7-23.4-9.7-47.6-15.6-70.7c-0.5-2.1-2.7-2.1-4.5-2.1c-12.4-0.1-24.2,2.7-36.4,4.6
				c-7.6,1.2-15.3,2.6-22.9,4c-2-2.6-5-4-8.5-4.7c-0.7-5.2-1.8-10.4-3.2-15.5c-0.3-1.1-1.4-1.7-2.5-1.4C98.6,3.2,81.4,5,65.2,9.6
				c-1.1,0.3-1.8,1.5-1.5,2.6c1.2,4.7,2.1,9.5,2.7,14.3c-3.3,1.7-6,4.3-7.7,7.5c-3.2,0.6-6.4,1.2-9.5,1.8C49,32,47,27.5,45.3,24.5
				c-3-5.5-8.3-4.4-13.7-3.4c-4.8,0.9-9.4,2.3-13.9,4.1c-2,0.8-4.5,1.5-5.8,3.4c-2.5,3.6,0,10.2,1.7,14.8C9.8,44.3,6,45.2,2.3,46.1
				c-0.6-0.3-1.3,0-1.6,0.6c-0.1,0.2-0.1,0.4-0.1,0.6c-1,1.5-0.7,3.5,0.6,4.6c2.5,18.3,1.6,37,5.2,55.3c4.7,23.4,9.7,47.6,15.6,70.7
				c0.8,3.3,7,2.4,9.4,2.3c10.7-0.7,20.9-3.1,31.4-4.8c14.2-2.3,28.3-5.1,42.5-7.4c18.3-3,36.6-6.1,54.9-9.5
				c7.7-1.5,15.4-3,23.1-4.6c7.8-1.7,15.8-2.4,23.6-4.1c1.8-0.3,3.6-0.9,5.1-1.8C214.9,146.1,214.6,143.7,214.2,141.1z M186.8,17.9
				c0.9,11.5,2.8,22.9,5.5,34.1c-10.8-1.1-23.9,2.8-33.7,4.4c-5.4,0.9-10.8,1.9-16.3,2.8c-0.6,0.1-5.5-5.2-6.4-5.8
				c-2.4-1.8-4.9-3.5-7.5-4.9c-5.3-2.9-11.2-4.8-17.2-5.6c-22.1-3-43.4,10.1-51.6,30.7c-16.5,3.2-33,6.6-49.1,10.6
				c-1-6.9-1.9-13.8-2.7-20.7c-0.5-3.8-0.7-7.8-1.8-11.3C41.3,49.8,76.1,39,110.7,33.2c12.5-2.1,25-4.8,37.4-7.3
				C160.8,23.3,174.4,21.7,186.8,17.9z M80.4,53.4c4.2-2.6,8.8-4.4,13.6-5.3c7.1-1.4,14.2-1.9,21.3,0.2c9.6,2.8,18.2,9.5,24.7,16.9
				c20.5,23.1,9.7,60.8-19,70.5c-25.4,8.6-54.6-5.5-60.3-32.5C56.7,84.1,64.4,63.4,80.4,53.4z M69.3,17.7c0.2-5.5-0.8-4,3.9-5.7
				c3.8-1.4,8.5-1.8,12.5-2.6c7.2-1.4,14.3-2.8,21.5-4c4.2-0.7,5.7-1.7,7.8,1.9c1.3,2.2,1.6,5.9,2,9.1c-10.1-0.7-22.8,2.8-29.3,4
				c-5.5,1-12.5,2.2-18.4,4.7C69.5,23,69.2,21,69.3,17.7L69.3,17.7z M85.3,24.6c8.8-1.6,28.9-8.1,38.3-1.8
				c-4.6,0.8-9.3,1.7-13.9,2.4c-15.8,2.6-31.9,5.3-47.9,8.2C67.4,27.4,78,25.9,85.3,24.6z M15.2,34.8c-0.1-4.7,1.8-5.1,5.9-6.5
				c2.7-0.9,5.3-1.8,8.1-2.5c6.2-1.6,11.5-2.6,14.2,4.2c0.9,2.2,1,4.6,1.5,6.8c-9.6,1.9-19.1,3.9-28.6,6.1
				C16.1,40.1,15.2,37.7,15.2,34.8z M104.5,160c-12.5,2.1-25,4.8-37.4,7.3c-12.6,2.6-26.2,4.2-38.7,7.9
				c-1.7-24.8-9.7-48.3-14.6-72.6c-0.8-3.9-1.4-7.7-2.1-11.6c15.1-1.2,30.1-3.4,44.8-6.6c-1.4,6.4-1.6,12.9-0.7,19.4
				c4.9,29.9,36.9,46,64.8,37.8c29.5-8.7,44.1-42.2,30.2-70.1c-1-1.9-2-3.8-3.2-5.6c2.3-0.5,4.6-0.9,6.9-1.4
				c12.7-2.6,26.3-4.2,38.8-8c2.7,11.3,5.7,22.5,8,33.9c2.6,12.9,4.2,26,5.8,39.1c0.5,3.8,0.7,7.8,1.8,11.3
				C173.9,143.4,139.1,154.2,104.5,160L104.5,160z"/>
			<path id="路径_112" class="st3" d="M117.8,129.1c21.5-6.9,31.6-31.3,22-51.7c-10.6-22.3-41.2-29.6-59.6-12.3
				c-8.9,8.4-13.4,22.3-12.1,34.4C70.8,123.3,96.3,136,117.8,129.1z M87.5,64c8.2-4.4,18.7-4.5,27.5-1.5c6,2.1,11.3,5.7,15.4,10.5
				c14.2,16.4,7.3,42.7-12.7,50.2c-17.9,6.8-39.1-2.2-44.2-21.4c-2.9-10.6-0.4-23.4,6.8-31.9C82.2,67.4,84.7,65.4,87.5,64z"/>
			<path id="路径_113" class="st3" d="M84.3,88.3c2.9-3.9,3.3-8.9,6.9-12.6c4.1-4.1,8.9-3.3,13.9-5.1c0.5-0.1,0.7-0.6,0.6-1.1
				c-0.1-0.3-0.3-0.5-0.6-0.6c-5.6-2.2-12.4-2.4-17.3,1.4c-4.5,3.4-9.3,10.8-8.9,16.5C79.1,89.9,82.6,90.6,84.3,88.3z"/>
			<path id="路径_114" class="st3" d="M109,117.8c6.9-0.9,12.6-4.9,16.5-10.5c3.3-4.7,7-13.4,1.7-18c-0.4-0.4-1-0.4-1.4,0
				c-0.1,0.1-0.2,0.2-0.2,0.4c-1.3,5.1-1.1,9.8-3.8,14.5c-2.9,4.9-7.6,9.6-13.1,11.3C107.6,116,107.7,118,109,117.8z"/>
			<path id="路径_115" class="st3" d="M142.8,44.2c0.3,2.3,0.4,4.7,0.6,6.9c0,1,0.9,1.9,1.9,1.9c0.1,0.1,0.2,0.1,0.3,0.1
				c3.9,0.2,8-0.9,11.9-1.5c4.4-0.6,8.7-1.6,12.9-3.1c0.8-0.3,1.2-1.1,1.1-1.9c0.4-0.5,0.6-1.1,0.5-1.8c-0.4-2.8-0.9-5.5-2.6-7.8
				c-0.3-0.5-0.9-0.6-1.3-0.4c-0.2,0-0.5,0-0.7,0.1c-4.2,1.3-8.6,2.3-13,2.9c-3.5,0.6-7.5,0.9-10.6,2.7c-0.3,0-0.7,0.2-0.8,0.5
				c-0.4,0.3-0.5,0.8-0.2,1.2C142.7,44.1,142.8,44.1,142.8,44.2z M155.2,42.9c4.2-0.6,8.4-1.6,12.4-2.9c0.2,1.8,0.3,3.6,0.4,5.4
				c0,0.2,0.1,0.3,0.1,0.5c-3.8,1.1-7.7,1.9-11.6,2.5c-3.1,0.5-6.4,0.8-9.3,2.1c-0.2-2.1-0.8-4.1-1.7-6.1
				C148.9,44,152.1,43.5,155.2,42.9L155.2,42.9z"/>
		</g>
	</g>
	<g id="组_70" transform="translate(790.905 1990.576) rotate(9)">
		<path id="路径_116" class="st2" d="M132.7,83c0.2,0,0.3-0.1,0.5-0.1c7.4,8.8,21,5.3,29.1-1.1c8.4-6.7,12.6-21.7,5.6-30.8
			C157.3,62.7,144.8,73.2,132.7,83z"/>
		<path id="路径_117" class="st5" d="M171,29.3c-10.6,9.2-19.7,19.9-29.4,29.9c-11.2,11.4-22.9,22.4-34,33.9
			c-2.6,2.7,1.7,6.2,4.4,3.7c5.1-4.8,10.2-9.7,15.2-14.6c11.3-17.1,29.2-29.9,43.5-44.3c0.2-0.2,0.6-0.3,0.9-0.3
			c1.2-1.2,2.5-2.5,3.7-3.7C177.7,31.5,173.7,27,171,29.3z"/>
		<path id="路径_118" class="st5" d="M76.9,43.8C67.1,51.7,60,62.8,51,71.6c-9.6,9.3-19.4,18.2-28.1,28.3
			c-2.4,2.8,1.9,6.5,4.4,3.7c17.2-19.2,37.2-35.4,53.3-55.7C82.5,45.6,79.5,41.7,76.9,43.8z"/>
		<path id="路径_119" class="st5" d="M90.8,33.5c-0.9-1-2.5-1.2-3.7-0.5c-1.7,1.1-3.1,2.6-4.1,4.4c-0.7,1.5-0.1,3.4,1.4,4.1
			c1.5,0.7,3.4,0.1,4.1-1.5c0.1-0.3,0.3-0.5,0.5-0.8c0.1-0.1,0.3-0.5,0.4-0.5c0.4-0.5,0.9-1,1.4-1.6C91.8,36.1,91.7,34.5,90.8,33.5z
			"/>
		<path id="路径_120" class="st5" d="M72.1,159.4c-3.2-7.6-12.4-10-18.7-14.4c-8.4-5.8-14.6-14-24.1-18.1
			c-3.6-1.5-6.2,3.8-2.6,5.4c8.8,4.1,14.8,12,22.6,17.5c6.1,4.4,13,7.1,18.4,12.6C69.5,164.4,73.1,161.9,72.1,159.4z"/>
		<path id="路径_121" class="st5" d="M80.8,169c-1.2-1.4-2.5-2.8-3.8-4.1c-1.2-1.1-3.1-0.9-4.2,0.3c-1,1.3-0.9,3.1,0.3,4.2
			c1.2,1.1,2.3,2.2,3.5,3.3c1.1,0.9,2.6,0.9,3.6-0.1C81.4,171.6,81.6,170.1,80.8,169z"/>
		<path id="路径_122" class="st5" d="M136,215.2c-15.5,3.2-32.1,0.3-47.9,0.6c-8.2,0.2-16.5,0.8-24.7,0.6
			c-7.2-0.1-14.1-0.7-21.1,1.1c-3.8,1-1.8,6.6,1.9,5.8c7.7-1.7,15.8-0.1,23.6,0c9.6,0.1,19.1-0.5,28.7-0.4
			c8.2,0.1,16.3,0.5,24.5,0.5c6,0,12.3,0.2,17.7-2.6C142.2,219,139.2,214.6,136,215.2z"/>
		<path id="路径_123" class="st5" d="M130.3,20.8c-6.9-2.4-15.7,5.3-20.3,9.6c-4.7,4.4-11.8,12.7-7.8,19.6c1.5,2.5,5.6,1,5.3-1.8
			c-0.6-5.7,3.9-10.4,7.8-14c4.5-4.1,9.1-6,14.6-8.1C132.1,25.3,132.9,21.7,130.3,20.8z"/>
		<g id="组_69" transform="translate(0 0)">
			<path id="路径_124" class="st3" d="M111.9,214c3.2,0,13.9,0.7,13.9-4.6c0-5-6.9-5.3-11.4-4.2c-6.8-0.7-23.1-1.4-19.9,5.3
				C96.5,214.7,108.4,214,111.9,214z M98.7,208.1c0.3-0.4,5.1-0.8,5.8-0.8c2.3-0.3,4.6-0.4,6.9-0.4c0.1,0.2,0.3,0.3,0.5,0.4
				c1.9,0.1,13.3,0.5,10.2,3c-2.5,2-9.5,1.1-12.4,1c-2.8-0.1-6.9,0.3-9.6-0.8C99.2,210,97.4,209.5,98.7,208.1z"/>
			<path id="路径_125" class="st3" d="M19.8,111.9c-1.1-2.3-3.8-3.3-6.1-2.2c-0.4,0.2-0.7,0.4-1.1,0.7c-1.1,1.1-1.6,2.6-1.5,4.1
				c0.4,2.5,2.7,4.2,5.2,3.8c0.3,0,0.5-0.1,0.8-0.2c2.4-0.8,3.6-3.3,2.9-5.7C19.9,112.3,19.9,112.1,19.8,111.9z M16.8,116.6
				c-1.6,0.6-3.3-0.1-4-1.7c0-0.1-0.1-0.2-0.1-0.3c-0.3-1,0-2.1,0.6-2.9c0.2-0.2,0.4-0.4,0.7-0.5c1.3-0.6,2.9-0.3,3.9,0.8
				c1,1.2,0.9,3.1-0.4,4.1C17.3,116.3,17,116.4,16.8,116.6z"/>
			<path id="路径_126" class="st3" d="M177.1,32.7c1.1-0.4,1.7-1.6,1.3-2.7c0,0,0-0.1,0-0.1c-2.3-7.2-18.6-9.8-24.6-10.2
				c-6.5-0.4-13.1,0.5-19.2,2.6c-3.8-2.6-8.1-4.6-11.6-7.7c-4.2-3.7-7.6-8.5-12.3-11.6c-8.2-5.5-13.8-2.6-20.6,3.5
				c-5.7,5.1-10.7,12.6-7.3,20.3c-10.6,10.9-20.5,22.8-30.7,34C40.8,73.3,29,85.8,18.6,99.3c-4.8-1.1-9.9,0.2-13.5,3.6
				c-3.7,3.7-5.5,8.9-5,14.2c1,9.2,10.5,14.4,19,12.6c9.2,9.9,20.1,18.4,30.5,27c6.9,5.8,13.7,12.7,21.1,18.2
				c-6.2,2.2-12,5.4-17.2,9.5c-12.5,10.1-16.4,23.9-15.1,39.5c0,0.3,0.3,0.6,0.7,0.6c0.3,0,0.5-0.2,0.6-0.5c16.4,2,33.6,0.9,50.2,1
				c16.8,0.1,33.6,0,50.4,0.1c0.6,0,1.2-0.2,1.6-0.7c0.4-0.3,0.6-0.7,0.7-1.1c3.3-12.7-3.2-29.1-11.9-38.2c-9.2-9.7-23-13.9-36-14
				c-2.2,0-4.4,0.1-6.6,0.2l0,0c-1.7-3.2-5.7-5.7-8.4-7.9c-5.9-5-12-9.8-18.1-14.6c-10.8-8.6-21.7-17.4-33.3-24.9
				c3.3-4.6,3.9-10.6,1.4-15.8c-0.5-1.1-1.2-2.1-1.9-3c12.8-11.6,24.6-24.4,36.4-37c6.6-7.1,13.3-14.2,19.8-21.4
				c2.5-2.7,6-5.8,8.3-9.2c4.9,4,9.6,7.8,10,16c-1.6,3.8-2.7,7.8-3.2,11.9c-1.2,10.1,0.6,25.6,9.2,32.8c-0.1,0.3-0.1,0.6,0.2,0.7
				c0.2,0.1,0.4,0.1,0.5,0c0,0,0.1,0,0.1-0.1c0.1,0,0.1,0.1,0.2,0.1c0.5,0.4,1-0.2,0.9-0.7c6.1-3.6,11-9.2,16-14.2
				c1-1,1.9-1.9,2.9-2.9c9.7,17.1,34.3,11,43.2-3.8c4.3-7.2,5.3-14.8,1.7-22.5c-1.2-2.5-4.2-8.7-7.8-9.9
				C170.1,41.1,174.8,37.6,177.1,32.7z M3.4,117.7c-1.1-4.2-0.1-8.7,2.6-12.1c0.8-0.9,1.7-1.7,2.7-2.2c5.5-2.7,12.2-1.3,16.2,3.4
				c4.3,5.1,3.6,12.7-1.5,17c-1,0.8-2.1,1.5-3.3,2C13.3,128.3,5.3,124.9,3.4,117.7z M125.4,187c9.7,9.4,11.1,21.2,12.6,33.7
				c-16.1,0.1-32.1,0.4-48.2,0.7c-16.5,0.3-33.6-0.4-50,1.6c1.6-14.9,5.2-27.6,18.1-36.8c10.3-7.3,23.1-10.7,35.6-10.7
				C105.1,175.5,116.9,178.7,125.4,187L125.4,187z M59.1,152.4c7.8,6.3,15.3,13.5,23.5,19.5c-2.2,0.4-4.5,0.8-6.7,1.4
				c-1.9-2.4-4.8-4.4-6.9-6.2c-5.6-4.8-11.3-9.5-17-14.2c-10-8.2-20.1-16.8-31-23.8c2.4-0.8,4.5-2.3,6.2-4.1
				C36.8,135,48.3,143.6,59.1,152.4z M59.7,66.2c-11.2,12.2-23,24.3-33.1,37.5c-1.7-1.7-3.7-3-6-3.8c12.7-11.8,24.4-24.7,36-37.4
				c6.9-7.5,13.9-15.1,20.7-22.8c2.4-2.7,5.7-5.7,8-8.9c1,1.3,2.1,2.5,3.4,3.6C78.7,44.6,69.3,55.6,59.7,66.2L59.7,66.2z M99.9,38.3
				C93.7,29.9,79.7,26,89.2,13.2C93,8,99.4,1.8,106.6,4.7c5,2,8.9,8,12.6,11.7c2.9,2.8,6.3,6.1,10,8c-4,1.9-7.7,4.3-11.1,7.2
				c-5.7,4.9-10.4,10.8-13.9,17.5C103.8,45.1,102.3,41.4,99.9,38.3L99.9,38.3z M167.4,75.9c-4.2,6.4-11,11.1-18.8,11.5
				c-7.5,0.4-12.8-3.2-18.3-7.7c5.1-5.1,10.2-10.1,15.4-15.1c5.8-5.5,11.6-11.2,17.3-16.8C170.5,56.3,174.6,64.9,167.4,75.9
				L167.4,75.9z M161.4,43.9c-6.5,6.4-13,12.8-19.6,19.2c-11.3,11-21.5,22.9-32.7,34c-6.8-8.1-7.5-24.3-5.5-33.6
				c2.2-10.2,8.4-20.2,16-27.2c8-7.4,18.4-11.7,29.3-11.8c5.1-0.1,10.2,0.6,15,2.3c1.6,0.6,8.8,2.9,9.4,4.5c0.1,0.3,0.3,0.7,0.6,0.9
				C170.2,36.4,165.6,39.8,161.4,43.9L161.4,43.9z"/>
			<path id="路径_127" class="st3" d="M162.8,67.1c-0.6,4.1-3.6,9.2-7.6,10.8c-1,0.4-0.6,2,0.5,1.7c3.6-0.8,6.8-2.9,9-5.9
				c1.7-2.3,3.9-6.8,1.5-9.3C164,62.1,163.1,65.4,162.8,67.1z"/>
			<path id="路径_128" class="st3" d="M162.9,54.1c0.1,0.9,0.2,1.9,0.4,2.8c0.3,0.9,0.7,1.8,1.1,2.7c0.2,0.3,0.7,0.5,1,0.2
				c0.2-0.1,0.3-0.4,0.3-0.6c-0.2-1.2,0.2-2.3-0.2-3.5c-0.3-1.1-1.1-1.9-2.1-2.1c-0.3-0.1-0.5,0.1-0.6,0.4
				C162.9,54,162.9,54,162.9,54.1z"/>
		</g>
	</g>
	<g id="组_72" transform="translate(1340.24 1533.449)">
		<path id="路径_129" class="st2" d="M121.6,92.3c-2.6,4.4-6.6,8.7-12.3,7.5c-1.1-0.2-2.1-0.7-3-1.3c0.2-2.5,0.2-5,0.3-7.5
			c0.8-4.5,0.5-10-4.5-9.9c-5.9,0-6.8,9.1-6.2,13.2c0.1,0.5,0.2,1,0.3,1.5c-2.6,2.8-5.6,5.4-10.2,4.6c-0.2,0-0.4-0.1-0.6-0.2
			c3.6-5.6,5-15.9-2.6-19.1c-6.6-2.8-10.3,5.2-10.2,10.7c0.1,2.7,0.8,5.3,2.2,7.7c-0.9,0.3-1.8,0.5-2.7,0.5c-3.8-0.1-7-1.7-6.8-6
			c0.2-3.7-6-4.1-6.5-0.4c-1.4,10.9,9.1,15.3,17.9,12.9c2.1,15.2,6.8,30.2,7.8,45.5c0.3,4.7,7.6,4.2,7.3-0.5
			c-1-14.9-5.4-29.3-7.7-44.1c0.6,0.2,1.3,0.4,1.9,0.6c4,0.9,8.2-0.1,11.5-2.5c-1.8,15.5-2.9,31.2-4.2,46.6c-0.4,4.2,6,5.6,6.5,1.3
			c2-15.6,4.7-31.5,6.1-47.3c8.4,2.7,19.5-1.6,21.9-11.7C128.7,90.5,123.4,89.2,121.6,92.3z"/>
		<g id="组_71">
			<path id="路径_130" class="st3" d="M3.9,60.8c-0.7-0.1-1.4-0.4-2.1-0.7c-0.5-0.3-0.9-0.5-1.5-0.4C0.1,59.8,0,60,0,60.2
				c0.2,1.4,2.4,1.8,3.6,2C4.4,62.3,4.9,61,3.9,60.8z"/>
			<path id="路径_131" class="st3" d="M92.8,40.9c-23.8-2-45.9,15.4-51.1,38.2c-2.5,11.2-1.3,24.1,5.1,33.8
				c8.6,13.1,23.2,18.5,26.9,34.2c-2.2,0.3-4.7,1.2-5.5,2.8c-3.5,2.4-3.6,8-0.5,10.9c0.2,0.2,0.4,0.3,0.6,0.5
				c-2.9,2.8-2.9,8.4-0.5,11.5c4.6,5.9,15.4,5.1,22,5.2c7.8,0.1,19,0,24.4-6.9c2.8-3.6,2-7.6-1.3-9.9c1-0.6,1.8-1.4,2.6-2.3
				c3.1-3.7,2.4-8.8-2-10.5c-1.1-1.6-3.7-2.4-5.8-2.1c2.1-6.7,5.2-12.6,10.5-17.8c4.6-4.4,9.8-8.1,13.7-13.1
				c7.2-9.4,9.2-22.1,7.2-33.6C135.1,59,115.7,42.8,92.8,40.9z M91.9,174.5c-5.6,0-27.2-1.2-22.1-12.1c6.1,3.7,16.1,2.7,22.5,2.7
				c5.4,0,12.8,0.1,18.3-2.5C115.7,173,98.3,174.5,91.9,174.5z M113.5,152c3.2,9.9-17.3,10.3-22.6,10.2c-2.9,0-5.8,0-8.6-0.1
				c-2.3,0-4.6-0.3-6.9-0.7c-3.9-0.5-6-3.1-6.2-7.8c3.7,4.1,15.6,2.5,19.9,2.6C93.5,156.2,110.6,157.3,113.5,152L113.5,152z
				 M83.5,121.8c-0.7-5.7-1.4-11.6-2.2-17.5c5.6,3.3,13.8,1.6,19.2-2.9c0,0,0.1,0.1,0.1,0.1c-1.2,17.3-1.2,34.9-4.3,51.9
				c-2.6,0.1-5.1,0-7.3,0c-1,0-2.1,0-3.1,0C86.6,143.1,84.8,132.1,83.5,121.8z M100,90.9c0.9-3,3.3-2.6,3.9-1.6
				c0.7,1.1,0.3,2.9-0.4,4.5c-0.2-0.9-0.5-1.7-0.7-2.6c-0.1-0.3-0.4-0.5-0.8-0.4c-0.2,0.1-0.4,0.3-0.4,0.6c-0.2,1.9-0.4,3.8-0.5,5.7
				C100.4,95.4,99.5,92.3,100,90.9L100,90.9z M106.2,151.9c0.3-1.3,0.7-2.7,1.1-3.9C110.8,150,109,150.8,106.2,151.9L106.2,151.9z
				 M135,94.9c-1.7,15.5-12.2,22-21.9,32.3c-6.8,7.3-10.3,15.2-8.8,25.1c0,0.1,0,0.1,0.1,0.2c-2.2,0.6-4.6,0.9-6.9,1
				c3-10.2,3.3-20.6,4.4-31.2c0.6-5.7,1.9-11.8,2.3-17.8c8.9,4.2,22.6-6.4,14.7-15.7c-0.2-0.2-0.5-0.2-0.7,0
				c-0.1,0.1-0.2,0.3-0.1,0.4c3.3,9.4-6.1,17.2-13.8,12c0-1.3-0.1-2.5-0.2-3.8c0.9-1.4,1.5-2.9,1.8-4.6c0.6-3.3,0-8.4-4.8-6.9
				c-5,1.6-3.6,9.6-1.9,13.1c0,0.1,0.1,0.2,0.2,0.3c-0.8,0.7-1.7,1.2-2.7,1.8c-5,2.8-8.1,3-13,0.4c-1.1-0.6-2.1-1.2-3-2
				c1.2-1.9,2.1-4,2.7-6.2c0.8-3,1.7-8.1-2.5-8.5c-7-0.8-5.6,10.7-4.1,14.2c0.1,0.2,0.2,0.5,0.3,0.7c0,0.3,0.1,0.6,0.1,0.9
				c-3.6,3.9-12.1,3.3-14.1-6.7c-0.2-0.9-1.1-1.2-1.4-0.4c-2.4,6.9,1.9,13.2,9.7,12.6c2.3-0.2,4.5-1.2,6.1-2.8
				c0.7,4.6,1.8,9.1,2.5,13.6c2.1,12.1,3.2,24.4,4.7,36.5c-2.1,0-4.2,0-6.2-0.1c-4.3-0.2-8.5-2-4.5-5c0.2,1.1,0.4,2.3,0.5,3.4
				c0,0.3,0.3,0.6,0.6,0.6c0.3,0,0.6-0.3,0.6-0.6c0-10.7-2.9-19.1-10.6-26.6c-9.8-9.6-18.8-17-20-31.8c-2-25.9,20.9-50.5,47.6-47.7
				C117.7,48.2,137.7,69.1,135,94.9L135,94.9z M80.6,94.7c-0.2,0.5-0.4,0.9-0.6,1.3c-0.4-2.1-0.8-4.1-1.2-6.1c0-0.1-0.1-0.2-0.2-0.3
				c0.1-0.1,0.1-0.2,0.2-0.3C83.1,84.4,81.9,92.1,80.6,94.7L80.6,94.7z"/>
			<path id="路径_132" class="st3" d="M82.3,29.3c-1.2,1.2-0.6,3.3-0.4,4.8c0,0.5,0.4,0.8,0.9,0.8c0.4,0,0.8-0.4,0.8-0.8
				c0.2-1.5,0.8-3.6-0.4-4.8C82.9,29.1,82.6,29.1,82.3,29.3z"/>
			<path id="路径_133" class="st3" d="M81.5,24.3c0,0.4,0.3,0.8,0.8,0.8c0.4,0,0.8-0.3,0.8-0.8c0.9-6.7,4.9-18.6-0.8-24.1
				c-0.3-0.3-0.7-0.3-1,0c-0.1,0.1-0.1,0.2-0.2,0.3c-0.7,3.6,0,7.4,0,11C81,15.8,81.1,20,81.5,24.3z"/>
			<path id="路径_134" class="st3" d="M111.1,38.3c3.2-1.9,4.8-5.8,6.4-8.9s4.1-7.3,3.7-10.9c0-0.4-0.4-0.7-0.8-0.7
				c-0.1,0-0.2,0-0.3,0.1c-2.8,1.6-3.8,5.4-4.8,8.3c-1.5,3.9-3.2,7.7-5.1,11.4c-0.2,0.3-0.1,0.7,0.3,0.9
				C110.6,38.4,110.9,38.4,111.1,38.3z"/>
			<path id="路径_135" class="st3" d="M122.7,12.7c0.5-0.8,1-1.6,1.2-2.6c0.4-0.9,0.6-1.9,0.5-2.9c0-0.4-0.3-0.6-0.7-0.6
				c-0.2,0-0.3,0.1-0.4,0.2c-1.6,1.4-2.3,3.5-2,5.5c0.1,0.4,0.6,0.7,1,0.6C122.5,12.9,122.6,12.8,122.7,12.7z"/>
			<path id="路径_136" class="st3" d="M133.2,52.9c1.4-0.5,2.6-1.4,3.6-2.5c0.9-1,2.4-2.3,2.6-3.7c0.1-0.3-0.1-0.7-0.4-0.7
				c0,0-0.1,0-0.1,0c-1.4,0-2.3,1.3-3.2,2.2c-0.9,1.2-1.9,2.3-3,3.3C132,52,132.3,53.2,133.2,52.9z"/>
			<path id="路径_137" class="st3" d="M145,42.5c2.9-1.8,5.6-3.9,8.1-6.3c1.6-1.4,5.5-4,4.8-6.4c-0.1-0.3-0.4-0.6-0.8-0.6
				c-1.3,0-1.8,0.8-2.6,1.8c-1.1,1.3-2.3,2.5-3.6,3.6c-2.4,2.2-5.2,4.1-6.9,6.8C143.6,42.2,144.4,42.9,145,42.5z"/>
			<path id="路径_138" class="st3" d="M144.8,71.8c4.2-0.2,7.8-2.2,11.7-3.5c3.2-1,6.8-1.5,8.8-4.5c0.1-0.3,0.1-0.6-0.2-0.7
				c-0.1,0-0.2-0.1-0.3-0.1c-6.9-0.4-14,4.9-20.2,7.4C143.9,70.6,143.9,71.8,144.8,71.8z"/>
			<path id="路径_139" class="st3" d="M174.4,59.8c-0.6-0.2-1,0.1-1.5,0.4c-0.7,0.3-1.4,0.6-2.1,0.7c-0.9,0.2-0.5,1.5,0.4,1.4
				c1.2-0.2,3.4-0.6,3.6-2C174.8,60,174.6,59.8,174.4,59.8z"/>
			<path id="路径_140" class="st3" d="M149,94c-0.4,0-0.6,0.3-0.6,0.7c0,0.3,0.3,0.6,0.6,0.6c6.4,0.7,12.9,0.5,19.3-0.4
				c0.5-0.2,0.8-0.7,0.7-1.2c-0.1-0.3-0.3-0.6-0.7-0.7C162.1,92.1,155.2,93.3,149,94z"/>
			<path id="路径_141" class="st3" d="M147.7,116.6c-1.9-0.6-3.8-0.9-5.7-1.5c-0.4-0.1-0.9,0.1-1,0.6c-0.1,0.4,0.1,0.7,0.4,0.9
				c1.5,0.8,3.1,1.5,4.8,2.1c1.4,0.5,3,1.2,4.5,0.8c0.2-0.1,0.4-0.3,0.3-0.5C150.3,117.5,149.1,117,147.7,116.6z"/>
			<path id="路径_142" class="st3" d="M173,124.9c-5.6-2.4-11.9-3.2-17.7-5.1c-0.7-0.2-1,0.8-0.5,1.2c4.7,3.5,11.8,5.1,17.5,6.5
				c0.7,0.2,1.4-0.3,1.6-1C174,125.8,173.6,125.1,173,124.9z"/>
			<path id="路径_143" class="st3" d="M63.7,38.3c0.3,0.2,0.7,0.1,0.9-0.3c0.1-0.2,0.1-0.4,0-0.6c-1.9-3.7-3.6-7.5-5.1-11.4
				c-1-2.8-1.9-6.7-4.8-8.3c-0.4-0.2-0.8-0.1-1,0.3c-0.1,0.1-0.1,0.2-0.1,0.3c-0.3,3.6,2.2,7.7,3.7,10.9S60.6,36.5,63.7,38.3z"/>
			<path id="路径_144" class="st3" d="M52,12.7c0.3,0.3,0.8,0.3,1.2,0c0.1-0.1,0.2-0.2,0.2-0.3c0.3-2.1-0.5-4.1-2-5.5
				c-0.3-0.2-0.7-0.2-0.9,0c-0.1,0.1-0.2,0.3-0.2,0.4c0,1,0.2,2,0.5,2.9C51.1,11.1,51.5,11.9,52,12.7z"/>
			<path id="路径_145" class="st3" d="M42.2,51.5c-1.1-1-2.1-2.1-3-3.3c-0.8-0.9-1.8-2.2-3.2-2.2c-0.3,0-0.6,0.3-0.6,0.6
				c0,0,0,0.1,0,0.1c0.2,1.3,1.7,2.7,2.6,3.7c1,1.1,2.2,2,3.6,2.5C42.4,53.2,42.8,52,42.2,51.5z"/>
			<path id="路径_146" class="st3" d="M21.6,36.3c2.5,2.3,5.2,4.4,8.1,6.3c0.6,0.4,1.4-0.4,1-1c-1.8-2.7-4.6-4.7-6.9-6.8
				c-1.2-1.1-2.3-2.2-3.4-3.4c-0.9-1-1.4-2-2.8-2.1c-0.4,0-0.7,0.2-0.8,0.6C16.1,32.3,20.1,34.9,21.6,36.3z"/>
			<path id="路径_147" class="st3" d="M18.3,68.3c3.9,1.3,7.5,3.3,11.7,3.5c0.9,0,0.9-1.1,0.2-1.4C24,67.9,16.9,62.6,10,63
				c-0.3,0-0.5,0.3-0.5,0.6c0,0.1,0,0.2,0.1,0.3C11.5,66.8,15.1,67.3,18.3,68.3z"/>
			<path id="路径_148" class="st3" d="M6.5,94.9c6.4,0.9,12.9,1.1,19.3,0.4c0.4,0,0.6-0.3,0.6-0.7c0-0.3-0.3-0.6-0.6-0.6
				c-6.2-0.7-13.1-1.9-19.3-0.9C6.4,93.2,12.2,94.1,6.5,94.9z"/>
			<path id="路径_149" class="st3" d="M32.8,115.1c-1.9,0.6-3.8,0.9-5.7,1.5c-1.4,0.4-2.7,0.9-3.2,2.3c-0.1,0.2,0.1,0.5,0.3,0.5
				c1.5,0.5,3.1-0.2,4.5-0.8c1.6-0.6,3.2-1.3,4.8-2.1c0.4-0.2,0.5-0.7,0.3-1.1C33.5,115.2,33.1,115,32.8,115.1z"/>
			<path id="路径_150" class="st3" d="M19.4,119.8c-5.8,1.9-12,2.7-17.7,5.1c-0.7,0.2-1.1,1-0.9,1.7c0.2,0.7,0.9,1.1,1.6,0.9
				c3.4-0.8,6.7-2,10-3.1c2.7-0.7,5.2-1.9,7.5-3.4C20.5,120.6,20.2,119.5,19.4,119.8z"/>
			<path id="路径_151" class="st3" d="M86.9,52.1c-6.2-0.9-12,0.9-17.2,4.2c-4.2,2.6-10.6,7.2-10.2,12.7c0,0.3,0.3,0.6,0.6,0.6
				c0.1,0,0.2,0,0.3-0.1c3.8-2.6,6.1-6.9,9.8-9.8c4.7-3.6,10.5-6.5,16.5-6.3C87.5,53.6,87.7,52.3,86.9,52.1z"/>
			<path id="路径_152" class="st3" d="M55.4,75.7c-2.3,2.7-4.3,7-2.3,10.5c0.2,0.3,0.6,0.4,1,0.2c0.1-0.1,0.2-0.1,0.2-0.2
				c0.6-1.4,0.9-2.9,1-4.4c0.2-1.7,0.8-3.3,1.8-4.8C57.7,76,56.2,74.8,55.4,75.7z"/>
		</g>
	</g>
	<g id="组_73" transform="translate(1419.526 1982.795)">
		<path id="路径_153" class="st2" d="M19,77.2c1.3,1.1,2.8,2.1,4.3,2.9c6.6,3.4,11.8,1,16.3-3.1c1.9-6.1,1.5-12.7-2.9-17.9
			c-6.5-7.7-17.2-9.7-25.7-14.3c-0.5-0.3-1.1-0.4-1.7-0.4c3.7,8.3,5.9,17.2,8.1,26.2C17.8,72.7,18.3,75,19,77.2z"/>
		<path id="路径_154" class="st2" d="M131.6,95.2c-4.5-17.7,1.7-36.4-3.8-53.7c-0.1-0.4-0.3-0.8-0.6-1.1
			c-4.6,2.8-9.8,4.4-15.1,4.6c4.9,14.5,4.4,29.6,6.8,44.7c0.2,1.3,0.4,2.7,0.7,4c0.9-0.2,1.7-0.7,2.3-1.3c-0.5,0.9-1.3,1.6-2.1,2.2
			c0.5,2.9,1.1,5.9,1.7,8.8c1.7-0.7,3.3-1.7,4.7-2.9C128.8,101.4,132.6,98.9,131.6,95.2z"/>
		<path id="路径_155" class="st6" d="M113.3,33.8c0.9-0.3,1.6-1,2.1-1.9c0.1-0.3,0.3-0.6,0.4-0.9c0.6-0.1,1.1-0.4,1.5-0.8
			c1.1-1,1.5-2.6,1.1-4c-0.3-1-0.9-2-1.6-2.8c-0.2-0.3-0.4-0.7-0.6-1c-0.1-0.2-0.3-0.5-0.4-0.7l0-0.1c-0.1-0.3-0.3-0.6-0.5-0.8
			C114.8,25.3,114,29.6,113.3,33.8z"/>
		<path id="路径_156" class="st5" d="M142.7,114.5c0.5-0.5,1.2-0.8,1.8-0.9c5.6-6.7,8.3-14.2-2.4-17.8c-0.4-0.2-0.9-0.2-1.4-0.2
			c3.5,14.9-14,26.9-25.9,32c-20.8,8.9-45.1,12.8-67.4,16.4c-0.1,0.9,0.1,1.8,0.5,2.6c0.4,1.3,1.4,2.4,2.7,3
			c11.3,5.5,31.2-2.1,42.1-5.6c14.6-4.8,26.8-8.3,40.1-15.7c1.4,8.6,2.3,17.2,2.7,25.9c0.4,10.3,1.3,20.9-0.8,31.1
			c-2.6,12.7-14.7,24.6-27.9,29.7c10.9-1.3,21.7-3.1,31.9-7.3c2-2.2,3.7-4.6,4.9-7.3c3.2-6.9,4.2-15.6,4.3-24.3
			c-2.1-12-4.1-24-6.4-36C140.2,132.6,136.1,120.6,142.7,114.5z"/>
		<path id="路径_157" class="st3" d="M140,119.3c3.6-2.1,6.7-4.8,8.4-8.6c0.1-0.1,0.1-0.3,0.1-0.4c4.4-6.6,1-19.8-8.2-17.7
			c-0.2,0-0.3,0.2-0.4,0.4c-0.1,0-0.1,0.1-0.2,0.1c-1.6,1-3.3,1.9-5,2.7c0.2-19-0.5-40.2-5.3-58.4c-0.3-2.4-2.9-4.4-4.7-5.8
			c-4.7-3.8-8.8-8.3-12.2-13.2c-0.5-0.8-1.5-1.1-2.3-0.6c-3.2,2.3-3.7,6.9-4.4,10.5c-1,4.9-3.8,11.9-4.7,16.9
			c-0.9,5.2-0.6,9.4-0.6,14.6c0.1,10.7,1.9,20.4,3.3,31.1c0.7,5.4,1.7,10.7,3,15.9c-1.3,0.4-2.6,0.8-3.9,1.3
			c-2.7-17.9-11-36.1-16.7-53.1C84,47.5,81.5,40.2,78.9,33c-1.5-4.6-3.3-9.1-4.9-13.7c-1.5-4.3-3.2-8.5-5-12.7C68.3,4.8,67,0,64.6,0
			c-3.9,0-7.4,1.1-11,2.4c-4.7,1.6-10,3.3-14.2,6c-2.7,1.9-1.4,3.8-0.8,6.5c0.4,1.8,0.9,3.6,1.4,5.3c1,3.6,2.1,7.1,3.3,10.6
			c2.4,7.1,5,14.1,7.7,21c1.6,4.3,3.3,8.5,4.8,12.8c4.3,11.8,8.5,23.6,12.8,35.4c2,5.5,5,11.1,6.5,16.8c-3,1-6,2-9.1,2.9
			c-0.1-2.2-2-5-2.9-6.4c-2.3-4.1-5.3-7.7-8.8-10.7c0.6-0.8,0.9-1.6,1.1-2.6c0.3-2.9-3.1-5.7-4.8-7.8c-1.9-2.4-6.5-8.1-10.7-9.2
			c5.2-8.6,5.1-19.2-1.8-27.1c-8.4-9.6-23.9-13.5-36.2-14c-2.1-0.1-2.5,2.6-1,3.7c0.3,0.2,0.7,0.5,1,0.7c4.8,6.9,2.7,17.4,3.6,25.3
			c0.7,6.2,2,13.1,6,18c4,4.9,9.6,5.7,14.9,4.1c-0.1,5.9,2.2,13,5.7,17.3c1.1,1.4,2.8,2.2,4.6,2.3c0.6,3,2.3,5.7,3.9,8.3
			c0.8,1.4,1.7,2.7,2.8,3.9c-2.6,0.5-5.2,0.9-7.9,1.2c-0.4,0.1-0.7,0.5-0.7,0.9c-2.5,3.4-2.9,7.9-0.9,11.7c1.2,2.3,2.8,6.4,10.7,6.4
			c2.9,1.4,4.3,3.8,5.4,6.9c1.2,3.5,2.2,7.1,3.5,10.7c2.1,6.5,4.6,12.8,7.4,19.1c5.6,12.1,12.1,24.1,20.3,34.6
			c5.4,6.9,13.5,4.5,21.3,3.5c6.6-0.7,13.1-2.2,19.3-4.5c3.8-1.3,7.5-2.8,11.2-4.5c7.9-3.7,15.8-6,16.2-15.6
			c0.6-13.6,0.1-27.3-1.7-40.8C146,142.8,142.3,131.3,140,119.3z M111,21.9c1.9,2.5,3.9,4.9,6.1,7.3c-1.1,1.2-2.6,2-4.2,2.3
			c-1.4,0.3-2.8,0.5-4.2,0.5C109.2,29.5,109.4,24.5,111,21.9z M108.1,33.7c2.1,0.4,4.3,0.5,6.4,0.1c1.6-0.3,3.7-1,4.7-2.4
			c2,2.1,3.9,4.2,5.8,6.3c-2.5,1.4-4.5,3.7-7.2,4.8c-2.7,1.1-5.5,1.8-8.4,2c-1.7,0.1-3.4-0.2-5.1-0.2
			C105.9,41,107.2,37.4,108.1,33.7L108.1,33.7z M104.4,46.6c5.3,0.4,9.3,1.2,14.8-1.1c2.3-0.9,4.5-2.2,6.4-3.8
			c1.3,18.6,5.2,36.8,6.7,55.3c-6.8,3.2-13.8,5.9-20.9,8.2C110.1,85.5,105.9,66.2,104.4,46.6L104.4,46.6z M77.7,110
			c1.5-0.5,3-0.7,4.5-1.3c1.5-0.6,3.3-1.1,4.6-2.1c0.4-0.4,0.4-1.1,0-1.5c-0.1-0.1-0.1-0.1-0.2-0.2c-1.8-0.9-3.5,0.3-5.1,1.2
			c-1.4,0.7-2.8,1.3-4.1,2c-0.8-3.3-1.7-6.5-2.8-9.8c1.4-0.4,2.9-0.7,4.3-1.2c1.5-0.6,3.3-1.1,4.6-2.1c0.4-0.4,0.4-1.1,0-1.5
			c-0.1-0.1-0.1-0.1-0.2-0.2c-1.8-0.9-3.5,0.3-5.1,1.2c-1.4,0.7-2.8,1.3-4.2,2.1c-1.2-3.4-2.4-6.9-3.7-10.3c1.2-0.3,2.3-0.6,3.4-1
			c1.5-0.6,3.3-1.1,4.6-2.1c0.4-0.4,0.4-1.1,0-1.5c-0.1-0.1-0.1-0.1-0.2-0.2c-1.8-0.9-3.5,0.3-5.1,1.2c-1.1,0.6-2.3,1.1-3.4,1.7
			c-1.2-3-2.4-5.9-3.5-8.8c1.3-0.3,2.6-0.6,3.8-1.1c1.5-0.6,3.3-1.1,4.6-2.1c0.4-0.4,0.4-1.1,0-1.5c-0.1-0.1-0.1-0.1-0.2-0.2
			c-1.8-0.9-3.5,0.3-5.1,1.2c-1.2,0.6-2.5,1.2-3.8,1.9c-1.2-3-2.4-6-3.5-9c1.3-0.3,2.5-0.6,3.8-1.1c1.5-0.6,3.3-1.1,4.6-2.1
			c0.4-0.4,0.4-1.1,0-1.5c-0.1-0.1-0.1-0.1-0.2-0.2c-1.8-0.9-3.5,0.3-5.1,1.2c-1.2,0.6-2.5,1.2-3.7,1.8c-0.2-0.6-0.4-1.1-0.6-1.7
			c-0.9-2.4-1.8-4.8-2.6-7.2c1.1-0.2,2.2-0.6,3.3-0.9c1.5-0.6,3.3-1.1,4.6-2.1c0.4-0.4,0.4-1.1,0-1.5c-0.1-0.1-0.1-0.1-0.2-0.2
			c-1.8-0.9-3.5,0.3-5.1,1.2c-1.1,0.5-2.2,1-3.2,1.6c-1.2-3.3-2.5-6.6-3.7-9.8c1.5-0.5,3.1-0.7,4.5-1.3c1.5-0.6,3.3-1.1,4.6-2.1
			c0.4-0.4,0.4-1.1,0-1.5c-0.1-0.1-0.1-0.1-0.2-0.2c-1.8-0.9-3.5,0.3-5.1,1.2c-1.5,0.7-3,1.4-4.4,2.2c-1.2-3-2.4-6.1-3.6-9.1
			c1.1-0.2,2.2-0.6,3.3-0.9c1.5-0.6,3.3-1.1,4.6-2.1c0.4-0.4,0.4-1.1,0-1.5c-0.1-0.1-0.1-0.1-0.2-0.2c-1.8-0.9-3.5,0.3-5.1,1.2
			c-1.1,0.6-2.2,1.1-3.3,1.6c-0.5-1.3-1.1-2.7-1.6-4c-0.7-1.6-1.3-3.4-2-5.2c1.2-0.3,2.4-0.6,3.5-1c1.5-0.6,3.3-1.1,4.6-2.1
			c0.4-0.4,0.4-1.1,0-1.5c-0.1-0.1-0.1-0.1-0.2-0.2c-1.8-0.9-3.5,0.3-5.1,1.2c-1.2,0.6-2.3,1.1-3.5,1.7c-0.9-2.6-2.2-5-3.8-7.2
			c0.3,0.3,5.5-1.8,6.1-2c2.1-0.7,4.2-1.5,6.3-2.2c3.4-1.2,7-2.1,10.5-2.7C63.5,4,64.7,3.6,65.1,4c0.4,0.4,0.4,2.3,0.6,2.8
			c0.4,1.8,0.8,3.6,1.2,5.4c1.8,7.3,4.1,14.4,6.5,21.5c2.7,7.9,5.5,15.7,8.2,23.6c4,11.9,7.9,23.8,11.9,35.7
			c1.7,5.2,4.4,10.6,5.9,16c-2.4,0.8-4.9,1.5-7.3,2.3c-4.4,1.4-8.8,2.9-13.3,4.4C78.5,113.8,78.1,111.9,77.7,110L77.7,110z M9,61.6
			c-0.4-3.8-1.6-11.9-3.2-14.8c6.5,2.2,15.9,3.2,22.1,6.4c8.2,4.2,11.5,13.2,10.4,21c-0.8-2.6-1.8-5.1-3.2-7.5
			c-2.2-4.4-6.1-7.6-10.8-9.1c-0.9-0.3-1.2,1-0.4,1.4c4.8,1.8,8.1,5.7,10.1,10.3c1.3,2.9,1.7,6.4,2.9,9.4c-0.6,1.4-1.5,2.7-2.5,3.9
			c-1.6-3-3.5-5.8-5.5-8.6c-3.1-4.5-6.5-8.7-9.9-12.9c-0.6-0.7-1.8,0.2-1.3,1c5.2,7.2,9.5,15.3,14.8,22.4c-1,0.9-2.1,1.7-3.3,2.4
			c-0.7,0.4-1.5,0.8-2.2,1.1c-2.4-2.8-5.4-5.2-7.7-8.2c-2.8-3.8-4-8.3-5.2-12.8c-0.2-0.9-1.5-0.5-1.3,0.4
			c1.7,8.4,5.2,16.3,12.3,21.3C11.6,92.5,10,69.7,9,61.6L9,61.6z M34.2,105.4c-2-3.8-4.5-8.1-5.4-12.4c3.3-1.4,6.2-3.5,8.5-6.2
			c2.6,1.7,5.2,2.9,7.6,5.3c1.8,1.7,3.5,3.6,4.8,5.7c1.3,2.5-0.8,3.7-2.8,5.4c-1.8,1.7-3.9,3.1-6.1,4.2
			C37.6,108.5,35.7,108.2,34.2,105.4L34.2,105.4z M43.1,119c-1.3-2-2.8-3.8-4.1-5.8c3.7-0.8,7.5-3.5,10-5.5c1.1-0.8,2.5-1.9,3.8-3.1
			c2.2,3.3,4.2,6.7,6.1,10.1c1,1.8,2,4.5,3.3,6.4c-4.6,1.4-9.2,2.6-13.8,3.6C45.9,123.4,44.6,121.2,43.1,119L43.1,119z M37.2,137.8
			c-1.9-2.8-1.9-5.4-0.7-8.6c10.1,0.3,17.3-2.2,25.9-4.7c11.6-3.4,23.2-6.7,34.7-10.3c10.6-3.3,21.2-6.7,31.6-10.4
			c4.7-1.7,9.8-3.8,13.1-9.1c2.7,1.8,4.6,3.8,4.7,7.5c0.1,2.8-1.2,5.4-2.4,7.9c-15.2,9.1-31.5,15.9-48.5,21.4
			c-8.9,2.9-18.1,4.9-27.4,6.2c-5.2,0.7-10.2,2.4-15.4,3.3C47.7,142,40.7,143,37.2,137.8z M143.9,191.9c-0.1,6.5-2.4,9.8-8.4,12.9
			c-10.4,5.2-20.7,7.9-31.8,10.6c-0.5,0.1-0.9,0.2-1.4,0.2c-8.4,1.1-13.1,0.9-19.1-5.7c-3.2-3.8-6.1-7.8-8.5-12.1
			c-6.4-10.6-11.9-21.7-16.6-33.2c-2.8-6.9-4.9-14.3-9.3-20.3c2.2-0.2,4.4-0.6,6.5-0.9c12.9-1.8,25.4-2.6,38-6.2
			c10.9-3.2,21.6-7,32.1-11.4c3.8-1.6,8.3-3.1,12.4-5.2c0.1,6.6,1.9,13.2,3.1,19.7c2.4,12.8,3.6,25.7,3.8,38.7
			C144.6,183.3,143.9,187.6,143.9,191.9z"/>
	</g>
	<g id="组_74" transform="translate(1122.994 2168.247) rotate(-11)">
		<path id="路径_158" class="st2" d="M169.3,37.6c-19.4-3.7-38.9-6.7-58.5-9.3c-35.2-4.7-70.5-8-105.6-13.6
			c-0.8,4.5-1.6,9.1-1,13.7c0.1,1.5,1.5,2.7,3,2.6c0.9-0.1,1.7-0.6,2.2-1.4c4.3,2,8.9,2.5,13.7,3.3c8.1,1.4,16,3,24.1,4
			c16.1,1.8,31.8,4.7,47.6,8.1c15.7,3.3,31.6,5,47.5,7.5c8.6,1.3,17.1,3.2,25.7,4.6c5.5,0.9,12.8-0.3,17.6,2.4
			c0.5,0.3,1.2,0.5,1.8,0.4c1.6,0.9,4.1,0.4,4.3-1.9c0.5-3.9,0.7-7.9,1-11.9c0.1-1.4,0.2-2.7,0.3-4.1
			C185,40.7,177.1,39.1,169.3,37.6z"/>
		<path id="路径_159" class="st3" d="M195.7,30.5c-6.1-3.5-15.2-3.4-22-4.5c-15.1-2.5-30.2-5-45.2-7.4c-33-5.3-65.9-10.7-99-15.5
			c-7.8-1.1-16.1-3.1-24-3C5,0,4.7,0.3,4.6,0.6c0,0.1,0,0.1-0.1,0.2C4,5.7,2.8,10.5,2.1,15.4c-0.6,4.3-0.6,8.6-1.8,12.8
			c0,0.1,0,0.2-0.1,0.3c-0.4,0.6-0.3,1.4,0.2,1.8c0,0,0,0,0.1,0c6.1,3.5,15.2,3.4,22,4.5c15.1,2.5,30.2,5,45.2,7.4
			c33,5.3,65.9,10.7,99,15.5c7.8,1.1,16.1,3.1,24,3c0.4,0,0.7-0.3,0.7-0.6c0-0.1,0-0.1,0.1-0.2c0.6-4.9,1.8-9.7,2.5-14.6
			c0.6-4.3,0.6-8.6,1.8-12.8c0-0.1,0-0.2,0.1-0.3C196.4,31.8,196.3,31,195.7,30.5C195.7,30.5,195.7,30.5,195.7,30.5z M161.8,54.4
			c0.1-0.6,0.1-1.1,0.2-1.6c0.2-1.5,0.4-3,0.4-4.5c0-0.3-0.2-0.5-0.5-0.5c-0.2,0-0.4,0.2-0.5,0.4c-0.5,1.5-0.9,3-1.1,4.6
			c-0.1,0.4-0.2,0.9-0.3,1.3c-3.2-0.5-6.5-1.1-9.7-1.6c0.1-0.6,0.1-1.1,0.2-1.6c0.2-1.5,0.4-3,0.4-4.5c0-0.3-0.3-0.5-0.5-0.5
			c-0.2,0-0.4,0.2-0.5,0.4c-0.5,1.5-0.9,3-1.1,4.6c-0.1,0.4-0.2,0.9-0.3,1.3c-3.2-0.5-6.5-1.1-9.7-1.6c0.1-0.6,0.1-1.2,0.2-1.6
			c0.2-1.5,0.4-3,0.4-4.5c0-0.3-0.3-0.5-0.5-0.5c-0.2,0-0.4,0.2-0.5,0.4c-0.5,1.5-0.9,3-1.1,4.6c-0.1,0.4-0.2,0.9-0.3,1.3
			c-3.2-0.5-6.5-1.1-9.7-1.6c0.1-0.6,0.1-1.2,0.2-1.7c0.2-1.5,0.4-3,0.4-4.5c0-0.3-0.2-0.5-0.5-0.5c-0.2,0-0.4,0.2-0.5,0.4
			c-0.5,1.5-0.9,3-1.1,4.6c-0.1,0.4-0.2,0.9-0.3,1.4c-3.2-0.5-6.5-1.1-9.7-1.6c0.1-0.6,0.1-1.2,0.2-1.7c0.2-1.5,0.4-3,0.4-4.5
			c0-0.3-0.2-0.5-0.5-0.5c-0.2,0-0.4,0.2-0.5,0.4c-0.5,1.5-0.9,3-1.1,4.6c-0.1,0.4-0.2,0.9-0.3,1.4c-3.2-0.5-6.5-1.1-9.7-1.6
			c0.1-0.6,0.1-1.2,0.2-1.7c0.2-1.5,0.4-3,0.4-4.5c0-0.3-0.3-0.5-0.5-0.5c-0.2,0-0.4,0.2-0.5,0.4c-0.5,1.5-0.9,3-1.1,4.6
			c-0.1,0.5-0.2,0.9-0.3,1.4l-9.7-1.6c0.1-0.6,0.1-1.2,0.2-1.7c0.2-1.5,0.4-3,0.4-4.5c0-0.3-0.3-0.5-0.5-0.5c-0.2,0-0.4,0.2-0.5,0.4
			c-0.5,1.5-0.9,3-1.1,4.6c-0.1,0.5-0.2,1-0.3,1.4l-9.7-1.6c0.1-0.6,0.1-1.2,0.2-1.8c0.2-1.5,0.4-3,0.4-4.5c0-0.3-0.2-0.5-0.5-0.5
			c-0.2,0-0.4,0.2-0.5,0.4c-0.5,1.5-0.9,3-1.1,4.6c-0.1,0.5-0.2,1-0.3,1.5L69.6,39c0.1-0.6,0.1-1.3,0.2-1.8c0.2-1.5,0.4-3,0.4-4.5
			c0-0.3-0.2-0.5-0.5-0.5c-0.2,0-0.4,0.2-0.5,0.4c-0.5,1.5-0.9,3-1.1,4.6c-0.1,0.5-0.2,1-0.3,1.5l-9.7-1.6c0.1-0.6,0.1-1.3,0.2-1.8
			c0.2-1.5,0.4-3,0.4-4.5c0-0.3-0.3-0.5-0.5-0.5c-0.2,0-0.4,0.2-0.5,0.4c-0.5,1.5-0.9,3-1.1,4.6c-0.1,0.5-0.2,1-0.3,1.5l-9.7-1.6
			c0.1-0.6,0.2-1.3,0.2-1.8c0.2-1.5,0.4-3,0.4-4.5c0-0.3-0.2-0.5-0.5-0.5c-0.2,0-0.4,0.2-0.5,0.4c-0.5,1.5-0.9,3-1.1,4.6
			c-0.1,0.5-0.3,1-0.3,1.6l-9.7-1.6c0.1-0.6,0.2-1.3,0.2-1.9c0.2-1.5,0.4-3,0.4-4.5c0-0.3-0.2-0.5-0.5-0.5c-0.2,0-0.4,0.2-0.5,0.4
			c-0.5,1.5-0.9,3-1.1,4.6c-0.1,0.5-0.3,1.1-0.3,1.6c-2-0.3-4-0.7-6-1c-1.2-0.2-2.4-0.4-3.6-0.7c0.1-0.6,0.1-1.3,0.2-1.8
			c0.2-1.5,0.4-3,0.4-4.5c0-0.3-0.2-0.5-0.5-0.5c-0.2,0-0.4,0.2-0.5,0.4c-0.5,1.5-0.9,3-1.1,4.6c-0.1,0.5-0.2,0.9-0.3,1.4
			c-3.1-0.7-6.4-1.5-9.6-2c0.1-0.5,0.1-0.9,0.1-1.3c0.2-1.5,0.4-3,0.4-4.5c0-0.3-0.3-0.5-0.5-0.5c-0.2,0-0.4,0.2-0.5,0.4
			c-0.5,1.5-0.9,3-1.1,4.6c-0.1,0.3-0.2,0.7-0.2,1C8.5,28.2,6.7,28,4.9,28C7,19.8,6.8,10,6.2,1.7C13,2.3,19.8,4,26.4,5.1
			c14.6,2.5,29.2,4.9,43.8,7.4c32.9,5.5,65.9,11,98.8,16.5c6.8,1.1,15,3.8,22.3,3.9c-2.2,8.2-1.9,18-1.4,26.3
			c-1.7-0.1-3.4-0.4-5.2-0.6c0.1-0.6,0.2-1.3,0.2-1.9c0.2-1.5,0.4-3,0.4-4.5c0-0.3-0.2-0.5-0.5-0.5c-0.2,0-0.4,0.2-0.5,0.4
			c-0.5,1.5-0.9,3-1.1,4.6c-0.1,0.5-0.3,1-0.3,1.6c-3.2-0.6-6.4-1.2-9.6-1.9c0.1-0.6,0.1-1.2,0.2-1.7c0.2-1.5,0.4-3,0.4-4.5
			c0-0.3-0.3-0.5-0.5-0.5c-0.2,0-0.4,0.2-0.5,0.4c-0.5,1.5-0.9,3-1.1,4.6c-0.1,0.4-0.2,0.9-0.3,1.3c-0.6-0.1-1.1-0.2-1.7-0.3
			C167.2,55.3,164.5,54.9,161.8,54.4z"/>
	</g>
	<g id="组_78" transform="translate(1018.2 1795.924) rotate(-8)">
		<g id="组_76" transform="translate(14.337 9.196)">
			<path id="路径_161" class="st5" d="M287.6,128.5c-3.5-11.5-5.9-23.3-8.7-35c-0.7-3-1.4-6.1-2.1-9.1c-3.5-14.8-7.6-29.5-12.1-44
				c-3.1-12.8-2.2-27.2-7.5-39.3c-0.2-0.4-0.4-0.8-0.6-1.1c-16.8,3.5-33.8,6.6-50.5,10.7c-22.7,5.5-45.4,11.1-68.1,16.6
				C92.4,38.1,46.5,49.3,0.2,56.4C0.1,58.9,0,61.3,0,63.8c7.8,28.6,12,58.3,18.4,87.1c5.5,24.5,14.6,48.3,21.4,72.5
				c1.4-0.2,2.6-0.9,3.5-2c1.2,1.4,3.1,2,4.8,1.4c7.5-2.3,17.1-1.2,24.9-2.6c11.7-2.2,23.4-4.4,35.1-6.3c17.6-2.9,35.1-6.2,52.7-9.7
				c-7.6,2.8-18.6,8.4-26,6.4c-5.8-1.6-7.4,6.5-3.1,9.3c0.1,0.1,0.3,0.1,0.4,0.2c0.3,2.8,2.8,4.9,5.6,4.6c0.3,0,0.5-0.1,0.8-0.1
				c12.4-3,26.3-2.1,38.7-0.1c11.7,1.9,19.1,6.8,28.1,14c0.8,0.6,1.7,1,2.6,1.2c0.7,1.1,1.6,1.9,2.8,2.4c-12.9,3.2-26.8,4.8-39.2,7
				c-16.7,2.9-33.3,4.8-49.3,10.8c-5.5,2.1-2.7,10.4,2.9,8.7c17.8-5.5,36.5-6.4,54.8-9.8c15.3-2.9,37-3.3,50.1-12.2
				c4.7-3.2,1-11.6-4.6-9.3c-2.1,0.9-4.3,1.7-6.5,2.4c0.9-1.5,1.1-3.4,0.4-5.1c-4.8-12.9-11.1-34.1-26.8-37.2c-0.1,0-0.3,0-0.4-0.1
				c21.5-5.1,43.2-11.2,65-13.9c11.7-1.4,29.2-0.9,33.9-14c0.1,0,0.3,0,0.4,0c3.1-0.3,5.4-2.9,5.3-6
				C296.2,151.2,291.1,140.1,287.6,128.5z M237.4,173.7c-24.7,5.1-49.1,11.7-73.8,16.7c-23.5,4.7-47.1,9.3-70.7,13.8
				c-10.4,2-20.8,5-31.3,6.5c-5.9,0.8-12.2,0.6-17.5,3.7c0,0-0.1,0.1-0.1,0.1c-0.6-0.9-1.3-1.7-2.3-2.3c0.7,0.4,1.4,0.9,2.1,1.4
				c-0.4-0.6-0.5-1.4-0.5-2.1c0-1.4-0.9-3.2-1.2-4.5c-1.2-4.3-2.1-8.6-3.1-13c-3.5-15.3-6.3-30.7-9.2-46.1
				c-5.5-28.5-17-56.8-19.5-85.8C27,63,42.7,55.9,59,52.1c21.5-5.1,43.2-8.7,64.6-14.1c22.4-5.6,45-10.5,67.5-15.6
				c17.1-3.8,36.1-5.1,52.9-10.7c7.4,24.6,14.3,49.4,20.1,74.4c3.2,13.9,6,27.9,8.3,42c2,12.4,5.8,24.2,8.4,36.4
				C268.4,171.5,251.2,170.9,237.4,173.7L237.4,173.7z"/>
		</g>
		<path id="路径_162" class="st2" d="M154.2,88.9c-10.8,3.3-22.4,4.8-33,7.1c-17,3.7-34,7.6-51.2,10.5c0.5,4.8,1.2,9.5,2.2,14.2
			c8.2-0.2,18.9-4.9,24-6.4c11.7-3.4,23.5-6.1,35.4-8.2c6-1.1,17.9,0,22.9-4.5c3.5-3.2,2.9-8.4,0.2-12.1
			C154.5,89.2,154.4,89.1,154.2,88.9z"/>
		<path id="路径_163" class="st2" d="M208,116.9c9.5-2.1,19-5,28.6-6.9c-2.6-11.3-4.6-22.7-6.2-34.1c-10.4,2.7-20.9,5.5-31.5,7.5
			c3.1,10.6,5.6,21.3,7.4,32.2C206.8,116.1,207.4,116.6,208,116.9z"/>
		<path id="路径_164" class="st2" d="M222.1,174.6c9.5-2.1,19-5,28.6-6.9c-2.6-11.3-4.6-22.7-6.2-34.1
			c-10.4,2.7-20.9,5.5-31.4,7.5c3.1,10.6,5.6,21.3,7.4,32.2C220.9,173.8,221.5,174.2,222.1,174.6z"/>
		<g id="组_77" transform="translate(0 0)">
			<path id="路径_165" class="st3" d="M316.8,179.4c-0.1-2.5-1.5-5.7-1.9-7c-1.1-3.8-1.6-7.8-2.4-11.8c-1.6-8.5-3.2-17-4.8-25.5
				c-3.3-17-6.7-34-10.3-50.9c-4.8-22.5-9.9-44.9-15.5-67.2c-1.3-4.9-1.3-8.4-3.8-12.9c-3.3-5.9-10-4-15.4-2.8
				c-5.1,1.2-10.7,1.5-15.8,2.7c-12.2,2.8-24.4,5.7-36.6,8.5c-26.3,6.1-52.6,12.4-78.9,18.8c-16.9,4.1-33.8,8.2-50.7,12.4
				C63.7,47.8,46.9,52.1,30,56.4c-5.3,1.4-10.7,2.8-16,4.2c-2.5,0.7-5.2,1.3-7.8,1.9C5,62.8-0.3,63.1,0,65.2c3.2,17,6.4,34,9.6,50.9
				c3.3,17,6.8,34,10.3,50.9c3.6,16.9,7.5,33.8,11.6,50.6c1,4.2,2.2,8.3,3,12.6c0.7,4.4,2,8.6,3.8,12.7c0.6,1.3,1.4,2.5,2.5,3.4
				c1.6,1.3,3.6,1.4,5.5,1.4c2.7,0,5.3-0.4,7.9-1c5.1-1.2,9.9-3.1,15-4.3c12.1-2.8,24.2-5.6,36.3-8.5c12.9-3,25.7-6.1,38.6-9.1
				c-1.3,3.8-1.6,8.7-1.9,11c-0.7,6-1,12.1-0.9,18.2c0,4.2-1.2,8.9,0,12.9c-1.1-0.3-4.2,1.4-5.3,1.8c-1.7,0.5-4.5,0.9-5.5,2.6
				c-2.6,4.1,0.1,12.3,5.3,12.5c3.5,0.1,7.1-1.1,10.6-1.6c5.3-0.8,10.5-1.7,15.7-2.8c10.2-2.1,20.3-4.5,30.4-6.8
				c9.6-2.1,19.4-3.9,29-6.1c4.8-1.1,9.6-2.3,14.3-3.7c4-1.2,11.4-1.5,13.9-5.4c1.4-2.2,0.5-4.3,0-6.5c-1-4.1-2.7-6.7-7.2-6.1
				c-2.3,0.3-4.6,0.4-6.9,0.7c-0.7-4-3.7-7.7-5.4-11.4c-2.5-5.5-5.3-10.9-8.6-16c-1.5-2.3-4.3-7.5-7.6-10.2
				c16.8-4.1,33.7-8.3,50.5-12.6c9.1-2.3,19.9-4.3,28.9-6.8c4.5-1.3,9.6-2.4,14.2-3.3C310.9,184.3,317,184.1,316.8,179.4z
				 M69.1,234.4c-6.4,1.4-18,3.4-25,6.6c-0.4-1.7-0.9-3.4-1.3-4.6c-7.6-25.9-12-54.1-18.2-80.4c-7.1-30-13-59.4-20.3-89.4
				C47.6,57,89.4,47,132.6,37.3c26.4-5.9,52.8-11.7,79.1-17.6c11.7-2.6,23.4-5.2,35.1-7.8c6.5-1.4,17-1.9,24.1-5.1
				c0.4,1.7,0.9,3.4,1.3,4.6c7.6,25.9,13.2,52.6,19.4,78.9c7.1,29.9,14.5,59.8,21.8,89.7c-43,9.6-86.1,19-129.1,28.7
				c-26.2,5.9-52.5,11.8-78.7,17.7C93.5,229,81.3,231.7,69.1,234.4z M192.6,268.3c-18.7,4.3-37.4,8-57.2,13.1
				c-0.2-1.4-0.9-3-1.3-4.4c-0.4-1.7-1.3-3.5-1.4-5.2c20.2-4,37.9-8.1,56.6-12.2c18.8-4.1,36.6-8,56.4-12.9c0.1,0,0.1-0.1,0.2-0.1
				c0.4,1.7,0.7,3.5,0.9,5.2c0.3,1.3,0.3,2.9,0.7,4.2C228.4,257.2,211,264,192.6,268.3L192.6,268.3z M219.3,226.2
				c2.6,5,5,14.9,9.5,20.1c-13.7,2.3-27.3,6-40.7,9.1c-13.4,3.1-27,5.8-40.3,9.5c0.3-8.5-0.1-16.8,0.2-22.7
				c0.2-6.1,0.1-12.5,0.8-18.6c12.3-3,24.6-5.9,37-8.9c8.1-2,16.2-3.9,24.3-5.9C213.5,214.2,216.3,220.4,219.3,226.2L219.3,226.2z"
				/>
			<path id="路径_166" class="st3" d="M294.4,173.1c1.9-1.9,0.4-4.6-0.3-6.6c-3.5-9.4-6.2-19-8-28.8c-3-15.9-6.3-30.9-9.6-46.7
				c-2.5-11.8-3.8-18.1-6.2-29.9c-2.2-11.1-7.2-29.2-9.6-34.4c-2.4-5.1-5.9-8.6-11.4-7.7c-5,0.8-11,2.6-15.9,3.8
				c-10.4,2.4-20.3,3.7-30.7,6.1c-22.5,5.3-45,10.7-67.4,16.2c-37,9.1-74,18.4-110.9,28.1c-0.2,0-0.4,0.1-0.5,0.2
				c-0.5,0.3-0.7,0.8-0.6,1.3c4.9,27,11,53.7,16.6,80.6c3.3,16,6.2,29.5,10.1,45.4c1,4.3,2.2,8.5,3.6,12.6
				c1.2,3.7,1.4,10.6,4.3,13.4c3.2,3,7.1,1.8,11,0.9c4.4-0.9,9.3-1.9,13.7-2.9c10.4-2.4,20.8-4.9,31.2-7.3
				c22.5-5.3,45-10.7,67.4-16.2c33.6-8.2,69.7-16.3,103.2-25.1c2.3-0.6,4.6-1.2,6.9-1.6C292.4,174.4,293.5,173.9,294.4,173.1z
				 M202.6,36.4c10.5-2.4,20.9-4.7,31.4-7c5.4-1.2,13.3-2.2,19.1-4.7c1.3,4.4,2.8,9.4,4,13.9c-17.3,1.2-34.9,7.1-51.8,10.8L144.3,63
				L85.6,76.1C67.2,80.2,47.5,83,29.7,89.7c-1.2-4.8-2.5-9.6-3.7-14.4c36.9-8.1,73.7-16.1,110.6-24.3
				C158.6,46.2,180.6,41.3,202.6,36.4z M113.8,209.9c-10.5,2.4-19.7,4.9-30.2,7.2c-5.4,1.2-15.9,2.5-21.8,5.1
				c-6.8-22.4-10.5-46.6-15.9-69.4c-5-20.8-10.6-41.4-16-62c18.1-1.4,36.2-7,53.9-10.9c20.4-4.6,40.7-9.1,61.1-13.7
				c19.5-4.4,39.1-8.8,58.6-13.1c17.7-4,37.1-6.3,54-12.9c12.2,43.1,21.2,87.6,31.9,131c-36.6,8-73.2,16-109.7,24.1
				C157.8,200,135.8,204.9,113.8,209.9z"/>
			<path id="路径_167" class="st3" d="M36.4,83.8c2.7,1.5,6-0.1,7-2.9c0-0.1,0.1-0.2,0.1-0.3c0.6-2.2-0.5-4.5-2.5-5.4
				c-1.9-0.6-3.9-0.2-5.3,1.2c-1.9,1.9-1.9,4.9,0,6.8C35.8,83.4,36.1,83.6,36.4,83.8z M37.3,78.2c0.7-1,2.1-1.1,3.1-0.4
				c0,0,0.1,0.1,0.1,0.1c0.5,0.4,0.8,1,1,1.6c0.2,0.5,0.1,1.1-0.2,1.6c-0.8,1.1-2.2,1.5-3.5,1c-1.2-0.7-1.6-2.2-1-3.4
				C37,78.6,37.1,78.4,37.3,78.2L37.3,78.2z"/>
			<path id="路径_168" class="st3" d="M55.6,78.1c0-0.1,0.1-0.2,0.1-0.3c0.6-2.2-0.5-4.5-2.6-5.4c-1.9-0.6-3.9-0.2-5.3,1.2
				c-1.9,1.9-1.9,4.9,0,6.8c0.2,0.3,0.5,0.5,0.8,0.7C51.2,82.6,54.6,80.9,55.6,78.1z M49.5,75.5c0.7-1,2.1-1.1,3.1-0.4
				c0,0,0.1,0.1,0.1,0.1c0.5,0.4,0.8,1,1,1.6c0.2,0.5,0.1,1.1-0.2,1.6c-0.8,1.1-2.2,1.5-3.5,1c-1.2-0.7-1.6-2.2-1-3.4
				C49.2,75.9,49.4,75.7,49.5,75.5z"/>
			<path id="路径_169" class="st3" d="M67.8,75.4c0-0.1,0.1-0.2,0.1-0.3c0.6-2.2-0.5-4.5-2.6-5.4c-1.9-0.6-3.9-0.2-5.3,1.2
				c-1.9,1.9-1.9,4.9,0,6.8c0.2,0.3,0.5,0.5,0.8,0.7C63.5,79.8,66.8,78.2,67.8,75.4z M61.8,72.8c0.7-1,2.1-1.1,3.1-0.4
				c0,0,0.1,0.1,0.1,0.1c0.5,0.4,0.8,1,1,1.6c0.2,0.5,0.1,1.1-0.2,1.6c-0.8,1.1-2.2,1.5-3.5,1c-1.2-0.7-1.6-2.2-1-3.4
				C61.4,73.1,61.6,72.9,61.8,72.8z"/>
			<path id="路径_170" class="st3" d="M163.5,126.3c-5.6-0.4-10.8,1.6-16.2,3c-8.7,2.2-17.4,3.9-26.2,5.5
				c-17.9,3.3-35.6,7.2-52.9,13c-0.9,0.3-0.6,1.8,0.3,1.5c15.9-4.8,32.3-8,48.7-10.8c15-2.6,31-8.6,46.1-9.3c0.8,0,1.5-0.6,1.5-1.4
				C164.8,127,164.2,126.4,163.5,126.3z"/>
			<path id="路径_171" class="st3" d="M168,146.7c-5.6-0.4-10.8,1.6-16.2,3c-8.7,2.2-17.4,3.9-26.2,5.5
				c-17.9,3.3-35.6,7.2-52.9,13c-0.9,0.3-0.6,1.8,0.3,1.5c15.9-4.8,32.3-8,48.7-10.8c15-2.6,31-8.6,46.1-9.3c0.8,0,1.5-0.6,1.5-1.4
				C169.4,147.4,168.8,146.7,168,146.7z"/>
			<path id="路径_172" class="st3" d="M172.9,168.3c-5.6-0.4-10.8,1.6-16.2,3c-8.7,2.2-17.4,3.9-26.2,5.5
				c-17.9,3.3-35.6,7.2-52.9,13c-0.9,0.3-0.6,1.8,0.3,1.5c15.9-4.8,32.3-8,48.7-10.8c15-2.6,31-8.6,46.1-9.3c0.8,0,1.5-0.6,1.5-1.4
				C174.2,169,173.6,168.4,172.9,168.3z"/>
			<path id="路径_173" class="st3" d="M152.2,81.9c-3.2,0.6-6.4,1.1-9.6,1.7c-3.9,0.7-7.7,1.5-11.6,2.3c-7.4,1.6-14.7,3.4-22,5.1
				c-9.6,2.1-19.1,4.5-28.7,6.8c-4.9,1.2-9.7,2.3-14.6,3.5c-3.9,0.9-8.7,0.5-8,5.5c0.4,3,0.7,5.9,1.4,8.8c0.6,2.9,1.5,11.6,5.7,10.8
				c6.7-1.3,13.4-2.4,20-3.9c7.6-1.6,15.2-3.5,22.8-5.2c16.7-3.7,33.3-7.9,50-11.9c2.7-0.7,1.5-2.6,1.2-4.6
				c-0.3-2.7-0.7-5.5-1.3-8.2c-0.6-2.6,0.6-10.2-3.2-10.9c-0.6-0.1-1.3,0-1.9,0.1L152.2,81.9z M106.7,113.7
				c-14.2,3.2-29,5.5-42.7,10.4c-0.4-6.5-2.3-13.3-4.5-19.4c16.9-1.9,33.6-6.5,50.1-10.2c14.2-3.2,29-5.5,42.7-10.4
				c0.3,6.5,2.3,13.3,4.4,19.4C140,105.4,123.3,110.1,106.7,113.7z"/>
			<path id="路径_174" class="st3" d="M230.5,65.9c-0.3-0.8-0.9-1.5-1.7-1.8c-1.5-0.4-3.7,0.6-5.1,0.9c-2.2,0.3-4.4,0.8-6.5,1.2
				c-4.3,0.9-8.6,1.9-13,2.9c-6.2,1.3-12.6,1.9-18.5,4.3c-3.3,1.3-3.3,2.9-2.6,6.2c2.8,13.9,5.6,27.5,9.7,41c1.5,4.8,8.7,1,12.3,0.3
				c4.6-0.9,9.2-2.1,13.8-3.1c5.5-1.2,11.1-1.8,16.4-3.5c2.8-0.9,4.5-1.8,4.9-4.9c1-7.3-2.9-14.1-4.5-21.1c-1-4.6-2.1-9.1-3.3-13.6
				C232.1,72.9,231.8,68.4,230.5,65.9z M218.3,114.7c-7.9,1.8-16.1,3.4-23.8,6c0-0.1,0.1-0.1,0.1-0.2c-0.2-7.7-2.4-15.2-4.1-22.7
				c-1.6-7.2-2.6-14.9-5.5-21.7c6.7-0.1,13.4-2.6,19.9-4c7.9-1.8,16.1-3.4,23.8-6c0,0.1-0.1,0.1-0.1,0.2c0.2,7.7,2.4,15.2,4.1,22.7
				c1.6,7.2,2.6,14.9,5.5,21.7C231.5,110.8,224.7,113.2,218.3,114.7z"/>
			<path id="路径_175" class="st3" d="M248.6,144.9c-1-4.5-2.1-9.3-3.3-13.8c-0.7-2.5-1.4-4.9-2.2-7.3c-0.9-2.9-0.9-2.9-3.7-2.6
				c-2.5,0.3-5.1,0.8-7.6,1.2c-5,1-10,2.2-15,3.3c-3.8,0.8-7.6,1.4-11.3,2.2c-2.7,0.6-6.9,0.7-9,2.6c-2.7,2.4-0.5,7.6,0.1,10.4
				c1.5,6.6,2.6,13.2,4.1,19.7c0.7,3.1,1.7,6.2,2.7,9.2c0.9,2.6,1.1,7.6,3.8,9.1c2.4,1.3,6.1-0.6,8.5-1c5.3-1,10.6-2.3,15.9-3.5
				c3.8-0.8,7.7-1.4,11.5-2.2c2.7-0.6,6.1-0.7,8.5-2.3c3-2,1.5-7.2,0.6-9.9C250.6,155.1,249.7,150,248.6,144.9z M231,171.4
				c-7.9,1.8-16.1,3.4-23.8,6c0-0.1,0.1-0.1,0.1-0.2c-0.2-7.7-2.4-15.2-4.1-22.7c-1.6-7.2-2.6-14.9-5.5-21.7
				c6.7-0.1,13.4-2.6,19.9-4c7.9-1.8,16.1-3.4,23.8-6c0,0.1-0.1,0.1-0.1,0.2c0.2,7.7,2.4,15.2,4.1,22.7c1.6,7.2,2.6,14.9,5.5,21.7
				C244.2,167.5,237.4,169.9,231,171.4z"/>
		</g>
	</g>
	<g id="组_82" transform="matrix(0.899, 0.438, -0.438, 0.899, 1173.657, 1584.003)">
		<path id="路径_176" class="st2" d="M80.1,22c-1.9-1.1-3.4-2.8-4.4-4.7c-2.4,2.3-4.7,4.6-6.8,7C61,33,52.8,41.5,44.7,50
			C37.1,58,30,66.2,23,74.7c-2.8,3.5-5.8,6.8-9,9.9c2.3,3.4,5.7,6.1,9.6,7.5c6.8,2.2,10.9-6.9,14.8-11c8.2-8.5,15.8-17.6,23.4-26.6
			c6.9-8.1,14.7-15.4,21.4-23.7c0.6,0.2,1.3,0.3,2,0.2c1.6-0.2,3.2-1.9,2.4-3.6C86.2,24.6,82.6,23.7,80.1,22z"/>
		<path id="路径_177" class="st2" d="M87.7,9.6c0.6,0.9,1.5,1.6,2.4,2.2c2,1.2,5.7,1.6,6.7-1.1c0.5-1.2,0.1-2.7-1-3.5
			c0.5-0.3,1-0.6,1.4-1.1c0.5-0.6,0.7-1.4,0.5-2.1C94.4,6,91.1,7.8,87.7,9.6z"/>
		<path id="路径_178" class="st3" d="M98.8,1.7c-0.2-1-0.8-2-2-1.7c-4.7,1.1-9.2,3-13.7,4.5c-2.5,0.8-5,1.3-7.4,2.4
			c-7.2,3.4-12.3,9.9-17.8,15.4C51.4,28.8,45,35.1,38.9,41.6C32.9,48,27.1,54.5,21,60.9c-4.2,4.4-9.6,8.9-11.4,14.9
			c-0.1,0.3-0.9,0.9-1.1,1.1c-0.4,0.4-0.8,0.9-1.2,1.4c-0.8,0.9-1.4,2-1.9,3.1c-0.2,0.5-0.4,1-0.5,1.6c-0.1,0.3-0.1,0.6-0.1,0.9
			c0,0.3,0,0.6,0,0.9c-0.1,0.1-0.4,0.4-0.6,0.5c-0.2,0.3-0.4,0.5-0.6,0.8c-2.3,3.2-4.3,8.4-3.4,12.3c0.5,2.2,1.9,4.1,3.9,5.2
			c2.8,1.6,6.7,1.5,9.8,0.4c1.8-0.6,5.3-2.2,6.4-4.1c0.6,0.1,1.2,0.1,1.9,0c2.7-0.4,5.1-2.3,6.1-4.9C39.8,85.5,49,72.3,59,61.3
			c5.3-5.9,10.7-11.6,16.2-17.3c3.4-3.6,6.8-7.2,10.2-10.7c1.7-1.9,3.5-3.6,5.5-5.2c1.6-1.2,2-2.3,2.7-4.2c1.5-4,2.2-8.1,3.2-12.2
			c0.8-3.2,2.6-6.1,2.1-9.5C98.8,2,98.8,1.9,98.8,1.7z M94.3,11c-1.2-0.3-2.4-0.7-3.5-1.3c-1.5-1-2.8-2.4-3.6-4.1
			c3-0.8,5.9-1.7,8.9-2.5C95.6,5.7,95,8.4,94.3,11z M86,6c0,2,1.9,3.9,3.3,5.1c1.3,1,2.9,1.7,4.5,2c-1.1,4.1-1.9,8.3-2.4,12.5
			c-4.2,0-8-2.6-10.9-5.5c-2.1-2.1-6.6-7.6-4.7-11C79.4,8.1,82.3,7,86,6z M6.2,100.6c-4.9-2.7-3.3-9.5-1.1-13.8c1.1,3.3,4.2,6,6.8,8
			c1.8,1.5,3.7,2.9,5.7,4.1C14.2,101.2,10.7,102.9,6.2,100.6z M21.6,96.7c-3.6,0.2-5.5-1.6-8.2-3.9c-2-1.7-4.9-5.1-5.3-7.8
			c-0.4-2.6,0.4-4.5,1.7-6.9c0.3,1.4,0.7,2.8,1.3,4.1c1.3,2.7,3,5.1,5,7.3c1.5,1.7,5.9,5.6,9.1,5.9C24.2,96.3,22.9,96.7,21.6,96.7z
			 M74.5,40.8C68.1,47.1,61.8,53.4,55.6,60c-6,6.4-11.3,13.3-17.3,19.6c-4,4-7.8,8.3-11.3,12.8c-0.4,0.5-6.1-3.5-6.7-3.9
			c-2-1.6-3.8-3.5-5.3-5.7c-1.4-2-1.9-4.4-3.4-6.3c11-10.6,20.5-22.4,30.5-33.5c10-11.1,20.4-22.2,31-32.8
			c-1.4,5.7,8.1,16.1,15.1,17.7C83.3,31.5,78.7,36.6,74.5,40.8z"/>
	</g>
	<path id="Icon_awesome-question" class="st7" d="M501.1,1639c-14.8,0-24.3,6-31.8,16.8c-1.4,2-0.9,4.6,1,6.1l8,6
		c1.9,1.5,4.6,1.1,6.1-0.8c4.6-5.8,8.1-9.1,15.3-9.1c5.7,0,12.7,3.7,12.7,9.2c0,4.2-3.4,6.3-9.1,9.5c-6.5,3.7-15.2,8.2-15.2,19.7
		v1.8c0,2.4,2,4.4,4.4,4.4h13.4c2.4,0,4.4-2,4.4-4.4l0,0v-1.1c0-7.9,23.2-8.3,23.2-29.7C533.5,1651.2,516.8,1639,501.1,1639z
		 M499.2,1708c-7.1,0-12.8,5.7-12.8,12.8s5.7,12.8,12.8,12.8s12.8-5.7,12.8-12.8C512,1713.8,506.3,1708,499.2,1708z"/>
</g>
</svg>
