<?xml version="1.0" encoding="utf-8"?>
<!-- Generator: Adobe Illustrator 23.1.1, SVG Export Plug-In . SVG Version: 6.00 Build 0)  -->
<svg version="1.1" id="圖層_1" xmlns="http://www.w3.org/2000/svg" xmlns:xlink="http://www.w3.org/1999/xlink" x="0px" y="0px"
	 viewBox="0 0 449 406" style="enable-background:new 0 0 449 406;" xml:space="preserve">
<style type="text/css">
	.st0{fill:#999999;}
	.st1{fill:none;stroke:#34373D;stroke-width:2.001;stroke-miterlimit:10.0052;}
</style>
<g id="组_25" transform="translate(-817.235 -4335.687)">
	<path id="路径_53" class="st0" d="M847.6,4640c0,0-75.6,57.8,29.8,87.2c0,0,324.9,62.9,339.8-183.9
		c2.1-35.1-19.1-76.2-40.8-101.7c-33.7-39.7-85.2-58.1-135.7-63.9c-26.6-3-54-2.8-79.7,4.5c-62.7,18-107.4,82.3-77.2,145
		C883.8,4527.2,917.3,4573,847.6,4640z"/>
	<path id="路径_51" class="st1" d="M890.6,4606c0,0-75.6,57.8,29.8,87.2c0,0,324.9,62.9,339.8-183.9
		c2.1-35.1-19.1-76.2-40.8-101.7c-33.7-39.7-85.2-58.1-135.7-63.9c-26.6-3-54-2.8-79.7,4.5c-62.7,18-107.4,82.3-77.2,145
		C926.8,4493.2,960.3,4539,890.6,4606z"/>
</g>
</svg>
