<?xml version="1.0" encoding="utf-8"?>
<!-- Generator: Adobe Illustrator 23.1.1, SVG Export Plug-In . SVG Version: 6.00 Build 0)  -->
<svg version="1.1" id="圖層_1" xmlns="http://www.w3.org/2000/svg" xmlns:xlink="http://www.w3.org/1999/xlink" x="0px" y="0px"
	 viewBox="0 0 578 474" style="enable-background:new 0 0 578 474;" xml:space="preserve">
<style type="text/css">
	.st0{fill:#999999;stroke:#999999;stroke-miterlimit:10;}
	.st1{fill:none;stroke:#34373D;stroke-width:2;stroke-miterlimit:10;}
</style>
<g id="组_26" transform="translate(-129.354 -4105.363)">
	<path id="路径_34" class="st0" d="M593.8,4274.1c0,0,98.3-60-24.8-108.6c0,0-382.8-116.8-432,178.2c-7,41.9,13.3,94,36.2,127.5
		c35.5,52,95.1,80.7,155.2,94c31.6,7,64.6,10.2,96.5,4.6c77.7-13.7,139.7-85.4,111.2-164.6C536.1,4405.3,501.6,4345.9,593.8,4274.1z
		"/>
	<path id="路径_52" class="st1" d="M664.8,4243.1c0,0,98.3-60-24.8-108.6c0,0-382.8-116.8-432,178.2c-7,41.9,13.3,94,36.2,127.5
		c35.5,52,95.1,80.7,155.2,94c31.6,7,64.6,10.2,96.5,4.6c77.7-13.7,139.7-85.4,111.2-164.6C607.1,4374.3,572.6,4314.9,664.8,4243.1z
		"/>
</g>
</svg>
