<?xml version="1.0" encoding="utf-8"?>
<!-- Generator: Adobe Illustrator 23.1.1, SVG Export Plug-In . SVG Version: 6.00 Build 0)  -->
<svg version="1.1" id="圖層_1" xmlns="http://www.w3.org/2000/svg" xmlns:xlink="http://www.w3.org/1999/xlink" x="0px" y="0px"
	 viewBox="0 0 445.6 398.8" style="enable-background:new 0 0 445.6 398.8;" xml:space="preserve">
<style type="text/css">
	.st0{fill:#999999;}
	.st1{fill:none;stroke:#34373D;stroke-width:2.001;stroke-miterlimit:10.0052;}
</style>
<g id="组_30" transform="translate(-817.235 -4335.687)">
	<path id="路径_53" class="st0" d="M845.8,4636.3c0,0-75.6,57.8,29.8,87.2c0,0,324.9,62.9,339.8-183.9
		c2.1-35.1-19.1-76.2-40.8-101.7c-33.7-39.7-85.2-58.1-135.7-63.9c-26.6-3-54-2.8-79.7,4.5c-62.7,18-107.4,82.3-77.2,145
		C882,4523.5,915.5,4569.3,845.8,4636.3z"/>
	<path id="路径_51" class="st1" d="M888.8,4602.3c0,0-75.6,57.8,29.8,87.2c0,0,324.9,62.9,339.8-183.9
		c2.1-35.1-19.1-76.2-40.8-101.7c-33.7-39.7-85.2-58.1-135.7-63.9c-26.6-3-54-2.8-79.7,4.5c-62.7,18-107.4,82.3-77.2,145
		C925,4489.5,958.5,4535.3,888.8,4602.3z"/>
</g>
</svg>
