<?xml version="1.0" encoding="utf-8"?>
<!-- Generator: Adobe Illustrator 23.1.1, SVG Export Plug-In . SVG Version: 6.00 Build 0)  -->
<svg version="1.1" id="圖層_1" xmlns="http://www.w3.org/2000/svg" xmlns:xlink="http://www.w3.org/1999/xlink" x="0px" y="0px"
	 viewBox="0 0 220 220" style="enable-background:new 0 0 220 220;" xml:space="preserve">
<style type="text/css">
	.st0{fill:#34373D;stroke:#34373D;}
	.st1{fill:none;}
	.st2{fill:none;stroke:#34373D;stroke-width:3;}
</style>
<g id="组_8" transform="translate(-0.307)">
	<g id="组_6" transform="translate(36.703 43.74)">
		<path id="路径_17" class="st0" d="M1,81.6c0.6-2.7,1-5.6,1.9-8.2c3.3-10,9.9-17.4,18.6-22.9c7.7-4.9,16.5-7.9,25.6-8.5
			c1.4-0.1,1.8-0.6,2-2c1.1-9.2,5.4-17.7,12.2-24.1C69.7,7.5,80.9,2.4,92.9,1.7c14.1-1.3,28.2,2.9,39.3,11.8
			c7.6,5.9,12.9,13.5,14.9,23c2.6,12.1-0.2,23.1-7.9,32.5c-3.2,3.9-3.2,7.6-2.1,11.8c0.7,2.7,2,5.1,4,7.1c1,1.1,1.7,2.2,1,3.7
			c-0.7,1.5-2,1.7-3.5,1.7c-7.5-0.2-14.6-3.1-20.2-8.1c-0.4-0.4-1-0.6-1.6-0.5c-5,1.5-10.1,2.4-15.2,2.7c-0.4,0-0.7,0.1-1.1,0.2
			c-0.4,2.3-0.7,4.6-1.3,6.8c-3.3,12.1-10.9,20.8-21.7,26.8c-11.1,6.2-23,7.7-35.4,5.9c-3.2-0.5-6.3-1.3-9.5-2.1
			c-0.7-0.2-1.4,0-1.9,0.6c-5.6,5-12.8,7.9-20.4,8c-1.4,0.2-2.7-0.5-3.3-1.8c-0.6-1.4,0-2.5,0.9-3.5c3.7-3.9,5.4-9.3,4.5-14.7
			c-0.1-0.8-0.4-1.5-0.9-2.2c-5.7-6.3-9.3-14.2-10.3-22.6c-0.1-0.3-0.1-0.6-0.2-1L1,81.6z M15.9,126.9c0.4-0.1,0.6-0.1,0.8-0.1
			c4.4-1.2,8.5-3.7,11.6-7c0.9-1.1,2.4-1.6,3.7-1c5.1,1.9,10.5,2.9,16,3.2c13.2,0.8,25.1-2.7,35-11.8c15.2-13.9,15.5-35.7,0.8-50
			c-7.6-7.4-17.7-11.9-28.3-12.5c-14.6-1.1-27.5,3-38.1,13.2c-7,6.7-10.9,14.8-10.7,24.6c0.2,8.6,3.5,16.1,9.3,22.4
			c1,1.1,1.6,2.4,1.9,3.8C19,116.8,18.3,122.2,15.9,126.9L15.9,126.9z M100.2,81.8c5.3-0.2,10.5-1.1,15.5-2.9
			c1.9-0.9,4.3-0.4,5.6,1.3c3.2,3.3,7.3,5.6,11.7,6.6c-0.3-0.7-0.5-1.1-0.7-1.6c-1.3-3-1.9-6.2-1.9-9.5c-0.1-3.3,1.1-6.6,3.2-9.2
			c11.7-13.5,11.2-31.6-1-44.6C119.7,7.9,97.1,3.2,79,10.9c-10.3,4.4-18.2,11.4-22.4,22c-1.2,2.8-1.8,5.8-2,8.8
			c0.6,0.1,1,0.2,1.5,0.2c6.4,0.5,12.7,2.2,18.6,4.9c0.8,0.4,1.7,0.6,2.6,0.6c14.5,0,29.1,0,43.6,0c0.5,0,1,0,1.4,0
			c1.6,0.1,2.8,1.5,2.6,3.1c-0.1,1.4-1.2,2.5-2.6,2.6c-0.5,0-1,0-1.4,0H84.7C93.7,60.8,99.1,70,100.2,81.8z"/>
		<path id="路径_18" class="st0" d="M50.6,99.1c-7.6,0-15.1,0-22.7,0c-0.5,0-1,0-1.4,0c-1.6-0.2-2.7-1.6-2.5-3.2
			c0.2-1.3,1.2-2.3,2.5-2.5c0.4,0,0.9,0,1.3,0c15.2,0,30.5,0,45.7,0c0.4,0,0.9,0,1.3,0c1.6,0.2,2.7,1.6,2.5,3.2
			c-0.2,1.3-1.2,2.4-2.5,2.5c-0.5,0-1,0.1-1.4,0C65.8,99.1,58.2,99.1,50.6,99.1z"/>
		<path id="路径_19" class="st0" d="M56.4,76.1c5.7,0,11.5,0,17.2,0c0.4,0,0.9,0,1.3,0c1.6,0.2,2.7,1.6,2.5,3.2
			c-0.2,1.3-1.2,2.3-2.4,2.4c-0.4,0-0.8,0.1-1.1,0c-11.6,0-23.1,0-34.7,0c-0.2,0-0.4,0-0.6,0c-1.6,0.1-3-1.2-3-2.8
			c0-0.1,0-0.1,0-0.2c0-1.6,1.3-2.8,2.9-2.8c0,0,0.1,0,0.1,0c2.1,0,4.1,0,6.2,0L56.4,76.1z"/>
		<path id="路径_20" class="st0" d="M29.7,78.9c0,1.6-1.2,2.9-2.8,2.9c-1.6,0-2.9-1.2-2.9-2.8s1.2-2.9,2.8-2.9c0,0,0,0,0.1,0
			C28.4,76.1,29.6,77.4,29.7,78.9z"/>
		<path id="路径_21" class="st0" d="M104.2,30.2c5.8,0,11.6,0,17.3,0c0.9,0,1.8,0.2,2.5,0.8c0.6,0.8,0.9,1.8,0.8,2.8
			c-0.2,1.1-1.1,2-2.3,2.1c-0.5,0.1-1,0.1-1.4,0c-11.4,0-22.7,0-34.1,0c-0.3,0-0.7,0-1,0c-1.6,0-2.9-1.3-2.9-2.9c0,0,0,0,0,0
			c0-1.6,1.3-2.8,2.9-2.8c0,0,0,0,0,0c2.7-0.1,5.4,0,8.2,0L104.2,30.2z"/>
		<path id="路径_22" class="st0" d="M77.4,33c0,1.6-1.2,2.9-2.8,2.9c-1.6,0-2.9-1.2-2.9-2.8s1.2-2.9,2.8-2.9c0,0,0,0,0.1,0
			C76.1,30.2,77.3,31.4,77.4,33z"/>
	</g>
	<g id="椭圆_10" transform="translate(0.307)">
		<ellipse class="st1" cx="110" cy="110" rx="109" ry="108.5"/>
		<ellipse class="st2" cx="110" cy="110" rx="107.5" ry="107"/>
	</g>
</g>
</svg>
