<?xml version="1.0" encoding="utf-8"?>
<!-- Generator: Adobe Illustrator 23.1.1, SVG Export Plug-In . SVG Version: 6.00 Build 0)  -->
<svg version="1.1" id="圖層_1" xmlns="http://www.w3.org/2000/svg" xmlns:xlink="http://www.w3.org/1999/xlink" x="0px" y="0px"
	 viewBox="0 0 174 60" style="enable-background:new 0 0 174 60;" xml:space="preserve">
<style type="text/css">
	.st0{fill:#231815;}
	.st1{fill:#87817F;}
	.st2{fill:#FEFEFE;}
</style>
<g>
	<path class="st0" d="M21.7,15.7c-3.8,1.6-7.9,2-11.8,2.9C8.5,19,7,19.3,5.7,20c-0.8,0.4-1,0.9-0.1,1.4c2.6,1.5,5.3,2.8,8.4,3.2
		c1.6,0.2,2.4,1,2.1,2.3c-0.2,1-0.8,1.7-1.9,1.5C9.9,28,5.9,26.6,2.6,23.8c-1.7-1.5-1.8-3.7-0.4-5.6c1.1-1.5,2.8-2.1,4.4-2.6
		c3.3-1.1,6.7-1.3,10-2.2c1.7-0.4,3.4-1,5-1.9c0.7-0.4,1-0.8,1.1-1.7c0.1-2,0.3-4,0.5-6.1c0.1-1,0.2-2.1,1.3-2.4
		c1.3-0.4,2.5-0.2,3.4,0.8c1.5,1.6,1.9,3.5,1.5,5.5c-0.3,1.8-1.3,3.3-2.6,4.6c-0.4,0.4-0.8,0.9-0.8,1.5c-0.8,8.2-1.9,16.4-3.1,24.8
		c1.7-0.4,3.4-0.8,5.1-1.1c4.4-0.8,8.9-0.8,13.4-0.5c1.7,0.1,1.7,0.1,1.6-1.6c-0.2-3.6,1.5-6.4,4.5-7.8c2.2-1,4.3-1,6.2,0.6
		c1.9,1.6,2.2,3.7,1.7,6c-0.7,3.3-2.8,5.2-6.8,6.5c0.8,1.9,2,2.5,4.1,1.9c3.2-1,6-2.7,8.9-4.3c1.8-1,3.4-2.3,5-3.6
		c2.8-2.3,5.7-2.6,8.8-0.8c4.2,2.4,8.6,2,13,1.1c4.4-0.9,8.6-2.2,13.1-2.8c5.9-0.8,11.7-0.5,17.5,0.2c7.6,0.9,15,2.4,22.6,3.1
		c8,0.8,15.9,0.8,23.5-2c1.6-0.6,3.2-1.3,4.7-2.1c1.3-0.7,2.4-0.4,3,0.7c0.5,1.1,0.2,2-1.1,2.7c-6.3,3.4-13,4.8-20.1,5
		c-7.4,0.2-14.6-0.9-21.9-2c-7.8-1.2-15.5-2.4-23.4-2c-4.8,0.2-9.5,1.3-14.2,2.5c-3.6,0.9-7.2,1.6-11,1.4c-2.7-0.2-5.2-0.9-7.5-2.2
		C71.6,36,71,36,69.2,37.4c-4.5,3.5-9.3,6.4-14.7,8.4c-0.8,0.3-1.6,0.5-2.4,0.6c-3,0.4-5.3-0.8-6.5-3.4c-0.9-1.8-1.9-2.3-3.8-2.4
		c-6.2-0.4-12.3-0.1-18.2,1.8c-0.8,0.3-1.3,0.6-1.4,1.6c-0.4,2.7-0.7,5.4-1.6,8c-0.8,2.4-2.1,4.4-4.2,5.7c-2.4,1.5-4.9,1.9-7.4,0.3
		c-2.5-1.5-3.1-4-2.8-6.7c0.2-2.4,1.5-4.3,3.2-5.8c2.4-2.2,5.3-3.6,8.3-4.8c1.1-0.4,1.5-1,1.6-2.1c1-7.3,2-14.6,2.8-21.9
		C22.1,16.2,22.3,15.8,21.7,15.7z"/>
	<path class="st1" d="M21.7,15.7c0.1-0.2,0.3-0.2,0.4-0.1c0.2,0.3,0.1,0.6-0.1,0.9C21.9,16.3,22.1,15.9,21.7,15.7z"/>
	<path class="st2" d="M18.3,44.4c-0.5,2.7-0.8,5.2-1.9,7.6c-0.6,1.3-1.5,2.3-2.9,2.8c-2.3,0.8-4-0.6-3.7-3c0.2-1.7,1.2-2.9,2.5-3.9
		C14.1,46.5,16,45.5,18.3,44.4z"/>
	<path class="st2" d="M51.8,32.7c-0.1,2.1-2.2,4-4.3,4.1c-0.3,0-0.4-0.1-0.5-0.3c-0.9-1.9,0.2-4.8,2.1-5.6
		C50.7,30.2,51.9,31,51.8,32.7z"/>
</g>
</svg>
