<?xml version="1.0" encoding="utf-8"?>
<!-- Generator: Adobe Illustrator 23.1.1, SVG Export Plug-In . SVG Version: 6.00 Build 0)  -->
<svg version="1.1" id="圖層_1" xmlns="http://www.w3.org/2000/svg" xmlns:xlink="http://www.w3.org/1999/xlink" x="0px" y="0px"
	 viewBox="0 0 321.7 432" style="enable-background:new 0 0 321.7 432;" xml:space="preserve">
<style type="text/css">
	.st0{fill:#999999;stroke:#999999;stroke-width:1.0001;stroke-miterlimit:10.0012;}
	.st1{fill:none;stroke:#34373D;stroke-width:2.0002;stroke-miterlimit:10.0012;}
	.st2{fill:#999999;}
	.st3{fill:#34373D;}
	.st4{fill:#DBD9D7;}
	.st5{fill:#FFFFFF;}
	.st6{fill:#FFC72C;}
	.st7{fill:#34373D;stroke:#34373D;stroke-miterlimit:10;}
</style>
<g id="组_100" transform="translate(-27.597 -791.533)">
	<g id="组_90" transform="matrix(0.966, 0.259, -0.259, 0.966, 41.788, 752.225)">
		<path id="路径_34" class="st0" d="M140.7,66c0,0,27.1-16.6-6.9-30c0,0-105.6-32.3-119.2,49.2c-1.9,11.6,3.7,26,10,35.2
			c9.8,14.4,26.3,22.3,42.8,26c8.7,1.9,17.8,2.8,26.6,1.3c21.4-3.8,38.5-23.6,30.7-45.5C124.8,102.2,115.2,85.8,140.7,66z"/>
		<path id="路径_52" class="st1" d="M159.4,57.8c0,0,27.1-16.6-6.9-30c0,0-105.6-32.3-119.2,49.2c-1.9,11.6,3.7,26,10,35.2
			c9.8,14.4,26.3,22.3,42.8,26c8.7,1.9,17.8,2.8,26.6,1.3c21.4-3.8,38.5-23.6,30.7-45.5C143.5,94,134,77.6,159.4,57.8z"/>
	</g>
	<g id="组_92" transform="matrix(0.883, -0.469, 0.469, 0.883, 59.351, 1120.644)">
		<path id="路径_99" class="st2" d="M51.9,23.9c-0.5,0.4-1,0.9-1.5,1.4c0.1-0.5,0.3-1,0.5-1.4c0.2,0,0.4,0,0.7-0.1
			c-1.3-0.4-2.6-0.7-3.9-0.9c-1.2,2.7-1.4,5.7-0.7,8.5c0.8,2.1,2.7,3,4.9,3c4,0,7.4-2.5,11.1-1.3c0.1,0.3,0.3,0.6,0.4,0.8
			c0.4,0.7,1.3,0.8,2,0.4c0,0,0.1-0.1,0.1-0.1c0.3,0,0.5,0,0.8-0.1C63.1,29,57.9,25.7,51.9,23.9z M52.1,30.9c-1.1,0.1-2-0.7-2-1.8
			c0-0.1,0-0.2,0-0.3c0.3,0,0.5,0,0.8-0.1c0,0.8,0.5,1.6,1.3,1.8C52.1,30.8,52.1,30.9,52.1,30.9z"/>
		<path id="路径_100" class="st3" d="M62.1,22.3c-3.6-2.9-8.5-3.5-12.7-1.6c0-0.1-0.1-0.2-0.2-0.4c-0.8-1.1-2.5-1.6-3.7-2.1
			c-0.7-0.4-1.5-0.6-2.3-0.7c-0.5-0.1-1,0.1-1.4,0.3c-0.1,0.1-1,0.8-1,0.8c-5.6-4.4-11.5-8.5-17.7-12C18.2,4,12.9,2,7.4,0.7
			C5.5,0.3,1.2-1.1,0.2,1.7c-1.5,4,8.5,8.5,10.9,9.8C19.3,16,29,20.9,38.2,23c-0.2,0.7,0,1.4,0.4,2c0.8,0.7,1.8,1.4,2.8,1.8
			c1.4,0.7,2.8,1.2,4.3,1.5c-0.6,2.9,1.5,5.6,4.4,6.5c2.3,0.7,4.1-0.1,6.4-0.6c2.4-0.5,4.9-0.3,7.2,0.7c0.5,0.2,1,0.5,1.5,0.8
			c0.5,0.2,1,0.5,1.4,0.8c0.3,0.3,0.8,0.2,0.8-0.3C67.6,31.2,66.1,25.8,62.1,22.3z M30.1,18.5c-4.3-1.6-8.5-3.5-12.6-5.5
			c-3.2-1.6-6.4-3.1-9.4-4.9c-1-0.6-1.9-1.2-2.9-1.8C4.6,5.8,4,5.4,3.5,4.9c-1.1-1-1.8-1.1-0.6-2.4C5.3,0.1,14.3,4.1,17,5.3
			c3.3,1.5,6.6,3.2,9.7,5.1c4.7,2.8,9.1,5.9,13.7,8.7c-0.7,0.6-1.3,1.4-1.7,2.2c-0.1,0.2-0.2,0.4-0.2,0.6
			C35.8,20.5,33,19.4,30.1,18.5z M40.4,24.5c-0.6-1.8,0.9-4.3,2-5.8c1.6,0.4,5.5,1.3,5.8,2.6c0.2,0.7-0.9,2.2-1.2,2.9
			c-0.4,0.9-0.8,1.9-1.2,2.8C44.2,26.8,41,26.2,40.4,24.5z M61.9,32.2C57,31.3,46.9,36.7,47,28c0.2-0.6,0.6-1.2,0.9-1.8
			c1.3,0.9,2.8,1.6,4.2,2.4c1.2,0.9,2.5,1.6,3.9,2.3c0.2,0.1,0.3-0.2,0.2-0.3c-1.1-1-2.3-1.9-3.6-2.7c-1.4-0.8-3-1.4-4.4-2.3
			c0.1-0.2,0.2-0.4,0.2-0.7c5.1,0.2,8.9,2.5,13.3,4.7c0.1,0.1,0.2,0,0.3-0.1c0-0.1,0-0.2,0-0.2c-3.2-3.5-8.7-5-13.3-5.1
			c0.1-0.3,0.2-0.6,0.3-0.8c0.1-0.2,0.2-0.4,0.3-0.6c0,0.1,0.1,0.1,0.2,0.1c4.3,0.2,8.7,0.6,12.1,3.5c0.2,0.1,0.5,0,0.4-0.2
			c-1.4-4.1-9.2-3.8-12.4-3.7c0,0,0,0,0,0c0.2-0.4,0.3-0.9,0.3-1.3c5,0.1,9.6-0.2,13,4.2c2,2.6,2.4,5.6,3.2,8.5
			C64.6,33,63.3,32.5,61.9,32.2L61.9,32.2z"/>
	</g>
	<g id="组_91" transform="matrix(0.883, -0.469, 0.469, 0.883, 52.175, 1164.449)">
		<path id="路径_101" class="st4" d="M13.2,29.6c-1.7,1.3-2.8,3.2-3.3,5.4c0.8,1.3,1.9,2.3,3.3,2.9c2.7,1.2,7.7,0.7,8.2-2.9
			c0.4-0.1,0.8-0.4,0.9-0.8c0.6-1.2,0.7-2.5,0.5-3.8C21.1,27.8,15.3,28.1,13.2,29.6z"/>
		<path id="路径_102" class="st2" d="M27.1,44c-2.8-1.2-5.2,0.8-6.6,4c-1,2.2-1.5,4.6-1.4,7.1c1.9,1.5,4.5,1.7,6.6,0.5
			c2.2-1.4,3.6-3.7,3.9-6.2C29.7,47.3,28.8,45.2,27.1,44z"/>
		<path id="路径_103" class="st4" d="M47.9,48.5c-0.5-1.6-1.7-3-3.2-3.7c-0.5-0.6-1.2-1-1.9-1.3c-4.1,2.5-4.8,8.1-4,12.8
			c2.3,1,4.9,0.9,7-0.5C48,54.1,48.9,51.1,47.9,48.5z"/>
		<path id="路径_104" class="st2" d="M56.4,30.2c-0.1-0.2-0.2-0.3-0.3-0.4c-2.5-0.2-4.9,1.3-6.6,3.2c-2.2,2.5-2.8,5.5-0.9,8.2
			c0.1,0.1,0.2,0.1,0.3,0.2c2.3,1.3,5.2,1,7.3-0.7c2.1-1.9,3-4.8,2.2-7.5C58.1,32,57.4,30.9,56.4,30.2z"/>
		<g id="组_65" transform="translate(0 0)">
			<path id="路径_105" class="st3" d="M68.2,29.3c-1-5.7-3.9-13.1-10.8-13.2c-4.7-0.1-8.9,3-13.6,2.9c-6.4-0.1-6.3-6.7-7.5-11.3
				c-0.7-2.8-2.3-5.6-5-6.9C28-0.8,24.1,0.2,20.9,1.6c-3.4,1.3-6.6,3.2-9.5,5.6C6.4,11.6,2.8,17.5,1.1,24C0.4,26.7,0,29.5,0,32.3
				C-0.1,39.6,1.2,46,5.7,51.8c4.9,6.3,11.6,11,19.2,13.4c6.8,2.1,14.8,2.5,21.6,0c6.5-2.4,12-8.4,15.9-13.9
				C67,44.8,69.6,37.2,68.2,29.3z M65.5,41.5c-2.2,7-7.2,13.1-12.7,17.8c-5.6,4.8-12.5,6.4-19.8,5.8C18.2,63.7,3.6,52.8,2,37.6
				C1.2,30,2.1,22,6.1,15.4C10.2,9,16.5,4.3,23.8,2c0.1,0,0.2-0.1,0.4-0.1c2.9-0.8,6.5-0.4,8.6,2c1.9,2.2,2.1,5.8,2.6,8.5
				c0.8,3.7,2.2,7.3,6.2,8.1c6,1.3,11.7-4.1,17.4-2.5C67.5,20.4,67.5,35.1,65.5,41.5z"/>
			<path id="路径_106" class="st3" d="M20,24.7c-2.2-0.8-4.6-1-6.9-0.4c-2.6,0.8-4,2.7-4.9,5.2c-0.7,2.1-0.5,4.3,0.5,6.2
				c2.6,4.3,8.8,4.9,12.3,1.4C24.5,33.9,25.1,26.6,20,24.7z M19.5,36.6c-2,1.6-4.8,1.9-7.1,0.8c-2.2-1-3.5-3.3-3.4-5.7
				c0.1-1.7,0.8-3.4,2.1-4.5c2-1.5,4.6-1.9,7.1-1.2c2.6,0.6,4.1,1.9,4,4.7C22.2,32.9,21.2,35.1,19.5,36.6z"/>
			<path id="路径_107" class="st3" d="M16.2,54.2c1.8,1.5,4,2.5,6.3,2.7c2.7,0.2,4.7-1.2,6.3-3.3c1.4-1.7,2-3.9,1.6-6.1
				c-0.9-4.9-6.6-7.6-11.1-5.5C15.1,44,12,50.6,16.2,54.2z M20.7,43.2c2.4-0.8,5.1-0.2,6.9,1.7c1.7,1.7,2.2,4.3,1.3,6.5
				c-0.7,1.6-1.9,2.9-3.5,3.5c-2.4,0.7-5,0.2-7.1-1.2c-2.3-1.4-3.2-3.2-2.2-5.8C16.9,45.7,18.6,44,20.7,43.2z"/>
			<path id="路径_108" class="st3" d="M49.3,51.8c0-2.3-0.7-4.6-2.1-6.5c-1.6-2.2-3.9-2.8-6.6-2.7c-2.2,0-4.3,1-5.7,2.7
				c-3.2,3.9-1.5,9.9,3,12C42.2,59.2,49.3,57.3,49.3,51.8z M38,55.5c-2.2-1.3-3.5-3.8-3.3-6.4c0.2-2.4,1.8-4.5,4.2-5.2
				c1.6-0.5,3.4-0.4,5,0.4c2.1,1.4,3.4,3.7,3.6,6.2c0.4,2.7-0.4,4.5-3,5.4C42.4,56.7,40,56.6,38,55.5z"/>
			<path id="路径_109" class="st3" d="M55.2,27.2c-2.3-0.4-4.7,0-6.8,1c-2.4,1.3-3.4,3.4-3.7,6.1c-0.3,2.2,0.3,4.4,1.8,6
				c3.4,3.7,9.6,3.1,12.3-1.1C61.4,35.4,60.6,28.1,55.2,27.2z M57,39c-1.7,2-4.3,2.8-6.8,2.2c-2.3-0.6-4.1-2.5-4.5-4.9
				c-0.3-1.7,0.2-3.5,1.2-4.8c1.7-1.8,4.2-2.8,6.7-2.6c2.7,0,4.4,1.1,4.9,3.8C58.9,34.8,58.4,37.2,57,39L57,39z"/>
		</g>
	</g>
	<path id="Icon_awesome-question" class="st5" d="M98.3,829.5c-6.8,0-11.2,2.8-14.7,7.8c-0.6,0.9-0.4,2.1,0.4,2.8l3.7,2.8
		c0.9,0.7,2.1,0.5,2.8-0.4c2.1-2.7,3.7-4.2,7.1-4.2c2.6,0,5.9,1.7,5.9,4.2c0,1.9-1.6,2.9-4.2,4.4c-3,1.7-7,3.8-7,9.1v0.8
		c0,1.1,0.9,2.1,2.1,2.1h6.2c1.1,0,2.1-0.9,2.1-2.1v-0.5c0-3.7,10.7-3.8,10.7-13.7C113.3,835.1,105.5,829.5,98.3,829.5z M97.4,861.4
		c-3.3,0-5.9,2.7-5.9,5.9s2.7,5.9,5.9,5.9s5.9-2.7,5.9-5.9l0,0C103.3,864.1,100.7,861.4,97.4,861.4z"/>
	<g id="组_87" transform="translate(265.161 1033.227) rotate(7)">
		<path id="路径_110" class="st2" d="M57.9,13.8c-0.1-3.4,0.1-9.2-4.3-9C46.6,5.1,39.1,7.6,32.2,9c-0.5,0.1-0.9,0.5-0.9,1.1
			c-2.1,0.2-4.1,0.6-6.1,1.3c-0.3-0.6-1.1-0.9-1.8-0.6c-5.9,2.4-12.5,2.7-18.7,4.1c-0.5-1.5-3.2-1.1-2.9,0.6
			c0.6,3.2,0.5,6.5,1.4,9.6c0.3,0.9,1.3,1.4,2.2,1.1c0.1,0,0.3-0.1,0.4-0.2c2.9-2.4,7.3-1.9,10.9-2.4c0.7-0.1,1.3-0.6,1.5-1.3
			c0.5-3.3,3.1-5.5,6-6.9c-0.1,0.1-0.1,0.1-0.1,0.2c-3,1.6-5.1,4.4-6,7.7c-0.9,3.6-1.2,8.3,0.7,11.7c3.5,6.7,13.1,8,19.4,4.8
			c6.9-3.5,9.8-12.9,5.2-19.4c-3-4.2-9.5-7.2-14.9-6.5c1.5-0.4,3.1-0.6,4.7-0.6c3.4,0.1,4.9,1.4,7.2,3.7c2.6,2.6,4.9,1.8,8.4,1.4
			c3-0.4,6.3-0.3,8.6-2.5c0.4-0.3,0.5-0.9,0.3-1.3C57.9,14.2,57.9,14,57.9,13.8z M39.7,20.9c4.9,4.7,2.6,13.1-3.2,15.9
			C32,39,24.7,38.3,21.9,33.5c-1.5-2.6-1.1-6.9-0.4-9.6c0.7-2.6,2.4-4.9,4.8-6.3C30.6,16.1,36.4,17.7,39.7,20.9z M48,14.7
			c-0.9,0.3-1.9,0.4-2.9,0.5c-0.8,0-1.2,0.1-1.6-0.2c0.1-0.7,0-1.3-0.2-2l-0.1-0.3c1.6-0.5,3.3-0.9,5-1.1c1-0.2,1.6-0.4,2.1,0.5
			c0.4,0.8-0.2,1,0.2,1.8C49.7,14.1,48.8,14.6,48,14.7L48,14.7z"/>
		<g id="组_67" transform="translate(0 0)">
			<path id="路径_111" class="st3" d="M63.8,42c0-0.3-0.1-0.5-0.1-0.8c-0.1-1.5-0.1-3-0.2-4.5c-0.2-3.7-0.6-7.5-1.3-11.1
				c-1.4-7-2.9-14.2-4.7-21c-0.2-0.6-0.8-0.6-1.3-0.6c-3.7,0-7.2,0.8-10.8,1.4c-2.3,0.4-4.5,0.8-6.8,1.2C37.9,5.7,37,5.2,36,5.1
				c-0.2-1.6-0.5-3.1-1-4.6c-0.1-0.3-0.4-0.5-0.7-0.4c-4.9,0.9-10,1.5-14.9,2.9C19.1,3,18.9,3.3,19,3.6c0.4,1.4,0.6,2.8,0.8,4.2
				c-1,0.5-1.8,1.3-2.3,2.2c-0.9,0.2-1.9,0.4-2.8,0.5c-0.1-1.2-0.5-2.3-1.1-3.4C12.6,5.7,11,6,9.4,6.3C8,6.5,6.6,7,5.3,7.5
				C4.6,7.7,4,8,3.5,8.5c-0.8,1.1,0,3,0.5,4.4c-1.1,0.3-2.2,0.5-3.3,0.8c-0.2-0.1-0.4,0-0.5,0.2c0,0.1,0,0.1,0,0.2
				c-0.3,0.4-0.2,1,0.2,1.4c0.8,5.4,0.5,11,1.6,16.5c1.4,7,2.9,14.2,4.7,21c0.3,1,2.1,0.7,2.8,0.7c3.2-0.2,6.2-0.9,9.4-1.4
				c4.2-0.7,8.4-1.5,12.7-2.2c5.5-0.9,10.9-1.8,16.3-2.8c2.3-0.4,4.6-0.9,6.9-1.4c2.3-0.5,4.7-0.7,7-1.2c0.5-0.1,1.1-0.3,1.5-0.5
				C64,43.5,63.9,42.8,63.8,42z M55.6,5.3c0.3,3.4,0.8,6.8,1.6,10.2c-3.2-0.3-7.1,0.8-10,1.3c-1.6,0.3-3.2,0.6-4.8,0.8
				c-0.7-0.5-1.3-1.1-1.9-1.7c-0.7-0.5-1.5-1-2.2-1.5c-1.6-0.9-3.3-1.4-5.1-1.7c-6.6-0.8-12.9,2.9-15.4,9.2c-4.9,0.9-9.8,2-14.6,3.2
				c-0.3-2.1-0.6-4.1-0.8-6.2c-0.1-1.1-0.3-2.3-0.5-3.4c10.4-0.8,20.8-4,31.1-5.7c3.7-0.6,7.4-1.4,11.1-2.2
				C47.9,6.9,51.9,6.5,55.6,5.3z M23.9,15.9c1.2-0.8,2.6-1.3,4-1.6c2.1-0.5,4.3-0.5,6.3,0.1c2.9,1,5.4,2.7,7.4,5
				c6.1,6.9,2.9,18.1-5.6,21c-7.6,2.6-16.3-1.6-18-9.7C16.9,25,19.2,18.9,23.9,15.9L23.9,15.9z M20.6,5.3c0-1.6-0.3-1.2,1.2-1.7
				C23,3.2,24.3,3,25.5,2.8c2.1-0.4,4.3-0.8,6.4-1.2c1.3-0.2,1.7-0.5,2.3,0.6c0.4,0.9,0.6,1.8,0.6,2.7c-3-0.2-6.8,0.8-8.7,1.2
				c-1.9,0.3-3.7,0.7-5.5,1.4C20.6,6.8,20.7,6,20.6,5.3z M25.4,7.3C28,6.9,34,4.9,36.8,6.8c-1.4,0.2-2.8,0.5-4.1,0.7
				C28,8.3,23.2,9.1,18.4,9.9C20.1,8.2,23.2,7.7,25.4,7.3z M4.5,10.4c0-1.4,0.5-1.5,1.7-1.9c0.8-0.3,1.6-0.5,2.4-0.7
				c1.8-0.5,3.4-0.8,4.2,1.2c0.2,0.7,0.4,1.3,0.4,2c-2.9,0.6-5.7,1.2-8.5,1.8C4.8,11.9,4.5,11.2,4.5,10.4z M31.1,47.6
				c-3.7,0.6-7.4,1.4-11.1,2.2c-3.8,0.8-7.8,1.2-11.5,2.4c-0.5-7.4-2.9-14.4-4.3-21.6c-0.2-1.2-0.4-2.3-0.6-3.5c4.5-0.4,9-1,13.4-2
				c-0.4,1.9-0.5,3.8-0.2,5.8c1.5,8.9,11,13.7,19.3,11.2c7.8-2.4,12.3-10.6,9.9-18.5c-0.2-0.8-0.6-1.6-0.9-2.4
				c-0.3-0.6-0.6-1.1-1-1.7l2.1-0.4c3.8-0.8,7.8-1.2,11.6-2.4c0.8,3.4,1.7,6.7,2.4,10.1c0.8,3.8,1.2,7.7,1.7,11.6
				c0.1,1.1,0.3,2.3,0.5,3.4C51.8,42.7,41.4,45.9,31.1,47.6z"/>
			<path id="路径_112" class="st3" d="M35.1,38.4c5.8-1.9,9-8.2,7.1-14c-0.2-0.5-0.3-0.9-0.6-1.4c-3.2-6.6-12.3-8.8-17.8-3.7
				c-2.7,2.7-4,6.5-3.6,10.2C21.1,36.7,28.7,40.5,35.1,38.4z M26,19c4.4-2.1,9.6-1,12.8,2.7c3.4,4,2.8,10-1.2,13.4
				c-0.8,0.6-1.6,1.2-2.6,1.5c-5.3,2-11.6-0.7-13.2-6.4c-0.9-3.3-0.1-6.8,2-9.5C24.5,20.1,25.2,19.5,26,19z"/>
			<path id="路径_113" class="st3" d="M25.1,26.3c0.9-1.2,1-2.6,2.1-3.7c1.2-1.2,2.7-1,4.1-1.5c0.1,0,0.2-0.2,0.2-0.3
				c0-0.1-0.1-0.1-0.2-0.2c-1.7-0.8-3.6-0.6-5.2,0.4c-1.3,1-2.8,3.2-2.7,4.9c0,0.5,0.4,0.9,0.9,0.8C24.7,26.7,24.9,26.5,25.1,26.3z"
				/>
			<path id="路径_114" class="st3" d="M32.5,35.1c2-0.3,3.8-1.4,4.9-3.1c1-1.4,2.1-4,0.5-5.4c-0.1-0.1-0.3-0.1-0.4,0
				c0,0-0.1,0.1-0.1,0.1c-0.4,1.5-0.3,2.9-1.1,4.3c-0.9,1.6-2.2,2.7-3.9,3.4C32,34.5,32.1,35.1,32.5,35.1z"/>
			<path id="路径_115" class="st3" d="M42.5,13.2c0.1,0.7,0.1,1.4,0.2,2.1c0,0.3,0.3,0.6,0.6,0.6c0,0,0.1,0,0.1,0
				c1.2,0,2.4-0.2,3.5-0.4c1.3-0.2,2.6-0.5,3.9-0.9c0.2-0.1,0.4-0.3,0.3-0.6c0.1-0.1,0.2-0.3,0.1-0.5c-0.1-0.8-0.3-1.6-0.8-2.3
				c-0.1-0.1-0.3-0.2-0.4-0.1c-0.1,0-0.1,0-0.2,0c-1.3,0.4-2.6,0.7-3.9,0.9c-1.1,0.1-2.2,0.4-3.2,0.8c-0.1,0-0.2,0.1-0.2,0.2
				C42.4,12.8,42.4,13,42.5,13.2C42.5,13.1,42.5,13.1,42.5,13.2z M46.2,12.8c1.3-0.2,2.5-0.5,3.7-0.9c0,0.5,0.1,1.1,0.1,1.6
				c0,0,0,0.1,0,0.1c-1.1,0.3-2.3,0.6-3.4,0.7c-0.9,0.1-1.9,0.3-2.8,0.6c-0.1-0.6-0.2-1.2-0.5-1.8C44.3,13.1,45.3,13,46.2,12.8
				L46.2,12.8z"/>
		</g>
	</g>
	<g id="组_88" transform="translate(283.609 1106.551) rotate(18)">
		<path id="路径_116" class="st2" d="M51.4,32.1c0.1,0,0.1,0,0.2,0c2.8,3.4,8.1,2.1,11.2-0.4c3.2-2.6,4.9-8.4,2.2-11.9
			C60.7,24.2,56.2,28.4,51.4,32.1z"/>
		<path id="路径_117" class="st4" d="M66.2,11.3c-4.1,3.5-7.6,7.7-11.4,11.6c-4.3,4.4-8.9,8.7-13.2,13.1c-1,1,0.7,2.4,1.7,1.4
			c2-1.9,3.9-3.8,5.9-5.7c4.4-6.6,11.3-11.6,16.8-17.1c0.1-0.1,0.2-0.1,0.3-0.1c0.5-0.5,1-1,1.4-1.4C68.8,12.2,67.2,10.4,66.2,11.3z
			"/>
		<path id="路径_118" class="st4" d="M29.8,16.9c-3.8,3.1-6.5,7.4-10,10.7c-3.7,3.6-7.5,7-10.9,11c-0.4,0.5-0.3,1.2,0.2,1.6
			c0.5,0.4,1.1,0.3,1.5-0.1c6.7-7.4,14.4-13.7,20.6-21.6C31.9,17.6,30.8,16.1,29.8,16.9z"/>
		<path id="路径_119" class="st4" d="M35.1,12.9c-0.4-0.4-1-0.5-1.4-0.2c-0.6,0.4-1.2,1-1.6,1.7c-0.3,0.6,0,1.3,0.6,1.6
			c0.6,0.3,1.3,0,1.6-0.6c0.1-0.1,0.1-0.2,0.2-0.3c0,0,0.1-0.2,0.1-0.2c0.2-0.2,0.4-0.4,0.5-0.6C35.5,14,35.5,13.4,35.1,12.9z"/>
		<path id="路径_120" class="st4" d="M27.9,61.7c-1.2-2.9-4.8-3.9-7.2-5.6c-3.2-2.2-5.6-5.4-9.3-7c-1.4-0.6-2.4,1.5-1,2.1
			c3.4,1.6,5.7,4.6,8.7,6.8c2.4,1.7,5,2.7,7.1,4.9c0.5,0.4,1.2,0.3,1.5-0.2C27.9,62.4,28,62,27.9,61.7z"/>
		<path id="路径_121" class="st4" d="M31.3,65.4c-0.5-0.6-1-1.1-1.5-1.6c-0.5-0.4-1.2-0.4-1.6,0.1c-0.4,0.5-0.3,1.2,0.1,1.6
			c0.4,0.4,0.9,0.9,1.4,1.3c0.4,0.3,1,0.3,1.4,0C31.5,66.4,31.6,65.8,31.3,65.4z"/>
		<path id="路径_122" class="st4" d="M52.6,83.3c-6,1.2-12.4,0.1-18.5,0.2c-3.2,0.1-6.4,0.3-9.6,0.2c-2.8-0.1-5.4-0.3-8.1,0.4
			c-1.5,0.4-0.7,2.5,0.7,2.2c3-0.6,6.1,0,9.1,0c3.7,0,7.4-0.2,11.1-0.2c3.2,0,6.3,0.2,9.5,0.2c2.3,0,4.8,0.1,6.9-1
			C55,84.7,53.8,83,52.6,83.3z"/>
		<path id="路径_123" class="st4" d="M50.4,8c-2.7-0.9-6.1,2.1-7.8,3.7c-1.8,1.7-4.6,4.9-3,7.6c0.4,0.5,1.1,0.6,1.6,0.3
			c0.3-0.2,0.5-0.6,0.5-1c-0.2-2.2,1.5-4,3-5.4c1.7-1.4,3.6-2.5,5.7-3.1C51.1,9.8,51.4,8.4,50.4,8z"/>
		<g id="组_69" transform="translate(0 0)">
			<path id="路径_124" class="st3" d="M43.3,82.8c1.2,0,5.4,0.3,5.4-1.8c0-1.9-2.7-2-4.4-1.6c-2.6-0.3-8.9-0.5-7.7,2
				C37.3,83.1,41.9,82.8,43.3,82.8z M38.2,80.5c0.7-0.2,1.5-0.3,2.2-0.3c0.9-0.1,1.8-0.1,2.7-0.2c0,0.1,0.1,0.1,0.2,0.1
				c0.7,0,5.1,0.2,3.9,1.2c-1,0.8-3.7,0.4-4.8,0.4c-1.2,0.1-2.5,0-3.7-0.3C38.4,81.3,37.7,81.1,38.2,80.5z"/>
			<path id="路径_125" class="st3" d="M7.7,43.3c-0.4-0.9-1.5-1.3-2.4-0.8c-0.1,0.1-0.3,0.2-0.4,0.3c-0.4,0.4-0.6,1-0.6,1.6
				c0.2,1,1.1,1.6,2,1.5c0.1,0,0.2,0,0.3-0.1c0.9-0.3,1.4-1.3,1.1-2.2C7.7,43.5,7.7,43.4,7.7,43.3z M6.5,45.1
				C5.9,45.3,5.2,45,5,44.4c0,0,0-0.1,0-0.1c-0.1-0.4,0-0.8,0.2-1.1c0.1-0.1,0.2-0.2,0.3-0.2c0.5-0.2,1.1-0.1,1.5,0.3
				c0.4,0.5,0.3,1.2-0.1,1.6C6.7,45,6.6,45.1,6.5,45.1z"/>
			<path id="路径_126" class="st3" d="M68.5,12.6c0.4-0.2,0.7-0.6,0.5-1.1c0,0,0,0,0,0c-0.9-2.8-7.2-3.8-9.5-3.9
				c-2.5-0.2-5.1,0.2-7.4,1c-1.6-0.9-3.1-1.9-4.5-3c-1.6-1.4-3-3.3-4.8-4.5c-3.2-2.1-5.3-1-8,1.3c-2.2,2-4.1,4.9-2.8,7.9
				c-4.1,4.2-7.9,8.8-11.9,13.2c-4.4,4.9-9,9.7-13,14.9C5.3,38,3.4,38.5,2,39.8c-1.4,1.4-2.1,3.5-1.9,5.5c0.4,3.6,4.1,5.6,7.4,4.9
				c3.7,3.7,7.7,7.2,11.8,10.5c2.7,2.3,5.3,4.9,8.2,7c-2.4,0.8-4.6,2.1-6.6,3.7c-4.8,3.9-6.3,9.2-5.8,15.3c0,0.1,0.1,0.2,0.2,0.2
				c0.1,0,0.2-0.1,0.2-0.2c6.4,0.8,13,0.4,19.4,0.4c6.5,0,13,0,19.5,0c0.2,0,0.5-0.1,0.6-0.3c0.1-0.1,0.2-0.3,0.3-0.4
				c1.3-4.9-1.2-11.3-4.6-14.8c-3.6-3.7-8.9-5.4-13.9-5.4c-0.8,0-1.7,0-2.5,0.1v0c-0.7-1.2-2.2-2.2-3.3-3.1c-2.3-1.9-4.7-3.8-7-5.7
				c-4.2-3.3-8.4-6.7-12.9-9.6c1.3-1.8,1.5-4.1,0.6-6.1c-0.2-0.4-0.4-0.8-0.7-1.2c4.9-4.5,9.5-9.5,14.1-14.3
				c2.6-2.7,5.1-5.5,7.7-8.3c1.1-1.1,2.2-2.3,3.2-3.5c1.9,1.5,3.7,3,3.9,6.2c-0.6,1.5-1,3-1.2,4.6c-0.5,3.9,0.2,9.9,3.6,12.7
				c-0.1,0.1,0,0.2,0.1,0.3c0.1,0,0.1,0,0.2,0l0,0c0,0,0,0,0.1,0c0.2,0.1,0.4-0.1,0.3-0.3c2.4-1.4,4.3-3.6,6.2-5.5
				c0.4-0.4,0.8-0.7,1.1-1.1c3.8,6.6,13.3,4.3,16.7-1.5c1.7-2.6,2-5.9,0.7-8.7c-0.4-1-1.6-3.4-3-3.8C65.8,15.9,67.6,14.6,68.5,12.6z
				 M1.3,45.5c-0.4-1.6,0-3.4,1-4.7C2.6,40.5,3,40.2,3.4,40c2.1-1,4.7-0.5,6.3,1.3c1.7,2,1.4,4.9-0.6,6.6c-0.4,0.3-0.8,0.6-1.3,0.8
				c-2.5,1-5.3-0.2-6.3-2.7C1.4,45.8,1.3,45.7,1.3,45.5z M48.5,72.3c3.8,3.6,4.3,8.2,4.9,13c-6.2,0-12.4,0.1-18.7,0.3
				c-6.4,0.1-13-0.2-19.4,0.6c0.6-5.8,2-10.7,7-14.2c4.1-2.8,8.9-4.2,13.8-4.1C40.7,67.9,45.2,69.1,48.5,72.3z M22.9,59
				c3,2.4,5.9,5.2,9.1,7.5c-0.9,0.1-1.7,0.3-2.6,0.5c-0.8-0.9-1.7-1.7-2.7-2.4c-2.2-1.9-4.4-3.7-6.6-5.5c-3.8-3.3-7.8-6.4-12-9.2
				c0.9-0.3,1.7-0.9,2.4-1.6C14.3,52.2,18.7,55.6,22.9,59z M23.1,25.6c-4.4,4.7-8.9,9.4-12.8,14.5C9.6,39.5,8.8,39,8,38.7
				c4.9-4.5,9.4-9.6,13.9-14.5c2.7-2.9,5.4-5.8,8-8.8c1.1-1.1,2.1-2.2,3.1-3.4c0.4,0.5,0.8,1,1.3,1.4C30.4,17.3,26.8,21.5,23.1,25.6
				z M38.6,14.8c-2.4-3.2-7.8-4.8-4.1-9.7c1.5-2,3.9-4.4,6.7-3.3c1.9,0.8,3.4,3.1,4.9,4.5c1.1,1.2,2.4,2.3,3.9,3.1
				c-1.5,0.7-3,1.7-4.3,2.8c-2.2,1.9-4,4.2-5.4,6.8C40.1,17.5,39.6,16,38.6,14.8z M64.8,29.4c-1.6,2.6-4.3,4.2-7.3,4.5
				c-2.9,0.2-5-1.2-7.1-3c2-2,3.9-3.9,6-5.8c2.3-2.1,4.5-4.3,6.7-6.5C66,21.8,67.5,25.1,64.8,29.4z M62.5,17c-2.5,2.5-5,5-7.6,7.4
				c-4.4,4.2-8.3,8.9-12.7,13.2c-2.6-3.1-2.9-9.4-2.1-13c1-4.1,3.1-7.7,6.2-10.5c3.1-2.9,7.1-4.5,11.4-4.6c2-0.1,3.9,0.2,5.8,0.9
				c0.6,0.2,3.4,1.1,3.7,1.7c0.1,0.1,0.1,0.3,0.2,0.4C65.9,14.1,64.1,15.4,62.5,17L62.5,17z"/>
			<path id="路径_127" class="st3" d="M63,26c-0.3,1.8-1.4,3.3-2.9,4.2c-0.4,0.2-0.2,0.8,0.2,0.6c1.4-0.3,2.6-1.1,3.5-2.3
				c0.6-0.9,1.5-2.6,0.6-3.6C63.5,24,63.1,25.3,63,26z"/>
			<path id="路径_128" class="st3" d="M63,20.9c0,0.4,0.1,0.7,0.2,1.1c0.1,0.4,0.3,0.7,0.4,1.1c0.1,0.1,0.3,0.2,0.4,0.1
				c0.1-0.1,0.1-0.1,0.1-0.2c0-0.4,0-0.9-0.1-1.3c-0.1-0.4-0.4-0.7-0.8-0.8C63.2,20.7,63.1,20.8,63,20.9C63,20.9,63,20.9,63,20.9z"
				/>
		</g>
	</g>
	<g id="组_84" transform="translate(40.505 967.408) rotate(-8)">
		<g id="组_76" transform="translate(5.124 3.287)">
			<path id="路径_161" class="st4" d="M102.8,45.9c-1.2-4.1-2.1-8.3-3.1-12.5c-0.2-1.1-0.5-2.2-0.7-3.3
				c-1.2-5.3-2.7-10.5-4.3-15.7c-1.1-4.6-0.8-9.7-2.7-14c-0.1-0.1-0.1-0.3-0.2-0.4c-6,1.2-12.1,2.4-18,3.8c-8.1,2-16.2,4-24.4,5.9
				C33,13.6,16.6,17.6,0.1,20.2C0,21,0,21.9,0,22.8C2.8,33,4.3,43.6,6.6,53.9c1.9,8.7,5.2,17.2,7.7,25.9c0.5-0.1,0.9-0.3,1.3-0.7
				c0.4,0.5,1.1,0.7,1.7,0.5c2.7-0.8,6.1-0.4,8.9-0.9c4.2-0.8,8.4-1.6,12.6-2.3c6.3-1,12.6-2.2,18.8-3.4c-2.7,1-6.7,3-9.3,2.3
				c-2.1-0.6-2.7,2.3-1.1,3.3c0,0,0.1,0.1,0.2,0.1c0.1,1,1,1.7,2,1.6c0.1,0,0.2,0,0.3-0.1c4.4-1.1,9.4-0.7,13.8,0
				c4.2,0.7,6.8,2.4,10,5c0.3,0.2,0.6,0.4,0.9,0.4c0.2,0.4,0.6,0.7,1,0.9c-4.6,1.1-9.6,1.7-14,2.5c-6,1-11.9,1.7-17.6,3.9
				c-0.8,0.3-1.2,1.3-0.9,2.1c0.3,0.8,1.1,1.2,1.9,1c6.4-2,13.1-2.3,19.6-3.5c5.5-1,13.2-1.2,17.9-4.4c1.7-1.1,0.4-4.1-1.6-3.3
				c-0.8,0.3-1.5,0.6-2.3,0.9c0.3-0.6,0.4-1.2,0.1-1.8c-1.7-4.6-4-12.2-9.6-13.3c0,0-0.1,0-0.1,0c7.7-1.8,15.4-4,23.2-5
				c4.2-0.5,10.4-0.3,12.1-5c0.1,0,0.1,0,0.2,0c1.1-0.1,1.9-1,1.9-2.1C105.9,54.1,104.1,50.1,102.8,45.9z M84.9,62.1
				c-8.8,1.8-17.5,4.2-26.4,6c-8.4,1.7-16.8,3.3-25.3,4.9c-3.7,0.7-7.4,1.8-11.2,2.3c-2.1,0.3-4.4,0.2-6.3,1.3c0,0,0,0,0,0
				c-0.2-0.3-0.5-0.6-0.8-0.8c0.3,0.1,0.5,0.3,0.7,0.5c-0.1-0.2-0.2-0.5-0.2-0.7c-0.1-0.5-0.2-1.1-0.4-1.6c-0.4-1.5-0.8-3.1-1.1-4.6
				c-1.2-5.5-2.2-11-3.3-16.5c-2-10.2-6.1-20.3-7-30.7c6,0.2,11.6-2.3,17.5-3.6c7.7-1.8,15.4-3.1,23.1-5c8-2,16.1-3.8,24.1-5.6
				c6.1-1.4,12.9-1.8,18.9-3.8c2.6,8.8,5.1,17.6,7.2,26.6c1.2,5,2.1,10,3,15c0.7,4.4,2.1,8.6,3,13C95.9,61.3,89.8,61.1,84.9,62.1z"
				/>
		</g>
		<path id="路径_162" class="st2" d="M55.1,31.8c-3.8,1.2-8,1.7-11.8,2.5C37.3,35.6,31.2,37,25,38c0.2,1.7,0.4,3.4,0.8,5.1
			c2.9-0.1,6.7-1.8,8.6-2.3c4.2-1.2,8.4-2.2,12.7-2.9c2.2-0.4,6.4,0,8.2-1.6c1.1-1.2,1.2-3.1,0.1-4.3C55.2,31.9,55.2,31.8,55.1,31.8
			z"/>
		<path id="路径_163" class="st2" d="M74.3,41.8c3.4-0.7,6.8-1.8,10.2-2.5c-0.9-4-1.7-8.1-2.2-12.2c-3.7,1-7.5,2-11.2,2.7
			c1.1,3.8,2,7.6,2.7,11.5C73.9,41.5,74.1,41.7,74.3,41.8z"/>
		<path id="路径_164" class="st2" d="M79.4,62.4c3.4-0.7,6.8-1.8,10.2-2.5c-0.9-4-1.7-8.1-2.2-12.2c-3.7,1-7.5,2-11.2,2.7
			c1.1,3.8,2,7.6,2.7,11.5C79,62.1,79.2,62.3,79.4,62.4z"/>
		<g id="组_77" transform="translate(0 0)">
			<path id="路径_165" class="st3" d="M113.2,64.1c-0.1-0.9-0.4-1.7-0.7-2.5c-0.4-1.4-0.6-2.8-0.8-4.2c-0.6-3-1.1-6.1-1.7-9.1
				c-1.2-6.1-2.4-12.1-3.7-18.2c-1.7-8-3.5-16.1-5.6-24c-0.4-1.8-0.5-3-1.4-4.6c-1.2-2.1-3.6-1.4-5.5-1C92,0.9,90,1,88.2,1.4
				c-4.4,1-8.7,2-13.1,3c-9.4,2.2-18.8,4.4-28.2,6.7c-6,1.5-12.1,2.9-18.1,4.4s-12.1,3-18.1,4.5c-1.9,0.5-3.8,1-5.7,1.5
				c-0.9,0.2-1.9,0.5-2.8,0.7c-0.4,0.1-2.3,0.2-2.2,0.9c1.1,6.1,2.3,12.1,3.4,18.2c1.2,6.1,2.4,12.1,3.7,18.2s2.7,12.1,4.1,18.1
				c0.4,1.5,0.8,3,1.1,4.5c0.2,1.6,0.7,3.1,1.4,4.5c0.2,0.5,0.5,0.9,0.9,1.2c0.6,0.4,1.3,0.6,2,0.5c0.9,0,1.9-0.1,2.8-0.4
				c1.8-0.4,3.5-1.1,5.4-1.5c4.3-1,8.6-2,13-3c4.6-1.1,9.2-2.2,13.8-3.3c-0.4,1.3-0.6,2.6-0.7,3.9c-0.3,2.2-0.4,4.3-0.3,6.5
				c0,1.5-0.4,3.2,0,4.6c-0.4-0.1-1.5,0.5-1.9,0.6c-0.6,0.2-1.6,0.3-2,0.9c-0.9,1.5,0,4.4,1.9,4.5c1.3-0.1,2.5-0.3,3.8-0.6
				c1.9-0.3,3.8-0.6,5.6-1c3.6-0.7,7.2-1.6,10.9-2.4c3.5-0.7,6.9-1.4,10.4-2.2c1.7-0.4,3.4-0.8,5.1-1.3c1.4-0.4,4.1-0.5,5-1.9
				c0.5-0.8,0.2-1.5,0-2.3c-0.4-1.5-1-2.4-2.6-2.2c-0.8,0.1-1.6,0.2-2.5,0.3c-0.3-1.4-1.3-2.7-1.9-4.1c-0.9-2-1.9-3.9-3.1-5.7
				c-0.7-1.3-1.6-2.6-2.7-3.7c6-1.5,12-3,18.1-4.5c3.2-0.8,7.1-1.5,10.3-2.4c1.6-0.4,3.4-0.9,5.1-1.2
				C111.1,65.9,113.3,65.8,113.2,64.1z M24.7,83.8c-2.3,0.5-6.4,1.2-8.9,2.4c-0.1-0.6-0.3-1.2-0.5-1.6c-2.7-9.3-4.3-19.3-6.5-28.7
				C6.3,45,4.2,34.5,1.6,23.8c15.5-3.4,30.4-7,45.9-10.5c9.4-2.1,18.9-4.2,28.3-6.3c4.2-0.9,8.4-1.9,12.5-2.8
				c2.3-0.5,6.1-0.7,8.6-1.8C97,3,97.2,3.6,97.3,4.1c2.7,9.3,4.7,18.8,6.9,28.2c2.5,10.7,5.2,21.4,7.8,32.1
				c-15.4,3.4-30.8,6.8-46.1,10.2c-9.4,2.1-18.8,4.2-28.1,6.3C33.4,81.8,29.1,82.8,24.7,83.8z M68.8,95.9
				c-6.7,1.5-13.4,2.9-20.5,4.7c-0.1-0.5-0.3-1.1-0.5-1.6c-0.2-0.6-0.4-1.2-0.5-1.9c7.2-1.4,13.5-2.9,20.2-4.4
				c6.7-1.5,13.1-2.9,20.2-4.6c0,0,0,0,0.1,0c0.1,0.6,0.2,1.2,0.3,1.9c0.1,0.5,0.1,1,0.2,1.5C81.6,91.9,75.4,94.4,68.8,95.9
				L68.8,95.9z M78.4,80.9c0.9,1.8,1.8,5.3,3.4,7.2c-4.9,0.8-9.8,2.1-14.6,3.2s-9.7,2.1-14.4,3.4c0.1-3,0-6,0.1-8.1
				c0.1-2.2,0-4.5,0.3-6.7c4.4-1.1,8.8-2.1,13.2-3.2c2.9-0.7,5.8-1.4,8.7-2.1C76.3,76.6,77.3,78.8,78.4,80.9z"/>
			<path id="路径_166" class="st3" d="M105.2,61.9c0.7-0.7,0.2-1.6-0.1-2.3c-1.3-3.3-2.2-6.8-2.9-10.3c-1.1-5.7-2.3-11-3.4-16.7
				c-0.9-4.2-1.4-6.5-2.2-10.7c-0.8-4.2-2-8.3-3.4-12.3c-0.9-1.8-2.1-3.1-4.1-2.8c-1.8,0.3-3.9,0.9-5.7,1.4c-3.7,0.9-7.3,1.3-11,2.2
				c-8,1.9-16.1,3.8-24.1,5.8c-13.2,3.2-26.4,6.6-39.6,10.1c-0.1,0-0.1,0-0.2,0.1c-0.2,0.1-0.3,0.3-0.2,0.5
				c1.8,9.7,3.9,19.2,5.9,28.8c1.2,5.7,2.2,10.6,3.6,16.2c0.4,1.5,0.8,3,1.3,4.5c0.4,1.3,0.5,3.8,1.5,4.8c1.1,1.1,2.5,0.6,3.9,0.3
				c1.6-0.3,3.3-0.7,4.9-1c3.7-0.9,7.4-1.7,11.1-2.6c8-1.9,16.1-3.8,24.1-5.8c12-2.9,24.9-5.8,36.9-9c0.8-0.2,1.6-0.4,2.5-0.6
				C104.5,62.3,104.9,62.1,105.2,61.9z M72.4,13c3.7-0.8,7.5-1.7,11.2-2.5c2.3-0.4,4.6-0.9,6.8-1.7c0.5,1.6,1,3.4,1.4,5
				c-6.2,0.4-12.5,2.5-18.5,3.9l-21.8,4.9l-21,4.7c-6.6,1.5-13.6,2.5-20,4.9c-0.4-1.7-0.9-3.4-1.3-5.1c13.2-2.9,26.4-5.7,39.5-8.7
				C56.7,16.5,64.5,14.8,72.4,13z M40.7,75c-3.7,0.8-7.1,1.8-10.8,2.6c-1.9,0.4-5.7,0.9-7.8,1.8c-2.4-8-3.7-16.7-5.7-24.8
				c-1.8-7.4-3.8-14.8-5.7-22.2c6.5-0.5,12.9-2.5,19.3-3.9l21.8-4.9l21-4.7c6.3-1.4,13.3-2.2,19.3-4.6c4.4,15.4,7.6,31.3,11.4,46.8
				c-13.1,2.9-26.1,5.7-39.2,8.6C56.4,71.5,48.5,73.3,40.7,75z"/>
			<path id="路径_167" class="st3" d="M13,29.9c0.9,0.4,2,0.1,2.4-0.8c0-0.1,0.1-0.2,0.1-0.2c0,0,0-0.1,0-0.1
				c0.2-0.8-0.2-1.6-0.9-1.9c-0.7-0.2-1.4-0.1-1.9,0.4c-0.7,0.7-0.7,1.8,0,2.4C12.8,29.8,12.9,29.9,13,29.9z M13.3,28
				c0.3-0.3,0.8-0.4,1.1-0.1c0,0,0,0,0,0c0.2,0.2,0.3,0.4,0.3,0.6c0.1,0.2,0,0.4-0.1,0.6c-0.3,0.4-0.8,0.5-1.2,0.4
				c-0.4-0.2-0.6-0.8-0.3-1.2C13.2,28.1,13.3,28,13.3,28z"/>
			<path id="路径_168" class="st3" d="M19.9,27.9c0,0,0-0.1,0-0.1c0.2-0.8-0.2-1.6-0.9-1.9c-0.7-0.2-1.4-0.1-1.9,0.4
				c-0.7,0.7-0.7,1.8,0,2.4c0.1,0.1,0.2,0.2,0.3,0.2c0.9,0.4,2,0.1,2.4-0.8C19.8,28.1,19.8,28,19.9,27.9z M17.7,27
				c0.3-0.3,0.8-0.4,1.1-0.1c0,0,0,0,0,0c0.2,0.2,0.3,0.4,0.3,0.6c0.1,0.2,0,0.4-0.1,0.6c-0.3,0.4-0.8,0.5-1.2,0.3
				c-0.4-0.2-0.6-0.8-0.3-1.2C17.6,27.1,17.6,27,17.7,27z"/>
			<path id="路径_169" class="st3" d="M24.2,26.9c0,0,0-0.1,0-0.1c0.2-0.8-0.2-1.6-0.9-1.9c-0.7-0.2-1.4-0.1-1.9,0.4
				c-0.7,0.7-0.7,1.8,0,2.4c0.1,0.1,0.2,0.2,0.3,0.2c0.9,0.4,2,0.1,2.4-0.8C24.2,27.1,24.2,27,24.2,26.9z M22.1,26
				c0.3-0.3,0.8-0.4,1.1-0.1c0,0,0,0,0,0c0.2,0.2,0.3,0.4,0.3,0.6c0.1,0.2,0,0.4-0.1,0.6c-0.3,0.4-0.8,0.5-1.2,0.3
				c-0.4-0.2-0.6-0.8-0.3-1.2C22,26.1,22,26.1,22.1,26z"/>
			<path id="路径_170" class="st3" d="M58.4,45.1c-2-0.1-3.9,0.6-5.8,1.1c-3.1,0.8-6.2,1.4-9.4,2c-6.4,1.1-12.7,2.7-18.9,4.6
				c-0.3,0.1-0.2,0.7,0.1,0.5c5.7-1.6,11.5-2.9,17.4-3.9c5.4-0.9,11.1-3.1,16.5-3.3c0.3,0,0.5-0.2,0.5-0.5
				C58.9,45.4,58.7,45.2,58.4,45.1z"/>
			<path id="路径_171" class="st3" d="M60.1,52.4c-2-0.1-3.9,0.6-5.8,1.1c-3.1,0.8-6.2,1.4-9.4,2c-6.4,1.1-12.7,2.7-18.9,4.6
				c-0.3,0.1-0.2,0.7,0.1,0.5c5.7-1.6,11.5-2.9,17.4-3.9c5.4-0.9,11.1-3.1,16.5-3.3c0.3,0,0.5-0.2,0.5-0.5
				C60.5,52.7,60.3,52.5,60.1,52.4z"/>
			<path id="路径_172" class="st3" d="M61.8,60.2c-2-0.1-3.9,0.6-5.8,1.1c-3.1,0.8-6.2,1.4-9.4,2c-6.4,1.1-12.7,2.7-18.9,4.6
				c-0.3,0.1-0.2,0.7,0.1,0.5c5.7-1.6,11.5-2.9,17.4-3.9c5.4-0.9,11.1-3.1,16.5-3.3c0.3,0,0.5-0.2,0.5-0.5
				C62.3,60.4,62.1,60.2,61.8,60.2z"/>
			<path id="路径_173" class="st3" d="M54.4,29.3c-1.1,0.2-2.3,0.4-3.4,0.6c-1.4,0.2-2.8,0.5-4.1,0.8c-2.6,0.6-5.2,1.2-7.9,1.8
				c-3.4,0.8-6.8,1.6-10.2,2.4c-1.7,0.4-3.5,0.8-5.2,1.2c-1.4,0.3-3.1,0.2-2.9,2c0.1,1.1,0.3,2.1,0.5,3.2c0.2,1,0.5,4.2,2,3.9
				c2.4-0.5,4.8-0.9,7.2-1.4c2.7-0.6,5.4-1.3,8.1-1.9c6-1.3,11.9-2.8,17.9-4.2c1-0.2,0.5-0.9,0.4-1.6c-0.1-1-0.3-2-0.5-2.9
				c-0.2-0.9,0.2-3.6-1.1-3.9C54.9,29.2,54.7,29.2,54.4,29.3L54.4,29.3z M38.2,40.7c-5.1,1.1-10.4,2-15.3,3.7
				c-0.2-2.4-0.7-4.7-1.6-6.9c6-0.7,12-2.3,17.9-3.7c5.1-1.1,10.4-2,15.3-3.7c0.2,2.4,0.7,4.7,1.6,6.9C50,37.7,44.1,39.3,38.2,40.7z
				"/>
			<path id="路径_174" class="st3" d="M82.4,23.5c-0.1-0.3-0.3-0.5-0.6-0.6c-0.5-0.2-1.3,0.2-1.8,0.3c-0.8,0.1-1.6,0.3-2.3,0.4
				c-1.5,0.3-3.1,0.7-4.6,1c-2.2,0.3-4.4,0.8-6.6,1.5c-1.2,0.5-1.2,1-0.9,2.2c1,5,2,9.8,3.5,14.7c0.5,1.7,3.1,0.4,4.4,0.1
				c1.7-0.3,3.3-0.7,4.9-1.1c2-0.3,3.9-0.7,5.9-1.3c1-0.3,1.6-0.7,1.8-1.8c0.4-2.6-1-5.1-1.6-7.5c-0.4-1.6-0.8-3.3-1.2-4.9
				C83,25.6,82.7,24.6,82.4,23.5z M78,41c-2.9,0.6-5.7,1.3-8.5,2.2c0,0,0,0,0-0.1c-0.2-2.7-0.7-5.5-1.5-8.1c-0.6-2.6-0.9-5.3-2-7.7
				c2.4,0,4.8-0.9,7.1-1.4c2.9-0.6,5.7-1.3,8.5-2.2c0,0,0,0,0,0.1c0.2,2.7,0.7,5.5,1.5,8.1c0.6,2.6,0.9,5.3,2,7.7
				C82.7,39.6,80.3,40.5,78,41z"/>
			<path id="路径_175" class="st3" d="M88.8,51.8c-0.4-1.6-0.7-3.3-1.2-4.9c-0.2-0.9-0.5-1.8-0.8-2.6c-0.3-1-0.3-1-1.3-0.9
				c-0.9,0.1-1.8,0.3-2.7,0.4c-1.8,0.3-3.6,0.8-5.4,1.2c-1.3,0.3-2.7,0.5-4,0.8c-1,0.2-2.5,0.2-3.2,0.9c-1,0.9-0.2,2.7,0,3.7
				c0.5,2.3,0.9,4.7,1.4,7.1c0.3,1.1,0.6,2.2,1,3.3c0.3,0.9,0.4,2.7,1.4,3.2c0.9,0.5,2.2-0.2,3-0.4c1.9-0.4,3.8-0.8,5.7-1.2
				c1.4-0.3,2.7-0.5,4.1-0.8c1-0.1,2.1-0.4,3-0.8c1.1-0.7,0.5-2.6,0.2-3.6C89.6,55.4,89.2,53.6,88.8,51.8z M82.6,61.2
				c-2.9,0.6-5.7,1.3-8.5,2.2c0,0,0,0,0-0.1c-0.2-2.7-0.7-5.5-1.5-8.1c-0.6-2.6-0.9-5.3-2-7.7c2.4-0.1,4.8-0.9,7.1-1.4
				c2.9-0.6,5.7-1.3,8.5-2.2c0,0,0,0,0,0.1c0.2,2.7,0.7,5.5,1.5,8.1c0.6,2.6,0.9,5.3,2,7.7C87.3,59.9,84.9,60.7,82.6,61.2L82.6,61.2
				z"/>
		</g>
	</g>
	<g id="组_83" transform="translate(187.35 869.159) rotate(14)">
		<path id="路径_153" class="st2" d="M9.6,39.1c0.7,0.6,1.4,1.1,2.2,1.5c3.3,1.7,6,0.5,8.2-1.6c1.1-3.1,0.6-6.5-1.5-9.1
			c-3.3-3.9-8.7-4.9-13-7.2c-0.3-0.1-0.5-0.2-0.8-0.2c1.7,4.3,3.1,8.7,4.1,13.3C9,36.8,9.3,38,9.6,39.1z"/>
		<path id="路径_154" class="st2" d="M66.6,48.2c-2.3-8.9,0.9-18.4-1.9-27.2c-0.1-0.2-0.2-0.4-0.3-0.6c-2.3,1.4-5,2.2-7.7,2.4
			c2.5,7.4,2.2,15,3.4,22.6c0.1,0.7,0.2,1.3,0.3,2c0.4-0.1,0.9-0.3,1.2-0.7c-0.3,0.4-0.6,0.8-1.1,1.1c0.3,1.5,0.6,3,0.9,4.5
			c0.9-0.4,1.7-0.9,2.4-1.5c1.2,0.3,2.5-0.4,2.8-1.6C66.7,48.9,66.7,48.6,66.6,48.2z"/>
		<path id="路径_155" class="st6" d="M57.4,17.1c0.5-0.2,0.8-0.5,1-0.9c0.1-0.1,0.1-0.3,0.2-0.4c0.3-0.1,0.5-0.2,0.8-0.4
			c0.6-0.5,0.8-1.3,0.6-2c-0.2-0.5-0.4-1-0.8-1.4c-0.1-0.2-0.2-0.3-0.3-0.5c-0.1-0.1-0.1-0.2-0.2-0.3l0,0c-0.1-0.1-0.1-0.3-0.2-0.4
			C58.1,12.8,57.7,15,57.4,17.1z"/>
		<path id="路径_156" class="st4" d="M72.3,58c0.3-0.2,0.6-0.4,0.9-0.5c2.8-3.4,4.2-7.2-1.2-9c-0.2-0.1-0.5-0.1-0.7-0.1
			c1.8,7.6-7.1,13.6-13.1,16.2c-10.5,4.5-22.8,6.5-34.1,8.3c-0.1,0.5,0,0.9,0.3,1.3c0.2,0.7,0.7,1.2,1.4,1.5
			c5.7,2.8,15.8-1.1,21.3-2.8c7.4-2.4,13.6-4.2,20.3-8c0.7,4.3,1.2,8.7,1.4,13.1c0.2,5.2,0.6,10.6-0.4,15.7
			c-1.3,6.5-7.4,12.5-14.1,15.1c5.5-0.5,11-1.7,16.2-3.7c1-1.1,1.9-2.3,2.5-3.7c1.6-3.5,2.1-7.9,2.2-12.3c-1-6.1-2.1-12.2-3.2-18.2
			C71,67.1,68.9,61,72.3,58z"/>
		<path id="路径_157" class="st3" d="M70.9,60.4c1.9-1,3.3-2.5,4.3-4.4c0-0.1,0-0.1,0.1-0.2c2.2-3.3,0.5-10-4.1-9
			c-0.1,0-0.2,0.1-0.2,0.2c0,0-0.1,0-0.1,0c-0.8,0.5-1.7,0.9-2.5,1.4c0.1-9.6-0.3-20.4-2.7-29.6c-0.1-1.2-1.5-2.2-2.4-3
			c-2.4-1.9-4.4-4.2-6.2-6.7c-0.2-0.4-0.8-0.5-1.2-0.3c-1.6,1.2-1.8,3.5-2.2,5.3c-0.5,2.5-1.9,6-2.4,8.6c-0.3,2.4-0.4,4.9-0.3,7.4
			c0.1,5.4,1,10.3,1.7,15.7c0.4,2.7,0.9,5.4,1.5,8.1c-0.7,0.2-1.3,0.4-2,0.6c-1.4-9.1-5.6-18.3-8.4-26.9c-1.2-3.7-2.5-7.4-3.8-11.1
			c-0.8-2.3-1.7-4.6-2.5-6.9c-0.8-2.2-1.6-4.3-2.5-6.4C34.6,2.4,33.9,0,32.7,0c-1.9,0.1-3.8,0.5-5.6,1.2c-2.5,0.7-4.9,1.7-7.2,3.1
			c-1.3,1-0.7,1.9-0.4,3.3c0.2,0.9,0.5,1.8,0.7,2.7c0.5,1.8,1.1,3.6,1.7,5.4c1.2,3.6,2.6,7.1,3.9,10.6c0.8,2.2,1.6,4.3,2.4,6.5
			c2.2,6,4.3,12,6.5,17.9c1,2.8,2.6,5.6,3.3,8.5c-1.5,0.5-3.1,1-4.6,1.5c-0.2-1.2-0.7-2.3-1.4-3.3c-1.2-2.1-2.7-3.9-4.5-5.4
			c0.3-0.4,0.5-0.8,0.5-1.3c0.1-1.5-1.6-2.9-2.4-3.9c-1-1.2-3.3-4.1-5.4-4.7c2.8-4.3,2.4-9.9-0.9-13.7C15,23.5,7.2,21.5,1,21.3
			c-1.1,0-1.2,1.3-0.5,1.9c0.2,0.1,0.3,0.2,0.5,0.3c2.4,3.5,1.4,8.8,1.8,12.8c0.3,3.1,1,6.6,3.1,9.1c1.8,2.2,4.8,3,7.5,2.1
			c0,3.2,1,6.2,2.9,8.8c0.6,0.7,1.4,1.1,2.3,1.2c0.4,1.5,1.1,2.9,2,4.2c0.4,0.7,0.9,1.4,1.4,2c-1.3,0.2-2.6,0.4-4,0.6
			c-0.2,0-0.4,0.2-0.3,0.5c-1.3,1.7-1.5,4-0.4,5.9c0.6,1.2,1.4,3.2,5.4,3.2c1.4,0.7,2.4,2,2.7,3.5c0.6,1.8,1.1,3.6,1.8,5.4
			c1.1,3.3,2.3,6.5,3.8,9.7c2.8,6.2,6.2,12.1,10.3,17.5c2.7,3.5,6.8,2.3,10.8,1.8c3.3-0.4,6.6-1.1,9.8-2.3c1.9-0.7,3.8-1.4,5.7-2.3
			c4-1.9,8-3,8.2-7.9c0.3-6.9,0-13.8-0.9-20.7C73.9,72.3,72,66.5,70.9,60.4z M56.2,11.1c1,1.3,2,2.5,3.1,3.7c-0.6,0.6-1.3,1-2.2,1.2
			c-0.7,0.1-1.4,0.2-2.1,0.3C55.3,14.9,55.4,12.4,56.2,11.1z M54.7,17.1c1.1,0.2,2.2,0.2,3.3,0.1c0.9-0.1,1.8-0.6,2.4-1.2
			c1,1.1,2,2.1,2.9,3.2c-1.2,0.7-2.3,1.9-3.6,2.4c-1.3,0.6-2.8,0.9-4.3,1c-0.9,0-1.7-0.1-2.6-0.1C53.6,20.7,54.3,18.9,54.7,17.1
			L54.7,17.1z M52.8,23.6c2.7,0.2,4.7,0.6,7.5-0.5c1.2-0.5,2.3-1.1,3.2-1.9c0.7,9.4,2.6,18.6,3.4,28c-3.4,1.6-7,3-10.6,4.2
			C55.8,43.3,53.6,33.5,52.8,23.6z M39.3,55.7c0.7-0.2,1.5-0.4,2.3-0.6c0.8-0.2,1.6-0.6,2.3-1.1c0.2-0.2,0.2-0.6,0-0.8
			c0,0-0.1-0.1-0.1-0.1c-0.9-0.4-1.8,0.2-2.6,0.6c-0.7,0.4-1.4,0.7-2.1,1c-0.4-1.7-0.9-3.3-1.4-5c0.7-0.2,1.5-0.3,2.2-0.6
			c0.8-0.2,1.6-0.6,2.3-1.1c0.2-0.2,0.2-0.6,0-0.8c0,0-0.1-0.1-0.1-0.1c-0.9-0.4-1.8,0.2-2.6,0.6c-0.7,0.4-1.4,0.7-2.1,1
			c-0.6-1.7-1.2-3.5-1.9-5.2c0.6-0.1,1.2-0.3,1.7-0.5c0.8-0.2,1.6-0.6,2.3-1.1c0.2-0.2,0.2-0.6,0-0.8c0,0-0.1-0.1-0.1-0.1
			c-0.9-0.4-1.8,0.2-2.6,0.6c-0.6,0.3-1.2,0.6-1.7,0.8c-0.6-1.5-1.2-3-1.8-4.5c0.7-0.1,1.3-0.3,1.9-0.5c0.8-0.2,1.6-0.6,2.3-1.1
			c0.2-0.2,0.2-0.6,0-0.8c0,0-0.1-0.1-0.1-0.1c-0.9-0.4-1.8,0.2-2.6,0.6c-0.6,0.3-1.3,0.6-1.9,0.9c-0.6-1.5-1.2-3.1-1.8-4.6
			c0.6-0.1,1.3-0.3,1.9-0.5c0.8-0.2,1.6-0.6,2.3-1.1c0.2-0.2,0.2-0.6,0-0.8c0,0-0.1-0.1-0.1-0.1c-0.9-0.4-1.8,0.2-2.6,0.6
			c-0.6,0.3-1.3,0.6-1.9,0.9c-0.1-0.3-0.2-0.6-0.3-0.9c-0.4-1.2-0.9-2.4-1.3-3.7c0.6-0.1,1.1-0.3,1.7-0.5c0.8-0.2,1.6-0.6,2.3-1.1
			c0.2-0.2,0.2-0.6,0-0.8c0,0-0.1-0.1-0.1-0.1c-0.9-0.4-1.8,0.2-2.6,0.6c-0.5,0.3-1.1,0.5-1.6,0.8c-0.6-1.7-1.2-3.3-1.9-5
			c0.8-0.2,1.5-0.4,2.3-0.7c0.8-0.2,1.6-0.6,2.3-1.1c0.2-0.2,0.2-0.6,0-0.8c0,0-0.1-0.1-0.1-0.1c-0.9-0.4-1.8,0.2-2.6,0.6
			c-0.7,0.4-1.5,0.7-2.2,1.1c-0.6-1.5-1.2-3.1-1.8-4.6c0.6-0.1,1.1-0.3,1.7-0.5c0.8-0.2,1.6-0.6,2.3-1.1c0.2-0.2,0.2-0.6,0-0.8
			c0,0-0.1-0.1-0.1-0.1c-0.9-0.4-1.8,0.2-2.6,0.6c-0.6,0.3-1.1,0.5-1.7,0.8c-0.3-0.7-0.5-1.3-0.8-2c-0.3-0.8-0.6-1.7-1-2.6
			c0.6-0.1,1.2-0.3,1.8-0.5c0.8-0.2,1.6-0.6,2.3-1.1c0.2-0.2,0.2-0.6,0-0.8c0,0-0.1-0.1-0.1-0.1c-0.9-0.4-1.8,0.2-2.6,0.6
			c-0.6,0.3-1.2,0.6-1.8,0.9c-0.5-1.3-1.1-2.5-1.9-3.6c1.1-0.2,2.1-0.6,3.1-1c1.1-0.4,2.1-0.7,3.2-1.1c1.7-0.6,3.5-1,5.3-1.4
			C32.1,2,32.8,1.8,33,2c0.2,0.2,0.2,1.1,0.3,1.4c0.2,0.9,0.4,1.8,0.6,2.7c0.9,3.7,2.1,7.3,3.3,10.9c1.4,4,2.8,8,4.1,12
			c2,6,4,12.1,6,18.1c0.9,2.6,2.2,5.4,3,8.1c-1.2,0.4-2.5,0.8-3.7,1.1c-2.2,0.7-4.5,1.5-6.7,2.2C39.7,57.6,39.5,56.6,39.3,55.7z
			 M4.6,31.2c-0.2-1.9-0.8-6-1.6-7.5c3.3,1.1,8.1,1.6,11.2,3.2c3.8,2.1,5.9,6.3,5.3,10.6c-0.4-1.3-0.9-2.6-1.6-3.8
			c-1.1-2.2-3.1-3.9-5.5-4.6c-0.4-0.1-0.6,0.5-0.2,0.7c2.4,1,4.2,2.8,5.1,5.2c0.7,1.5,0.9,3.3,1.5,4.8c-0.3,0.7-0.8,1.4-1.3,2
			c-0.8-1.5-1.8-3-2.8-4.3c-1.6-2.3-3.3-4.4-5-6.5C9.4,30.5,8.8,31,9,31.4c2.7,3.6,4.8,7.7,7.5,11.4c-0.5,0.5-1.1,0.9-1.6,1.2
			c-0.4,0.2-0.7,0.4-1.1,0.6c-1.2-1.4-2.7-2.6-3.9-4.1c-1.3-2-2.2-4.2-2.6-6.5c-0.1-0.4-0.8-0.2-0.7,0.2c0.9,4.2,2.6,8.3,6.2,10.8
			C5.9,46.8,5,35.3,4.6,31.2z M17.3,53.3c-1.2-2-2.1-4.1-2.8-6.3c1.7-0.7,3.1-1.8,4.3-3.1c1.4,0.7,2.7,1.6,3.8,2.7
			c0.9,0.8,1.8,1.8,2.4,2.9c0.7,1.3-0.4,1.9-1.4,2.7c-0.9,0.9-2,1.6-3.1,2.1C19.1,54.9,18,54.8,17.3,53.3z M21.8,60.2
			c-0.7-1-1.4-1.9-2.1-3c1.9-0.6,3.6-1.5,5.1-2.8c0.5-0.4,1.3-1,1.9-1.6c1.1,1.7,2.1,3.4,3.1,5.1c0.5,0.9,1,2.3,1.7,3.2
			c-2.3,0.7-4.6,1.3-7,1.8C23.4,62.4,22.4,61.4,21.8,60.2z M18.8,69.8c-0.9-1.3-1-2.9-0.3-4.3c5.1,0.1,8.8-1.1,13.1-2.4
			c5.9-1.7,11.7-3.4,17.6-5.2c5.3-1.7,10.7-3.4,16-5.2c2.4-0.8,4.9-1.9,6.7-4.6c1.4,0.8,2.3,2.2,2.4,3.8c-0.1,1.4-0.5,2.8-1.2,4
			c-7.7,4.5-16,8.2-24.5,10.8c-4.5,1.4-9.2,2.5-13.9,3.1c-2.6,0.4-5.2,1.2-7.8,1.7C24.1,71.9,20.6,72.4,18.8,69.8L18.8,69.8z
			 M72.8,97.2c0,3.3-1.2,5-4.3,6.5c-5.1,2.4-10.5,4.2-16.1,5.3c-0.2,0-0.5,0.1-0.7,0.1c-4.2,0.6-6.6,0.5-9.7-2.9
			c-1.6-1.9-3.1-4-4.3-6.1c-3.2-5.4-6-11-8.4-16.8c-1.4-3.5-2.5-7.2-4.7-10.3c1.1-0.1,2.2-0.3,3.3-0.5c6.5-0.9,12.9-1.3,19.2-3.1
			c5.5-1.6,11-3.5,16.3-5.8c1.9-0.8,4.2-1.6,6.3-2.6c0,3.4,1,6.7,1.6,10c1.2,6.5,1.8,13,1.9,19.6C73.2,92.8,72.9,95,72.8,97.2
			L72.8,97.2z"/>
	</g>
	<g id="组_93" transform="translate(269.511 935.643)">
		<path id="路径_129" class="st2" d="M47.1,35.7c-1,1.7-2.6,3.4-4.7,2.9c-0.4-0.1-0.8-0.3-1.1-0.5c0.1-1,0.1-1.9,0.1-2.9
			c0.3-1.8,0.2-3.9-1.7-3.8c-2.3,0-2.6,3.5-2.4,5.1c0,0.2,0.1,0.4,0.1,0.6c-1,1.1-2.2,2.1-4,1.8c-0.1,0-0.2,0-0.2-0.1
			c1.4-2.2,1.9-6.2-1-7.4c-2.6-1.1-4,2-3.9,4.1c0,1,0.3,2.1,0.8,3c-0.3,0.1-0.7,0.2-1,0.2c-1.5,0-2.7-0.6-2.6-2.3
			c0.1-1.4-2.3-1.6-2.5-0.2c-0.5,4.2,3.5,5.9,6.9,5c0.8,5.9,2.6,11.7,3,17.6c0.1,0.8,0.8,1.3,1.5,1.3c0.7-0.1,1.3-0.7,1.3-1.5
			c-0.4-5.8-2.1-11.4-3-17.1c0.2,0.1,0.5,0.2,0.7,0.2c1.6,0.3,3.2,0,4.5-1c-0.7,6-1.1,12.1-1.6,18c-0.1,1.6,2.3,2.2,2.5,0.5
			c0.8-6,1.8-12.2,2.3-18.3c3.3,1.1,7.5-0.6,8.5-4.5C49.8,35,47.8,34.5,47.1,35.7z"/>
		<g id="组_71">
			<path id="路径_130" class="st3" d="M1.5,23.5c-0.3-0.1-0.6-0.1-0.8-0.3c-0.2-0.1-0.3-0.2-0.6-0.1c-0.1,0-0.1,0.1-0.1,0.2
				c0.1,0.6,0.9,0.7,1.4,0.8C1.7,24.1,1.9,23.6,1.5,23.5z"/>
			<path id="路径_131" class="st3" d="M35.9,15.8c-9.2-0.8-17.8,5.9-19.8,14.8c-1.1,4.5-0.4,9.2,2,13.1c3.3,5.1,9,7.2,10.4,13.2
				c-0.8,0-1.6,0.4-2.1,1.1c-1.2,1-1.4,2.8-0.4,4c0.1,0.1,0.1,0.2,0.2,0.2c0.1,0.1,0.2,0.1,0.2,0.2c-1.1,1.3-1.2,3.1-0.2,4.5
				c1.8,2.3,6,2,8.5,2c3,0.1,7.3,0,9.4-2.7c0.9-1,0.9-2.6-0.1-3.6c-0.1-0.1-0.2-0.2-0.3-0.3c0.4-0.3,0.7-0.5,1-0.9
				c1.2-1.4,0.9-3.4-0.8-4c-0.6-0.6-1.4-1-2.2-0.8c0.7-2.6,2.1-5,4.1-6.9c1.8-1.7,3.8-3.1,5.3-5.1c2.7-3.8,3.7-8.5,2.8-13
				C52.2,22.9,44.8,16.4,35.9,15.8z M35.6,67.5c-2.2,0-10.5-0.5-8.6-4.7c2.4,1.4,6.2,1,8.7,1.1c2.1,0,4.9,0,7.1-1
				C44.8,67,38.1,67.5,35.6,67.5L35.6,67.5z M43.9,58.8c1.2,3.8-6.7,4-8.7,4c-1.1,0-2.2,0-3.3,0c-0.9,0-1.8-0.1-2.7-0.3
				c-1.5-0.2-2.3-1.2-2.4-3c1.4,1.6,6,1,7.7,1C36.2,60.4,42.8,60.8,43.9,58.8L43.9,58.8z M32.3,47.1c-0.3-2.2-0.5-4.5-0.8-6.8
				c2.2,1.3,5.3,0.6,7.4-1.1c0,0,0,0,0,0c-0.5,6.7-0.5,13.5-1.7,20.1c-1,0-2,0-2.8,0h-1.2C33.5,55.4,32.8,51.1,32.3,47.1L32.3,47.1z
				 M38.7,35.2c0.4-1.2,1.3-1,1.5-0.6c0.2,0.6,0.1,1.2-0.1,1.8c-0.1-0.3-0.2-0.7-0.3-1c0-0.1-0.2-0.2-0.3-0.2
				c-0.1,0-0.2,0.1-0.2,0.2c-0.1,0.7-0.1,1.5-0.2,2.2C38.8,36.8,38.6,36,38.7,35.2L38.7,35.2z M41.1,58.8c0.1-0.5,0.3-1,0.4-1.5
				C42.9,58,42.2,58.3,41.1,58.8L41.1,58.8z M52.2,36.7c-0.6,6-4.7,8.5-8.5,12.5c-2.6,2.8-4,5.9-3.4,9.7c0,0,0,0,0,0.1
				c-0.9,0.2-1.8,0.3-2.7,0.4c1.2-4,1.3-8,1.7-12.1c0.2-2.2,0.7-4.6,0.9-6.9c3.4,1.6,8.7-2.5,5.7-6.1c-0.1-0.1-0.2-0.1-0.3,0
				c0,0-0.1,0.1,0,0.2c1.3,3.6-2.4,6.6-5.3,4.7c0-0.5,0-1-0.1-1.5c0.4-0.5,0.6-1.1,0.7-1.8c0.2-1.3,0-3.3-1.9-2.7
				c-1.9,0.6-1.4,3.7-0.7,5.1c0,0,0,0.1,0.1,0.1c-0.3,0.3-0.7,0.5-1,0.7c-1.9,1.1-3.1,1.2-5,0.2c-0.4-0.2-0.8-0.5-1.2-0.8
				c0.5-0.7,0.8-1.6,1-2.4c0.3-1.2,0.7-3.1-1-3.3c-2.7-0.3-2.2,4.1-1.6,5.5c0,0.1,0.1,0.2,0.1,0.3c0,0.1,0,0.2,0,0.3
				c-1.4,1.5-4.7,1.3-5.5-2.6c-0.1-0.3-0.4-0.5-0.5-0.1c-0.9,2.7,0.7,5.1,3.7,4.9c0.9-0.1,1.7-0.5,2.4-1.1c0.3,1.8,0.7,3.5,1,5.3
				c0.8,4.7,1.2,9.4,1.8,14.1c-0.8,0-1.6,0-2.4-0.1c-1.6-0.1-3.3-0.8-1.7-1.9c0.1,0.4,0.1,0.9,0.2,1.3c0,0.1,0.1,0.2,0.2,0.2
				c0.1,0,0.2-0.1,0.2-0.2c0.2-3.9-1.3-7.6-4.1-10.3c-3.8-3.7-7.3-6.6-7.7-12.3c-0.8-10,8.1-19.5,18.4-18.4
				C45.5,18.7,53.3,26.7,52.2,36.7L52.2,36.7z M31.2,36.6c-0.1,0.2-0.1,0.3-0.2,0.5c-0.1-0.8-0.3-1.6-0.5-2.4c0,0,0-0.1-0.1-0.1
				c0,0,0-0.1,0.1-0.1C32.2,32.7,31.7,35.6,31.2,36.6L31.2,36.6z"/>
			<path id="路径_132" class="st3" d="M31.9,11.3c-0.5,0.5-0.2,1.3-0.2,1.9c0,0.2,0.1,0.3,0.3,0.3c0.2,0,0.3-0.1,0.3-0.3
				c0.1-0.6,0.3-1.4-0.2-1.9C32.1,11.3,31.9,11.3,31.9,11.3z"/>
			<path id="路径_133" class="st3" d="M31.5,9.4c0,0.2,0.2,0.3,0.3,0.3c0.1,0,0.2-0.1,0.3-0.3c0.3-2.6,1.9-7.2-0.3-9.3
				c-0.1-0.1-0.3-0.1-0.4,0c0,0-0.1,0.1-0.1,0.1c-0.1,1.4-0.1,2.8,0,4.3C31.3,6.1,31.4,7.8,31.5,9.4z"/>
			<path id="路径_134" class="st3" d="M43,14.8c1.2-0.7,1.9-2.2,2.5-3.5s1.6-2.8,1.5-4.2c0-0.2-0.1-0.3-0.3-0.3c0,0-0.1,0-0.1,0
				C45.4,7.5,45,9,44.6,10.1c-0.6,1.5-1.2,3-2,4.4c-0.1,0.1,0,0.3,0.1,0.3C42.8,14.9,42.9,14.9,43,14.8z"/>
			<path id="路径_135" class="st3" d="M47.5,4.9c0.2-0.3,0.4-0.6,0.5-1c0.1-0.4,0.2-0.7,0.2-1.1c0-0.1-0.1-0.2-0.3-0.2
				c-0.1,0-0.1,0-0.2,0.1C47.1,3.2,46.8,4,47,4.8C47,5,47.2,5.1,47.4,5C47.4,5,47.5,5,47.5,4.9z"/>
			<path id="路径_136" class="st3" d="M51.5,20.5c0.5-0.2,1-0.5,1.4-1c0.3-0.4,0.9-0.9,1-1.4c0-0.1,0-0.3-0.2-0.3c0,0,0,0-0.1,0
				c-0.5,0-0.9,0.5-1.2,0.9c-0.3,0.5-0.7,0.9-1.2,1.3C51.1,20.1,51.2,20.6,51.5,20.5z"/>
			<path id="路径_137" class="st3" d="M56.1,16.5c1.1-0.7,2.2-1.5,3.1-2.4c0.6-0.5,2.1-1.5,1.9-2.5c0-0.1-0.2-0.2-0.3-0.2
				c-0.5,0-0.7,0.3-1,0.7c-0.4,0.5-0.9,1-1.4,1.4c-1,0.8-1.9,1.7-2.7,2.6C55.6,16.3,55.9,16.6,56.1,16.5z"/>
			<path id="路径_138" class="st3" d="M56,27.8c1.6-0.1,3-0.9,4.5-1.3c1.2-0.4,2.6-0.6,3.4-1.8c0.1-0.1,0-0.2-0.1-0.3
				c0,0-0.1,0-0.1,0c-2.7-0.1-5.4,1.9-7.8,2.9C55.7,27.3,55.7,27.8,56,27.8z"/>
			<path id="路径_139" class="st3" d="M67.5,23.1c-0.2-0.1-0.4,0-0.6,0.1c-0.3,0.1-0.5,0.2-0.8,0.3c-0.4,0.1-0.2,0.6,0.1,0.5
				c0.4-0.1,1.3-0.2,1.4-0.8C67.6,23.2,67.6,23.1,67.5,23.1z"/>
			<path id="路径_140" class="st3" d="M57.7,36.4c-0.1,0-0.3,0.1-0.3,0.3c0,0.1,0.1,0.3,0.3,0.3c2.5,0.3,5,0.2,7.5-0.1
				c0.2-0.1,0.3-0.3,0.3-0.5c0-0.1-0.1-0.2-0.3-0.3C62.7,35.6,60,36.1,57.7,36.4z"/>
			<path id="路径_141" class="st3" d="M57.1,45.1c-0.7-0.2-1.5-0.3-2.2-0.6c-0.2,0-0.3,0.1-0.4,0.2c0,0.1,0,0.3,0.1,0.3
				c0.6,0.3,1.2,0.6,1.8,0.8c0.5,0.3,1.1,0.4,1.7,0.3c0.1,0,0.1-0.1,0.1-0.2C58.1,45.5,57.7,45.2,57.1,45.1z"/>
			<path id="路径_142" class="st3" d="M66.9,48.3c-2.2-0.9-4.6-1.2-6.8-2c-0.3-0.1-0.4,0.3-0.2,0.5c1.8,1.4,4.6,2,6.8,2.5
				c0.3,0.1,0.5-0.1,0.6-0.4C67.3,48.7,67.2,48.4,66.9,48.3z"/>
			<path id="路径_143" class="st3" d="M24.6,14.8c0.1,0.1,0.3,0,0.3-0.1c0-0.1,0-0.2,0-0.2c-0.8-1.4-1.4-2.9-2-4.4
				c-0.4-1.1-0.8-2.6-1.8-3.2c-0.1-0.1-0.3,0-0.4,0.1c0,0,0,0.1,0,0.1c-0.1,1.4,0.9,3,1.5,4.2S23.4,14.1,24.6,14.8z"/>
			<path id="路径_144" class="st3" d="M20.1,4.9c0.1,0.1,0.3,0.1,0.4,0c0,0,0.1-0.1,0.1-0.1c0.1-0.8-0.2-1.6-0.8-2.1
				c-0.1-0.1-0.3-0.1-0.4,0c0,0-0.1,0.1-0.1,0.2c0,0.4,0.1,0.8,0.2,1.1C19.8,4.3,19.9,4.6,20.1,4.9z"/>
			<path id="路径_145" class="st3" d="M16.3,19.9c-0.4-0.4-0.8-0.8-1.2-1.3c-0.3-0.4-0.7-0.9-1.2-0.9c-0.1,0-0.2,0.1-0.2,0.2
				c0,0,0,0,0,0.1c0.1,0.5,0.7,1,1,1.4c0.4,0.4,0.9,0.8,1.4,1C16.4,20.6,16.5,20.1,16.3,19.9z"/>
			<path id="路径_146" class="st3" d="M8.4,14c1,0.9,2,1.7,3.1,2.4c0.2,0.1,0.6-0.1,0.4-0.4c-0.8-1-1.7-1.9-2.7-2.6
				c-0.5-0.4-0.9-0.8-1.3-1.3c-0.3-0.4-0.5-0.8-1.1-0.8c-0.1,0-0.3,0.1-0.3,0.2C6.2,12.5,7.8,13.5,8.4,14z"/>
			<path id="路径_147" class="st3" d="M7.1,26.4c1.5,0.5,2.9,1.3,4.5,1.3c0.3,0,0.3-0.4,0.1-0.5c-2.4-1-5.1-3-7.8-2.9
				c-0.1,0-0.2,0.1-0.2,0.2c0,0,0,0.1,0,0.1C4.4,25.8,5.8,26,7.1,26.4z"/>
			<path id="路径_148" class="st3" d="M2.5,36.7c2.5,0.4,5,0.4,7.5,0.1c0.1,0,0.3-0.1,0.3-0.3c0-0.1-0.1-0.3-0.3-0.3
				c-2.4-0.3-5.1-0.7-7.5-0.4C2.5,36,8.1,36.4,2.5,36.7z"/>
			<path id="路径_149" class="st3" d="M12.7,44.5c-0.7,0.2-1.5,0.3-2.2,0.6c-0.5,0.1-1,0.4-1.2,0.9c0,0.1,0,0.2,0.1,0.2
				c0.6,0.1,1.2,0,1.7-0.3c0.6-0.2,1.2-0.5,1.8-0.8c0.2-0.1,0.2-0.3,0.1-0.4C13,44.6,12.8,44.5,12.7,44.5z"/>
			<path id="路径_150" class="st3" d="M7.5,46.4c-2.2,0.7-4.6,1.1-6.8,2c-0.3,0.1-0.4,0.4-0.3,0.6c0.1,0.3,0.4,0.4,0.6,0.4
				c1.3-0.3,2.6-0.8,3.9-1.2c1-0.3,2-0.7,2.9-1.3C7.9,46.7,7.8,46.3,7.5,46.4z"/>
			<path id="路径_151" class="st3" d="M33.6,20.2c-2.3-0.3-4.7,0.3-6.6,1.6c-1.6,1-4.1,2.8-4,4.9c0,0.1,0.1,0.2,0.2,0.2
				c0,0,0.1,0,0.1,0c1.5-1,2.4-2.7,3.8-3.8c1.8-1.5,4-2.4,6.4-2.4C33.8,20.7,33.9,20.2,33.6,20.2z"/>
			<path id="路径_152" class="st3" d="M21.4,29.3c-0.9,1-1.7,2.7-0.9,4c0.1,0.1,0.2,0.2,0.4,0.1c0,0,0.1-0.1,0.1-0.1
				c0.2-0.5,0.4-1.1,0.4-1.7c0.1-0.7,0.3-1.3,0.7-1.8C22.3,29.4,21.7,28.9,21.4,29.3z"/>
		</g>
	</g>
	<g id="组_85" transform="translate(170.098 1035.684) rotate(-14)">
		<path id="路径_73" class="st2" d="M33.9,25.9c0,0,0.1-0.1,0.1-0.1c1.2-1.1-0.3-3-1.7-2.5c-3.7,1.4-7.4,5.3-6.9,9.5
			c0.1,1,0.9,1.7,1.9,1.7c2.5,0.1,5.3,1.6,7.1-1.1C35.9,31.3,35.1,28.2,33.9,25.9z"/>
		<g id="组_50" transform="translate(0 0)">
			<path id="路径_74" class="st3" d="M49.8,11.4C46.4,3,37.4-1.6,28.6,0.6C20,2.9,14.3,12.1,15.5,21c1.6,10.9,13.1,16.4,23.2,13.9
				C48.9,32.3,53.4,20.8,49.8,11.4z M38.1,32.8c-8.9,2.3-19-2.5-20.7-12C16.2,13.5,19.8,6,26.2,3.3c8-3.3,17.5-0.2,21.2,8.2
				C51.1,19.8,47.3,30.4,38.1,32.8z"/>
			<path id="路径_75" class="st3" d="M27.8,16.3c-7.5-5-17.6-3.8-23.6,2.8c-5.9,6.7-5.5,17.6,0.6,24.2c7.4,8.1,20,6.4,27-1.4
				C38.7,34.2,36.1,22.1,27.8,16.3z M30.1,40.6c-6.1,6.9-17.2,8.5-23.9,1.5c-5.1-5.3-6.3-13.5-2.4-19.3c4.8-7.2,14.4-10,22.2-5
				C33.7,22.6,36.4,33.5,30.1,40.6z"/>
			<path id="路径_76" class="st3" d="M54.3,25.1c-6.5-6.3-16.6-7-23.8-1.5c-7,5.5-8.6,16.3-3.8,23.9c5.8,9.3,18.5,9.9,26.8,3.5
				C61.8,44.7,61.4,32.3,54.3,25.1z M52.1,49.4c-7.3,5.7-18.4,5.2-23.7-2.8c-4-6.1-3.7-14.5,1.1-19.5c6-6.2,16-7.2,22.8-0.9
				C58.9,32.4,59.5,43.6,52.1,49.4L52.1,49.4z"/>
		</g>
	</g>
	<g id="组_89" transform="translate(179.359 1129.835)">
		<path id="路径_77" class="st2" d="M33.6,33.6c-1.9-2-4-3.9-6-5.8c-3.7-3.4-7.3-6.9-10.7-10.6c-1,1-1.9,2-2.8,3.1
			c-1.6,1.9-3.3,3.7-5,5.5c-0.8,0.9,0.4,2.1,1.3,1.5c0.1,0,0.1-0.1,0.2-0.1c2.4,2.3,4.7,4.8,7.3,7c2.9,2.2,5.6,4.7,8.1,7.5
			c0.4,0.6,1.2,0.7,1.8,0.3c0.1-0.1,0.1-0.1,0.2-0.2c1.5-1.4,2.5-3.2,4-4.6c0.8-0.8,1.7-1.6,2.6-2.4C34.2,34.3,33.9,34,33.6,33.6z"
			/>
		<path id="路径_78" class="st2" d="M41.7,14c-0.7-3.1-1.2-6.3-2.1-9.3c0-0.1-0.1-0.2-0.1-0.4c-7.9,2-15.9,3.7-23.9,5.2
			c0.2,0.2,0.4,0.3,0.6,0.3c0,0,0.1,0,0.1,0.1c0.2-0.3,0.6-0.5,1-0.3c4.2,1.6,8.7,2.2,13.1,3.2c3.8,1,7.5,2.2,11.3,3.3
			c0-0.3-0.1-0.6-0.3-0.9C41.7,14.8,41.8,14.4,41.7,14z"/>
		<path id="路径_79" class="st2" d="M30.7,16.5c-2.2-0.6-4.4-1.2-6.6-1.8s-4.3-1.7-6.6-2.2c0,0.3,0.1,0.6,0.3,0.8
			c0.2,0.2,0.4,0.3,0.6,0.4c0,0.2,0.1,0.3,0.1,0.5c0.2,0.3,0.4,0.7,0.6,1c1.4,1.4,3.1,2.3,4.6,3.5c1.8,1.6,3.5,3.3,5.1,5.1
			c2.6,2.7,5.5,5.1,7.9,8c0-0.2-0.1-0.5-0.2-0.6c-0.5-0.7-1.1-1.4-1.8-2.1c2,1.3,4,1.9,4.6-1.3c0.5-2.7,1-5.4,1.7-8.1
			C37.6,18.9,33.9,17.4,30.7,16.5z"/>
		<g id="组_62">
			<path id="路径_80" class="st3" d="M37.6,31.5C33.6,27,28.9,23,24.5,18.8C20.9,15,17,11.5,13,8.2c-1.2-0.9-2.7-2.3-4.3-2.3
				C7.2,5.9,6,7,5,8C3.9,9,2.9,10.2,2,11.4c-1,1.1-1.6,2.4-2,3.8c-0.4,2.5,2,4.6,3.5,6.3c4,4.6,8.8,8.4,13.1,12.7
				c3.5,3.5,7.1,6.9,10.9,10c1.3,1,2.9,2.5,4.7,2.3c1.6-0.2,2.7-1.3,3.8-2.4c1.8-1.7,4.2-3.5,4.8-6C41.6,35.5,39.2,33.3,37.6,31.5z
				 M38.4,39.9c-1,1.4-2.3,2.6-3.7,3.6c-1.6,1.3-3.3,1.7-5.2,0.7c-1.5-1-3-2.2-4.2-3.5c-2.9-2.6-5.6-5.3-8.4-8
				c-3.1-2.9-6.4-5.6-9.4-8.6c-1.9-2-5-4.5-6.1-7.1c-0.7-1.8,0.5-3.7,1.5-5.2c1-1.3,2.2-2.5,3.5-3.5C7.9,7.2,9.7,7.2,11,8.2
				c1.5,1.1,2.8,2.2,4.2,3.5c2.9,2.7,5.8,5.4,8.6,8.2c2.9,2.9,6,5.6,8.9,8.4c2,1.9,3.9,3.9,5.6,6c1.2,1.3,1.5,3.3,0.6,4.9
				C38.7,39.5,38.6,39.7,38.4,39.9L38.4,39.9z"/>
			<path id="路径_81" class="st3" d="M10.1,13.4c-0.5-0.2-1-0.2-1.4-0.1c-0.5,0.2-0.9,0.6-1,1.1c-0.2,0.4-0.1,0.9,0.1,1.3
				c0.5,0.8,1.5,1,2.3,0.5c0.1-0.1,0.2-0.1,0.3-0.2C11,15.3,11.1,13.8,10.1,13.4z M9.8,15.7C9.5,15.9,9,16,8.7,15.8
				c-0.3-0.2-0.6-0.5-0.5-0.9c0-0.3,0.1-0.5,0.3-0.7c0.3-0.2,0.7-0.3,1.1-0.2c0.4,0,0.7,0.3,0.6,0.7c0,0,0,0,0,0
				C10.2,15.1,10.1,15.4,9.8,15.7z"/>
			<path id="路径_82" class="st7" d="M9.1,25.8l10.4-11.1"/>
			<path id="路径_83" class="st7" d="M13.4,30.2l10.4-11.1"/>
			<path id="路径_84" class="st7" d="M18.1,34.4l10.4-11.1"/>
			<path id="路径_85" class="st7" d="M22,38.3l10.4-11.1"/>
			<path id="路径_86" class="st7" d="M26.5,42.7l10.4-11.1"/>
			<path id="路径_87" class="st3" d="M48.3,18.8c-0.7-2.6-3.9-3.2-6.1-4C36.4,13,30.4,12,24.5,10.5c-4.1-1-8.2-2.1-12.3-2.8
				c0.7,0.5,1.2,1,1.8,1.7c3.5,0.8,7,1.6,10.5,2.5c4,1,8,1.8,11.9,2.8c2.7,0.6,5.3,1.4,7.9,2.3c1.8,0.5,3,2.1,3,4c0,0.3,0,0.5,0,0.8
				c-0.2,1.7-0.6,3.4-1.3,5c-0.7,1.9-2,3.1-4.1,3.2c-1.8-0.1-3.7-0.4-5.4-0.9c-0.6-0.1-1.3-0.3-1.9-0.4c0.5,0.6,1,1.1,1.5,1.7
				c1.4,0.3,2.7,0.5,4.1,0.7c1.6,0.2,3.8,0.6,5.2-0.4c1.3-1,1.7-2.5,2.1-4C47.9,24.1,49,21.3,48.3,18.8z"/>
			<g id="组_52" transform="translate(16.885 9.004)">
				<path id="路径_88" class="st3" d="M0.9,4.2L0.9,4.2C1.2,3,1.4,1.8,1.7,0.7c0.1-0.7-0.9-1-1-0.3C0.4,1.3,0.2,2.1,0,3
					C0.3,3.4,0.6,3.8,0.9,4.2z"/>
			</g>
			<g id="组_53" transform="translate(22.108 10.644)">
				<path id="路径_89" class="st3" d="M0.3,6.3C0.5,6.5,0.7,6.8,1,7c0.5-2.1,1-4.3,1.4-6.4c0.1-0.7-0.9-1-1-0.3
					C0.8,2.3,0.4,4.2,0,6.1C0.1,6.1,0.3,6.2,0.3,6.3z"/>
			</g>
			<g id="组_54" transform="translate(27.487 11.896)">
				<path id="路径_90" class="st3" d="M0.8,11C1.7,7.6,2.5,4.1,3.2,0.7c0.1-0.7-0.9-1-1-0.3C1.3,3.6,0.6,6.9,0,10.2
					C0.3,10.4,0.5,10.7,0.8,11z"/>
			</g>
			<g id="组_55" transform="translate(32.324 13.225)">
				<path id="路径_91" class="st3" d="M0.6,13.8C1.8,9.5,2.9,5.1,3.7,0.7c0.1-0.7-0.9-1-1-0.3C1.6,4.6,0.7,9,0,13.3
					C0.2,13.5,0.4,13.6,0.6,13.8z"/>
			</g>
			<g id="组_56" transform="translate(38.093 14.742)">
				<path id="路径_92" class="st3" d="M0.5,15.5c1.4-4.9,2.6-9.8,3.6-14.8c0.1-0.7-0.9-1-1-0.3c-1.2,4.9-2.2,9.9-3,14.9
					c0,0.1,0,0.3,0.2,0.3C0.3,15.7,0.4,15.6,0.5,15.5L0.5,15.5z"/>
			</g>
			<path id="路径_93" class="st3" d="M48.4,8.6c-0.4-2.4-0.6-5.4-2.3-7.3c-1.8-2-4.9-1.2-7.2-0.9C32.8,1.3,27,3,21,4.3
				C16.9,5.1,12.7,6,8.7,7.2c0.8,0.1,1.6,0.4,2.3,0.7c3.5-0.9,7-1.6,10.5-2.4c4-0.8,7.9-1.9,11.9-2.7c2.7-0.6,5.4-1.1,8.1-1.4
				C43.4,1.1,45.2,2,46,3.7c0.1,0.2,0.2,0.5,0.3,0.7c0.6,1.6,0.9,3.3,1,5.1c0.2,2-0.4,3.7-2.3,4.7c-1.2,0.6-2.5,1-3.8,1.2
				c0.6,0.2,1.3,0.4,1.9,0.7c0.2-0.1,0.5-0.1,0.7-0.2c1.5-0.5,3.7-1.1,4.5-2.6C49,11.7,48.7,10.1,48.4,8.6z"/>
			<g id="组_57" transform="translate(14.237 5.706)">
				<path id="路径_94" class="st3" d="M1.9,3.9L1.9,3.9C1.7,2.7,1.4,1.6,1.1,0.4C0.9-0.2-0.1-0.1,0,0.6c0.2,0.9,0.4,1.8,0.6,2.6
					C1.1,3.4,1.5,3.6,1.9,3.9z"/>
			</g>
			<g id="组_58" transform="translate(20.269 4.592)">
				<path id="路径_95" class="st3" d="M1.3,6.2c0.4,0.1,0.8,0.1,1.2,0.2c-0.5-2-0.9-4-1.5-6C0.9-0.2-0.1-0.1,0,0.6
					C0.4,2.5,0.8,4.3,1.3,6.2z"/>
			</g>
			<g id="组_59" transform="translate(26.382 3.007)">
				<path id="路径_96" class="st3" d="M3.2,9.4c-0.6-3-1.3-6-2.1-8.9C0.9-0.2-0.1-0.1,0,0.6c0.6,2.9,1.3,5.7,2.1,8.6
					C2.4,9.2,2.8,9.3,3.2,9.4z"/>
			</g>
			<g id="组_60" transform="translate(31.81 1.841)">
				<path id="路径_97" class="st3" d="M3.7,12C2.9,8.1,2.1,4.2,1.1,0.4C0.9-0.2-0.1-0.1,0,0.6c0.8,3.7,1.7,7.5,2.8,11.2
					C3.1,11.8,3.4,11.9,3.7,12z"/>
			</g>
			<g id="组_61" transform="translate(37.977 0.525)">
				<path id="路径_98" class="st3" d="M4.3,15.1C3.4,10.2,2.4,5.2,1.1,0.4C0.9-0.2-0.1-0.1,0,0.6c1,4.8,2.3,9.6,3.7,14.3
					C3.9,15,4.1,15.1,4.3,15.1z"/>
			</g>
		</g>
	</g>
	<g id="组_86" transform="matrix(-0.819, -0.574, 0.574, -0.819, 310.561, 879.859)">
		<path id="路径_158" class="st2" d="M46.2,6.4c-5.3,1-10.6,1.8-16,2.5c-9.6,1.3-19.2,2.2-28.8,3.7C1.1,11.4,1,10.1,1.2,8.9
			c0-0.4,0.4-0.7,0.8-0.7c0.2,0,0.5,0.2,0.6,0.4C3.8,8.1,5,7.8,6.3,7.7c2.2-0.4,4.4-0.8,6.6-1.1c4.4-0.5,8.7-1.3,13-2.2
			c4.3-0.9,8.6-1.4,13-2c2.3-0.4,4.7-0.9,7-1.2c1.5-0.2,3.5,0.1,4.8-0.7c0.1-0.1,0.3-0.1,0.5-0.1c0.3-0.2,0.8-0.1,1.1,0.2
			c0.1,0.1,0.1,0.2,0.1,0.3c0.1,1.1,0.2,2.2,0.3,3.2c0,0.4,0.1,0.7,0.1,1.1C50.5,5.5,48.3,6,46.2,6.4z"/>
		<path id="路径_159" class="st3" d="M53.4,8.3c-1.7,0.9-4.2,0.9-6,1.2c-4.1,0.7-8.2,1.4-12.3,2c-9,1.5-18,2.9-27,4.2
			c-2.2,0.4-4.4,0.7-6.6,0.8c-0.1,0-0.2-0.1-0.2-0.2c0,0,0,0,0-0.1c-0.2-1.3-0.5-2.7-0.7-4c-0.1-1.2-0.2-2.3-0.5-3.5
			c0,0,0-0.1,0-0.1C0,8.7,0,8.4,0.1,8.3c0,0,0,0,0,0c1.7-0.9,4.2-0.9,6-1.2c4.1-0.7,8.2-1.4,12.3-2c9-1.5,18-2.9,27-4.2
			c2.2-0.4,4.4-0.7,6.6-0.8c0.1,0,0.2,0.1,0.2,0.2c0,0,0,0,0,0.1c0.2,1.3,0.5,2.7,0.7,4c0.1,1.2,0.2,2.3,0.5,3.5c0,0,0,0.1,0,0.1
			C53.6,8,53.6,8.2,53.4,8.3C53.4,8.3,53.4,8.3,53.4,8.3z M44.2,1.8c0,0.2,0,0.3,0.1,0.4c0.1,0.4,0.1,0.8,0.1,1.2
			c0,0.1-0.1,0.1-0.1,0.1c-0.1,0-0.1,0-0.1-0.1c-0.1-0.4-0.2-0.8-0.3-1.3c0-0.1-0.1-0.2-0.1-0.4L41,2.3c0,0.2,0,0.3,0.1,0.4
			c0.1,0.4,0.1,0.8,0.1,1.2c0,0.1-0.1,0.1-0.2,0.1c-0.1,0-0.1,0-0.1-0.1c-0.1-0.4-0.2-0.8-0.3-1.3c0-0.1-0.1-0.2-0.1-0.4l-2.6,0.4
			c0,0.2,0,0.3,0.1,0.4C38,3.7,38,4.1,38,4.5c0,0.1-0.1,0.1-0.1,0.1c-0.1,0-0.1,0-0.1-0.1c-0.1-0.4-0.2-0.8-0.3-1.3
			c0-0.1-0.1-0.2-0.1-0.4l-2.6,0.4c0,0.2,0,0.3,0.1,0.5c0.1,0.4,0.1,0.8,0.1,1.2c0,0.1-0.1,0.1-0.1,0.1c-0.1,0-0.1,0-0.1-0.1
			c-0.1-0.4-0.2-0.8-0.3-1.3c0-0.1-0.1-0.2-0.1-0.4l-2.6,0.4c0,0.2,0,0.3,0.1,0.5c0.1,0.4,0.1,0.8,0.1,1.2c0,0.1-0.1,0.1-0.1,0.1
			c-0.1,0-0.1,0-0.1-0.1c-0.1-0.4-0.2-0.8-0.3-1.3c0-0.1-0.1-0.2-0.1-0.4l-2.6,0.4c0,0.2,0,0.3,0.1,0.5c0.1,0.4,0.1,0.8,0.1,1.2
			c0,0.1-0.1,0.1-0.1,0.1c-0.1,0-0.1,0-0.1-0.1c-0.1-0.4-0.2-0.8-0.3-1.3c0-0.1-0.1-0.3-0.1-0.4l-2.6,0.4c0,0.2,0,0.3,0.1,0.5
			c0.1,0.4,0.1,0.8,0.1,1.2c0,0.1-0.1,0.1-0.1,0.1c-0.1,0-0.1,0-0.1-0.1c-0.1-0.4-0.2-0.8-0.3-1.3c0-0.1-0.1-0.3-0.1-0.4l-2.6,0.4
			c0,0.2,0,0.3,0.1,0.5c0.1,0.4,0.1,0.8,0.1,1.2c0,0.1-0.1,0.1-0.1,0.1c-0.1,0-0.1,0-0.1-0.1c-0.1-0.4-0.2-0.8-0.3-1.3
			c0-0.1-0.1-0.3-0.1-0.4L19,6c0,0.2,0,0.3,0.1,0.5c0.1,0.4,0.1,0.8,0.1,1.2c0,0.1-0.1,0.1-0.1,0.1c-0.1,0-0.1,0-0.1-0.1
			c-0.1-0.4-0.2-0.8-0.3-1.3c0-0.1-0.1-0.3-0.1-0.4l-2.6,0.4c0,0.2,0,0.3,0.1,0.5C16,7.4,16,7.8,16,8.2c0,0.1-0.1,0.1-0.1,0.1
			c-0.1,0-0.1,0-0.1-0.1c-0.1-0.4-0.2-0.8-0.3-1.3c0-0.1-0.1-0.3-0.1-0.4L12.7,7c0,0.2,0,0.4,0.1,0.5c0.1,0.4,0.1,0.8,0.1,1.2
			c0,0.1-0.1,0.1-0.1,0.1c-0.1,0-0.1,0-0.1-0.1c-0.1-0.4-0.2-0.8-0.3-1.3c0-0.1-0.1-0.3-0.1-0.4L9.6,7.6c0,0.2,0,0.4,0.1,0.5
			c0.1,0.4,0.1,0.8,0.1,1.2c0,0.1-0.1,0.1-0.1,0.1c-0.1,0-0.1,0-0.1-0.1C9.3,8.9,9.2,8.5,9.2,8.1c0-0.1-0.1-0.3-0.1-0.4L7.4,7.9
			C7.1,8,6.8,8,6.4,8.1c0,0.2,0,0.3,0.1,0.5C6.6,9,6.6,9.4,6.6,9.8c0,0.1-0.1,0.1-0.1,0.1c-0.1,0-0.1,0-0.1-0.1C6.2,9.5,6.1,9,6,8.6
			c0-0.1-0.1-0.3-0.1-0.4C5.1,8.4,4.2,8.6,3.3,8.8c0,0.1,0,0.3,0,0.4c0.1,0.4,0.1,0.8,0.1,1.2c0,0.1-0.1,0.1-0.1,0.1
			c-0.1,0-0.1,0-0.1-0.1C3,10,2.9,9.6,2.9,9.1c0-0.1,0-0.2-0.1-0.3C2.3,8.9,1.8,9,1.3,9c0.5,2.4,0.6,4.8,0.4,7.2
			c1.8-0.2,3.7-0.6,5.5-0.9c4-0.7,8-1.3,12-2c9-1.5,18-3,27-4.5c2-0.5,4-0.9,6.1-1.1c-0.5-2.4-0.6-4.8-0.4-7.2
			c-0.5,0-0.9,0.1-1.4,0.2c0,0.2,0,0.4,0.1,0.5c0.1,0.4,0.1,0.8,0.1,1.2c0,0.1-0.1,0.1-0.1,0.1c-0.1,0-0.1,0-0.1-0.1
			C50.2,2,50.1,1.6,50,1.1C50,1,50,0.9,49.9,0.7c-0.9,0.2-1.8,0.3-2.6,0.5c0,0.2,0,0.3,0.1,0.4c0.1,0.4,0.1,0.8,0.1,1.2
			C47.5,3,47.4,3,47.3,3c-0.1,0-0.1,0-0.1-0.1c-0.1-0.4-0.2-0.8-0.3-1.3c0-0.1-0.1-0.2-0.1-0.4c-0.2,0-0.3,0.1-0.5,0.1L44.2,1.8z"/>
	</g>
</g>
</svg>
